<svg xmlns="http://www.w3.org/2000/svg" xmlns:xlink="http://www.w3.org/1999/xlink" version="1.1" id="Layer_1" x="0px" y="0px" width="100%" viewBox="0 0 1280 1256" enable-background="new 0 0 1280 1256" xml:space="preserve">
<path fill="#0177c1" opacity="1.000000" stroke="none" d=" M1.000000,284.000000   C1.000000,189.333344 1.000000,95.166702 1.000000,1.000038   C427.666595,1.000025 854.333191,1.000025 1280.999756,1.000013   C1280.999878,419.666504 1280.999878,838.333008 1281.000000,1256.999634   C854.333557,1256.999756 427.667145,1256.999756 1.000367,1256.999878   C1.000000,932.833313 1.000000,608.666687 1.000000,284.000000  M639.500000,25.999142   C435.072906,25.999142 230.645844,25.999142 26.285976,25.999142   C26.285976,427.975525 26.285976,829.378235 26.285976,1230.713989   C436.308838,1230.713989 846.044800,1230.713989 1255.713989,1230.713989   C1255.713989,829.024475 1255.713989,427.621704 1255.713989,25.999142   C1050.451538,25.999142 845.475769,25.999142 639.500000,25.999142  z"/>
<path fill="#0177c1" opacity="1.000000" stroke="none" d=" M640.000000,25.999142   C845.475769,25.999142 1050.451538,25.999142 1255.713989,25.999142   C1255.713989,427.621704 1255.713989,829.024475 1255.713989,1230.713989   C846.044800,1230.713989 436.308838,1230.713989 26.285976,1230.713989   C26.285976,829.378235 26.285976,427.975525 26.285976,25.999142   C230.645844,25.999142 435.072906,25.999142 640.000000,25.999142  M65.102028,740.500000   C65.102066,877.823181 65.085175,1015.146423 65.164398,1152.469604   C65.167549,1157.929199 65.465340,1163.530396 66.679604,1168.823853   C73.083046,1196.739258 95.861061,1214.031616 125.760941,1214.031982   C475.242279,1214.036255 824.723633,1214.034790 1174.204956,1214.033569   C1175.704712,1214.033569 1177.204956,1214.031982 1178.704346,1214.000854   C1207.357544,1213.407959 1232.062012,1190.318359 1234.065796,1161.663208   C1234.831055,1150.716553 1234.443237,1139.683228 1234.437988,1128.689453   C1234.351562,950.532349 1234.225464,772.375183 1234.142578,594.218079   C1234.065796,429.393585 1234.015991,264.569061 1234.011719,99.744553   C1234.011475,90.275108 1232.775146,81.082397 1228.526245,72.598564   C1217.085083,49.754189 1198.239746,39.057804 1172.890137,39.059433   C824.075439,39.081837 475.260681,39.074417 126.445976,39.078278   C124.446602,39.078300 122.443718,39.068684 120.448448,39.175365   C110.809250,39.690762 101.688408,42.151848 93.480263,47.261543   C73.981339,59.399918 65.071617,77.249748 65.076302,100.034164   C65.120155,313.189453 65.102165,526.344727 65.102028,740.500000  z"/>
<path fill="#0177c1" opacity="1.000000" stroke="none" d=" M65.102051,740.000000   C65.102165,526.344727 65.120155,313.189453 65.076302,100.034164   C65.071617,77.249748 73.981339,59.399918 93.480263,47.261543   C101.688408,42.151848 110.809250,39.690762 120.448448,39.175365   C122.443718,39.068684 124.446602,39.078300 126.445976,39.078278   C475.260681,39.074417 824.075439,39.081837 1172.890137,39.059433   C1198.239746,39.057804 1217.085083,49.754189 1228.526245,72.598564   C1232.775146,81.082397 1234.011475,90.275108 1234.011719,99.744553   C1234.015991,264.569061 1234.065796,429.393585 1234.142578,594.218079   C1234.225464,772.375183 1234.351562,950.532349 1234.437988,1128.689453   C1234.443237,1139.683228 1234.831055,1150.716553 1234.065796,1161.663208   C1232.062012,1190.318359 1207.357544,1213.407959 1178.704346,1214.000854   C1177.204956,1214.031982 1175.704712,1214.033569 1174.204956,1214.033569   C824.723633,1214.034790 475.242279,1214.036255 125.760941,1214.031982   C95.861061,1214.031616 73.083046,1196.739258 66.679604,1168.823853   C65.465340,1163.530396 65.167549,1157.929199 65.164398,1152.469604   C65.085175,1015.146423 65.102066,877.823181 65.102051,740.000000  M998.969299,293.474426   C995.529541,303.888153 992.153992,314.323639 988.631958,324.709442   C985.160767,334.945709 981.609253,345.156036 977.967896,355.332947   C974.336426,365.482056 970.549622,375.575562 966.562805,386.422943   C965.743225,384.927032 965.359070,384.380707 965.124634,383.776276   C939.839539,318.567566 909.621094,255.195709 891.529846,187.499939   C872.720703,187.499939 853.539185,187.499939 834.202820,187.499939   C839.678833,195.420547 837.836121,203.805923 835.268433,211.927017   C820.882507,257.426727 806.342651,302.878021 791.739014,348.308441   C789.163208,356.321442 786.037415,364.157654 782.995605,372.544128   C782.271667,371.483276 781.946411,371.105408 781.728455,370.673401   C755.119507,317.922455 729.833130,264.595306 710.432190,208.663071   C708.549316,203.234985 705.727356,198.039261 702.699158,193.131958   C700.353760,189.331345 696.526306,187.387741 691.698303,187.410980   C637.204590,187.673203 582.710388,187.849258 528.216370,188.027084   C515.172668,188.069641 502.128693,188.033386 489.283142,188.033386   C495.524078,191.543640 498.638580,197.854080 499.902344,204.788132   C501.476135,213.423157 502.869171,222.238663 502.906860,230.982422   C503.172607,292.646851 503.070099,354.312866 503.085083,415.978394   C503.085419,417.377197 503.085083,418.776001 503.085083,421.633911   C501.526917,419.290649 500.801910,418.251251 500.128113,417.179688   C469.817902,368.976685 439.341400,320.877075 409.273682,272.523285   C392.749847,245.950317 373.216492,220.720917 369.074188,188.463791   C341.013702,188.463791 313.205200,188.463791 284.882874,188.463791   C292.365387,196.120590 295.232361,205.254318 295.861908,214.793839   C297.331116,237.057495 298.532501,259.358032 299.043060,281.661957   C300.321289,337.501282 298.555908,393.299591 295.827850,449.071136   C295.327301,459.304596 292.112976,468.038177 282.250153,472.908844   C280.061432,473.989685 277.684601,474.689606 274.250397,476.002106   C295.509796,476.002106 315.506561,475.971649 335.503174,476.013824   C347.045288,476.038177 353.885468,482.261444 352.605347,493.711853   C351.628784,502.446930 349.306366,511.537048 345.344025,519.331177   C336.151428,537.413574 325.608551,554.809814 315.603333,572.478699   C309.377747,583.472900 303.134430,594.456970 296.696503,605.802551   C295.459137,604.151794 294.457123,602.882690 293.526367,601.563293   C274.422485,574.480591 255.483017,547.280090 236.167633,520.349121   C225.462875,505.423737 213.773010,491.219635 198.344971,480.837219   C193.909973,477.852600 188.520325,474.648743 183.476028,474.490540   C161.456512,473.800049 139.403000,474.193573 117.361839,474.193573   C130.312927,479.094666 141.142258,487.113892 151.033432,496.261597   C161.664368,506.093475 171.964325,516.331970 181.835052,526.927490   C206.442108,553.341309 226.566299,583.265930 247.443604,612.549438   C258.042603,627.416016 264.340027,644.395874 264.647308,662.881531   C265.010040,684.703369 264.623199,706.539062 264.451660,728.367859   C264.332062,743.583069 257.374451,754.726685 243.970520,761.874756   C243.019089,762.382141 242.055634,762.866943 240.671204,763.582764   C253.386398,763.582764 265.503052,763.870667 277.599243,763.496704   C288.365356,763.163879 295.761902,767.922424 300.701813,777.059631   C305.637909,786.189758 307.823273,796.157532 307.842834,806.383423   C307.971039,873.380676 307.977417,940.378723 307.704346,1007.375183   C307.674225,1014.764282 306.102112,1022.258179 304.388885,1029.500977   C302.256378,1038.516235 297.205658,1045.989868 288.686584,1051.862549   C290.549133,1051.862549 291.213867,1051.892700 291.875214,1051.858154   C333.551300,1049.681396 375.127380,1051.082275 416.705841,1054.499390   C426.842926,1055.332642 437.306396,1054.147461 447.401093,1052.527588   C451.141418,1051.927246 456.327026,1047.987549 457.272827,1044.577637   C460.414246,1033.251587 461.927826,1021.474121 464.065582,1009.869751   C453.944916,1021.398132 441.151459,1025.769653 426.774017,1025.979980   C409.957275,1026.225952 393.124023,1026.209595 376.316498,1025.697876   C371.142609,1025.540405 365.854767,1023.853333 360.936035,1022.017395   C355.667114,1020.050781 353.037781,1015.735901 353.078888,1009.865784   C353.124390,1003.368164 352.905121,996.868103 352.768677,990.369873   C351.323517,921.542847 351.129395,852.728943 354.812805,783.952209   C355.471344,771.655762 361.345154,763.875366 373.084656,759.974426   C374.266907,759.581543 375.419952,759.100830 377.545715,758.299194   C369.640808,758.299194 362.843048,758.299316 356.045319,758.299133   C349.045441,758.298889 342.044220,758.387573 335.045990,758.280457   C317.600250,758.013489 307.919708,748.238525 307.917847,731.011108   C307.915619,710.511475 307.818695,690.011169 307.983063,669.512878   C308.017365,665.235229 308.191040,660.642578 309.717926,656.751221   C314.684662,644.092834 319.149475,631.026489 325.881073,619.308350   C354.262543,569.903076 381.404938,519.683533 416.443573,473.998108   C414.728027,473.998108 413.112823,473.998169 411.497620,473.998138   C394.997925,473.997772 378.497314,474.104889 361.998810,473.966187   C346.156158,473.833008 335.044952,462.473206 335.043304,446.671814   C335.036652,383.173004 335.039032,319.674164 335.048828,256.175354   C335.049072,254.678696 335.175751,253.182083 335.243408,251.685440   C335.648682,251.583435 336.053925,251.481445 336.459198,251.379456   C385.555450,327.230042 434.651703,403.080658 484.231476,479.678253   C481.009644,480.431305 479.409119,480.781311 477.821655,481.183075   C476.209869,481.591003 474.598175,482.007904 473.008392,482.492767   C435.377594,493.970001 412.548798,519.749023 403.113525,557.176880   C391.435455,603.501648 393.932251,649.997131 404.791809,696.131897   C410.277069,719.434998 422.990570,738.054688 445.029694,748.600403   C455.287170,753.508667 466.348694,757.188110 477.429169,759.794800   C487.998749,762.281372 495.236847,767.767883 497.997833,777.798706   C500.443390,786.683655 502.287872,796.025146 502.440125,805.197510   C502.968414,837.021545 502.914124,868.862488 502.575134,900.691650   C502.163574,939.334290 502.262268,978.037842 496.900665,1016.424805   C495.041840,1029.733032 494.081940,1043.846436 479.672546,1051.662598   C508.438416,1051.662598 536.554993,1051.662598 564.158752,1051.662598   C552.951477,1045.735718 550.096191,1035.059814 550.107971,1022.346985   C550.154236,972.351868 549.581604,922.356262 549.620972,872.361084   C549.641418,846.369385 550.037842,820.361755 551.058899,794.392578   C551.798096,775.589233 561.391479,764.372498 579.197083,759.094910   C581.588135,758.386230 584.001160,757.729553 586.342834,756.880249   C599.535767,752.094910 612.777405,747.131531 622.638855,736.644348   C633.944153,724.621643 642.352966,710.714722 647.005005,694.724609   C658.893494,653.861389 658.899841,612.439331 651.069397,571.090820   C643.223450,529.660522 620.506042,499.356079 580.305054,483.646759   C576.064880,481.989868 571.883667,480.182037 567.675110,478.444275   C569.332275,477.701019 570.806091,477.696808 572.279846,477.701660   C602.944702,477.802399 633.610962,478.110077 664.273865,477.910980   C677.773621,477.823364 686.760742,484.017517 692.287109,495.754333   C694.323914,500.080048 696.311218,504.720734 696.880371,509.393250   C698.871582,525.739990 700.858276,542.130432 701.721497,558.563354   C704.593079,613.226135 703.493713,667.853027 697.744629,722.295776   C696.808655,731.159241 693.298889,739.980530 689.695740,748.263123   C686.562683,755.465027 680.162354,758.895386 671.787292,758.383789   C664.571960,757.943176 657.308411,758.292358 649.093445,758.292358   C656.174805,763.217712 659.265686,769.716492 660.137695,776.888855   C661.479492,787.924988 662.439758,799.058594 662.676331,810.169739   C664.188232,881.185364 662.406006,952.139404 657.919556,1023.023193   C657.281006,1033.112183 653.876953,1042.224487 646.030518,1049.160278   C644.665344,1050.367188 643.176819,1051.434570 642.080505,1052.301392   C667.706726,1052.301392 693.295349,1052.301392 718.785522,1052.301392   C710.786072,1046.020264 708.441467,1036.495361 708.175293,1026.898926   C707.242188,993.253601 707.048706,959.588196 706.462524,925.932373   C706.401672,922.440918 708.328064,922.221741 710.872925,922.219360   C733.027405,922.198608 755.201050,921.608704 777.327881,922.374817   C787.447205,922.725220 798.105103,922.184448 807.917053,927.712769   C810.564941,914.150513 813.184570,900.732971 815.697998,887.859619   C779.331848,887.859619 743.424011,887.859619 706.963928,887.859619   C706.963928,886.168030 706.963928,884.375977 706.963928,882.583862   C706.963928,856.917664 706.962830,831.251465 706.964600,805.585266   C706.965210,796.601440 709.571777,793.165710 718.505127,792.951233   C741.971802,792.388123 765.458496,791.918091 788.921509,792.321045   C797.649841,792.470947 806.334656,795.151245 815.467163,796.752686   C816.929382,789.499573 818.537048,781.193542 820.290466,772.918335   C822.156738,764.109985 820.678406,762.415955 811.508545,762.439514   C796.680542,762.477600 781.836243,762.724792 767.028870,762.133240   C755.315552,761.665222 749.063660,754.223022 749.068726,742.467590   C749.100647,668.636047 749.120239,594.804443 749.147827,520.972900   C749.148560,519.140259 749.070923,517.296082 749.240723,515.476929   C750.075867,506.527069 754.650757,501.641846 763.514771,500.067322   C777.548645,497.574554 791.604614,497.053955 805.786804,498.900787   C827.125000,501.679535 837.445435,511.767426 841.828857,532.765320   C846.363770,554.489258 832.653992,586.388306 804.639160,592.584229   C797.722412,594.114014 790.502197,594.337158 783.403015,594.945435   C780.321594,595.209473 778.091980,595.207520 779.730652,599.509949   C799.288452,650.860535 822.497498,700.589722 846.184998,750.117493   C850.282288,758.684448 856.483337,763.362854 865.946167,763.589478   C871.763428,763.728943 875.350098,766.908752 876.931396,772.117676   C878.028076,775.730286 878.759583,779.622498 878.731689,783.382874   C878.175964,858.204407 877.704712,933.028015 876.646973,1007.843140   C876.422180,1023.746826 874.393555,1039.763794 861.219421,1052.333374   C869.999084,1051.903687 877.976135,1051.573120 885.945618,1051.112305   C914.495300,1049.461792 942.831970,1053.209717 971.272278,1054.324097   C989.403320,1055.034424 1007.572937,1055.042358 1025.721680,1054.901733   C1035.158447,1054.828735 1038.008789,1052.233398 1040.344238,1043.052002   C1041.900024,1036.935059 1042.863892,1030.668823 1044.151123,1024.481567   C1045.472168,1018.131714 1046.864258,1011.796631 1048.225342,1005.455078   C1039.304321,1016.414185 1027.462524,1020.010071 1014.495483,1021.168640   C1009.024841,1021.657532 1003.514587,1021.728088 998.052856,1022.287048   C980.231567,1024.110962 962.487244,1023.974304 944.801331,1020.840332   C933.435242,1018.826233 928.076843,1012.545227 928.075684,1000.947388   C928.073059,974.447876 928.074768,947.948364 928.074768,921.448853   C928.074768,919.671143 928.074829,917.893494 928.074829,915.514832   C949.827881,915.514832 970.969177,915.171509 992.091064,915.663086   C1002.300598,915.900757 1012.473572,917.707458 1023.291382,918.871338   C1025.161743,907.631042 1027.265747,894.985840 1029.318481,882.649353   C995.115051,882.649353 961.725037,882.649353 928.006470,882.649353   C928.006470,856.679565 928.001465,831.357178 928.009033,806.034790   C928.012085,795.978394 931.901367,791.289795 941.946716,791.276245   C964.765991,791.245300 987.602783,791.403687 1010.397095,792.344360   C1019.133301,792.704834 1028.632324,792.365051 1036.230713,800.395081   C1038.316284,790.228882 1040.225708,781.009888 1042.094360,771.782776   C1043.381226,765.428528 1042.671387,764.354675 1036.214233,763.322205   C1034.090088,762.982605 1031.897705,762.985107 1029.736084,762.979431   C1020.736389,762.955750 1011.736511,763.016541 1002.736816,762.992249   C995.167664,762.971863 990.574341,759.494202 988.675964,752.093811   C988.064880,749.711487 987.893616,747.159912 987.893066,744.685669   C987.875244,661.687256 987.897339,578.688782 987.930542,495.690338   C987.933960,487.124603 989.537964,479.162140 997.898010,473.093048   C989.990173,473.093048 983.100342,473.093048 975.366821,473.093048   C1007.844482,377.263123 1037.052368,281.015991 1076.123779,188.988495   C1057.719482,188.988495 1038.704224,188.988495 1018.662170,188.988495   C1025.287354,194.426208 1025.535278,200.991348 1024.795532,207.730911   C1024.489136,210.523865 1023.806091,213.312866 1022.974915,216.005051   C1015.077942,241.583237 1007.112183,267.140228 998.969299,293.474426  M1096.031372,481.493561   C1061.424194,521.078796 1026.816895,560.664001 992.855957,599.509949   C1009.777649,624.278870 1026.206299,647.907227 1042.188354,671.833923   C1059.197632,697.298645 1075.810547,723.028503 1092.541260,748.678772   C1098.772827,758.232666 1106.582031,763.852722 1118.895264,763.233398   C1134.847534,762.431091 1150.870605,763.044067 1166.863281,763.025818   C1168.227905,763.024292 1169.592163,762.859009 1169.514404,762.864075   C1158.873535,750.526672 1147.404541,738.234802 1137.065796,725.056213   C1104.041138,682.960327 1075.178589,637.970459 1046.280029,593.015625   C1044.384277,590.066650 1045.211426,588.470276 1047.192749,586.209961   C1082.127441,546.356445 1117.791504,507.229065 1157.694702,473.054779   C1145.093750,473.054779 1131.598511,472.858582 1118.112671,473.129059   C1110.148682,473.288757 1102.658569,475.433685 1096.031372,481.493561  M1048.632202,1003.533691   C1048.632202,1003.533691 1048.438110,1003.387695 1048.438110,1003.387695   C1048.438110,1003.387695 1048.451904,1003.726746 1048.632202,1003.533691  M566.671936,1053.513550   C566.671936,1053.513550 566.398010,1053.406738 566.398010,1053.406738   C566.398010,1053.406738 566.462891,1053.603882 566.671936,1053.513550  z"/>
<path fill="#fffaf7" opacity="1.000000" stroke="none" d=" M999.067749,293.088867   C1007.112183,267.140228 1015.077942,241.583237 1022.974915,216.005051   C1023.806091,213.312866 1024.489136,210.523865 1024.795532,207.730911   C1025.535278,200.991348 1025.287354,194.426208 1018.662170,188.988495   C1038.704224,188.988495 1057.719482,188.988495 1076.123779,188.988495   C1037.052368,281.015991 1007.844482,377.263123 975.366821,473.093048   C983.100342,473.093048 989.990173,473.093048 997.898010,473.093048   C989.537964,479.162140 987.933960,487.124603 987.930542,495.690338   C987.897339,578.688782 987.875244,661.687256 987.893066,744.685669   C987.893616,747.159912 988.064880,749.711487 988.675964,752.093811   C990.574341,759.494202 995.167664,762.971863 1002.736816,762.992249   C1011.736511,763.016541 1020.736389,762.955750 1029.736084,762.979431   C1031.897705,762.985107 1034.090088,762.982605 1036.214233,763.322205   C1042.671387,764.354675 1043.381226,765.428528 1042.094360,771.782776   C1040.225708,781.009888 1038.316284,790.228882 1036.230713,800.395081   C1028.632324,792.365051 1019.133301,792.704834 1010.397095,792.344360   C987.602783,791.403687 964.765991,791.245300 941.946716,791.276245   C931.901367,791.289795 928.012085,795.978394 928.009033,806.034790   C928.001465,831.357178 928.006470,856.679565 928.006470,882.649353   C961.725037,882.649353 995.115051,882.649353 1029.318481,882.649353   C1027.265747,894.985840 1025.161743,907.631042 1023.291382,918.871338   C1012.473572,917.707458 1002.300598,915.900757 992.091064,915.663086   C970.969177,915.171509 949.827881,915.514832 928.074829,915.514832   C928.074829,917.893494 928.074768,919.671143 928.074768,921.448853   C928.074768,947.948364 928.073059,974.447876 928.075684,1000.947388   C928.076843,1012.545227 933.435242,1018.826233 944.801331,1020.840332   C962.487244,1023.974304 980.231567,1024.110962 998.052856,1022.287048   C1003.514587,1021.728088 1009.024841,1021.657532 1014.495483,1021.168640   C1027.462524,1020.010071 1039.304321,1016.414185 1048.225342,1005.455078   C1046.864258,1011.796631 1045.472168,1018.131714 1044.151123,1024.481567   C1042.863892,1030.668823 1041.900024,1036.935059 1040.344238,1043.052002   C1038.008789,1052.233398 1035.158447,1054.828735 1025.721680,1054.901733   C1007.572937,1055.042358 989.403320,1055.034424 971.272278,1054.324097   C942.831970,1053.209717 914.495300,1049.461792 885.945618,1051.112305   C877.976135,1051.573120 869.999084,1051.903687 861.219421,1052.333374   C874.393555,1039.763794 876.422180,1023.746826 876.646973,1007.843140   C877.704712,933.028015 878.175964,858.204407 878.731689,783.382874   C878.759583,779.622498 878.028076,775.730286 876.931396,772.117676   C875.350098,766.908752 871.763428,763.728943 865.946167,763.589478   C856.483337,763.362854 850.282288,758.684448 846.184998,750.117493   C822.497498,700.589722 799.288452,650.860535 779.730652,599.509949   C778.091980,595.207520 780.321594,595.209473 783.403015,594.945435   C790.502197,594.337158 797.722412,594.114014 804.639160,592.584229   C832.653992,586.388306 846.363770,554.489258 841.828857,532.765320   C837.445435,511.767426 827.125000,501.679535 805.786804,498.900787   C791.604614,497.053955 777.548645,497.574554 763.514771,500.067322   C754.650757,501.641846 750.075867,506.527069 749.240723,515.476929   C749.070923,517.296082 749.148560,519.140259 749.147827,520.972900   C749.120239,594.804443 749.100647,668.636047 749.068726,742.467590   C749.063660,754.223022 755.315552,761.665222 767.028870,762.133240   C781.836243,762.724792 796.680542,762.477600 811.508545,762.439514   C820.678406,762.415955 822.156738,764.109985 820.290466,772.918335   C818.537048,781.193542 816.929382,789.499573 815.467163,796.752686   C806.334656,795.151245 797.649841,792.470947 788.921509,792.321045   C765.458496,791.918091 741.971802,792.388123 718.505127,792.951233   C709.571777,793.165710 706.965210,796.601440 706.964600,805.585266   C706.962830,831.251465 706.963928,856.917664 706.963928,882.583862   C706.963928,884.375977 706.963928,886.168030 706.963928,887.859619   C743.424011,887.859619 779.331848,887.859619 815.697998,887.859619   C813.184570,900.732971 810.564941,914.150513 807.917053,927.712769   C798.105103,922.184448 787.447205,922.725220 777.327881,922.374817   C755.201050,921.608704 733.027405,922.198608 710.872925,922.219360   C708.328064,922.221741 706.401672,922.440918 706.462524,925.932373   C707.048706,959.588196 707.242188,993.253601 708.175293,1026.898926   C708.441467,1036.495361 710.786072,1046.020264 718.785522,1052.301392   C693.295349,1052.301392 667.706726,1052.301392 642.080505,1052.301392   C643.176819,1051.434570 644.665344,1050.367188 646.030518,1049.160278   C653.876953,1042.224487 657.281006,1033.112183 657.919556,1023.023193   C662.406006,952.139404 664.188232,881.185364 662.676331,810.169739   C662.439758,799.058594 661.479492,787.924988 660.137695,776.888855   C659.265686,769.716492 656.174805,763.217712 649.093445,758.292358   C657.308411,758.292358 664.571960,757.943176 671.787292,758.383789   C680.162354,758.895386 686.562683,755.465027 689.695740,748.263123   C693.298889,739.980530 696.808655,731.159241 697.744629,722.295776   C703.493713,667.853027 704.593079,613.226135 701.721497,558.563354   C700.858276,542.130432 698.871582,525.739990 696.880371,509.393250   C696.311218,504.720734 694.323914,500.080048 692.287109,495.754333   C686.760742,484.017517 677.773621,477.823364 664.273865,477.910980   C633.610962,478.110077 602.944702,477.802399 572.279846,477.701660   C570.806091,477.696808 569.332275,477.701019 567.675110,478.444275   C571.883667,480.182037 576.064880,481.989868 580.305054,483.646759   C620.506042,499.356079 643.223450,529.660522 651.069397,571.090820   C658.899841,612.439331 658.893494,653.861389 647.005005,694.724609   C642.352966,710.714722 633.944153,724.621643 622.638855,736.644348   C612.777405,747.131531 599.535767,752.094910 586.342834,756.880249   C584.001160,757.729553 581.588135,758.386230 579.197083,759.094910   C561.391479,764.372498 551.798096,775.589233 551.058899,794.392578   C550.037842,820.361755 549.641418,846.369385 549.620972,872.361084   C549.581604,922.356262 550.154236,972.351868 550.107971,1022.346985   C550.096191,1035.059814 552.951477,1045.735718 564.158752,1051.662598   C536.554993,1051.662598 508.438416,1051.662598 479.672546,1051.662598   C494.081940,1043.846436 495.041840,1029.733032 496.900665,1016.424805   C502.262268,978.037842 502.163574,939.334290 502.575134,900.691650   C502.914124,868.862488 502.968414,837.021545 502.440125,805.197510   C502.287872,796.025146 500.443390,786.683655 497.997833,777.798706   C495.236847,767.767883 487.998749,762.281372 477.429169,759.794800   C466.348694,757.188110 455.287170,753.508667 445.029694,748.600403   C422.990570,738.054688 410.277069,719.434998 404.791809,696.131897   C393.932251,649.997131 391.435455,603.501648 403.113525,557.176880   C412.548798,519.749023 435.377594,493.970001 473.008392,482.492767   C474.598175,482.007904 476.209869,481.591003 477.821655,481.183075   C479.409119,480.781311 481.009644,480.431305 484.231476,479.678253   C434.651703,403.080658 385.555450,327.230042 336.459198,251.379456   C336.053925,251.481445 335.648682,251.583435 335.243408,251.685440   C335.175751,253.182083 335.049072,254.678696 335.048828,256.175354   C335.039032,319.674164 335.036652,383.173004 335.043304,446.671814   C335.044952,462.473206 346.156158,473.833008 361.998810,473.966187   C378.497314,474.104889 394.997925,473.997772 411.497620,473.998138   C413.112823,473.998169 414.728027,473.998108 416.443573,473.998108   C381.404938,519.683533 354.262543,569.903076 325.881073,619.308350   C319.149475,631.026489 314.684662,644.092834 309.717926,656.751221   C308.191040,660.642578 308.017365,665.235229 307.983063,669.512878   C307.818695,690.011169 307.915619,710.511475 307.917847,731.011108   C307.919708,748.238525 317.600250,758.013489 335.045990,758.280457   C342.044220,758.387573 349.045441,758.298889 356.045319,758.299133   C362.843048,758.299316 369.640808,758.299194 377.545715,758.299194   C375.419952,759.100830 374.266907,759.581543 373.084656,759.974426   C361.345154,763.875366 355.471344,771.655762 354.812805,783.952209   C351.129395,852.728943 351.323517,921.542847 352.768677,990.369873   C352.905121,996.868103 353.124390,1003.368164 353.078888,1009.865784   C353.037781,1015.735901 355.667114,1020.050781 360.936035,1022.017395   C365.854767,1023.853333 371.142609,1025.540405 376.316498,1025.697876   C393.124023,1026.209595 409.957275,1026.225952 426.774017,1025.979980   C441.151459,1025.769653 453.944916,1021.398132 464.065582,1009.869751   C461.927826,1021.474121 460.414246,1033.251587 457.272827,1044.577637   C456.327026,1047.987549 451.141418,1051.927246 447.401093,1052.527588   C437.306396,1054.147461 426.842926,1055.332642 416.705841,1054.499390   C375.127380,1051.082275 333.551300,1049.681396 291.875214,1051.858154   C291.213867,1051.892700 290.549133,1051.862549 288.686584,1051.862549   C297.205658,1045.989868 302.256378,1038.516235 304.388885,1029.500977   C306.102112,1022.258179 307.674225,1014.764282 307.704346,1007.375183   C307.977417,940.378723 307.971039,873.380676 307.842834,806.383423   C307.823273,796.157532 305.637909,786.189758 300.701813,777.059631   C295.761902,767.922424 288.365356,763.163879 277.599243,763.496704   C265.503052,763.870667 253.386398,763.582764 240.671204,763.582764   C242.055634,762.866943 243.019089,762.382141 243.970520,761.874756   C257.374451,754.726685 264.332062,743.583069 264.451660,728.367859   C264.623199,706.539062 265.010040,684.703369 264.647308,662.881531   C264.340027,644.395874 258.042603,627.416016 247.443604,612.549438   C226.566299,583.265930 206.442108,553.341309 181.835052,526.927490   C171.964325,516.331970 161.664368,506.093475 151.033432,496.261597   C141.142258,487.113892 130.312927,479.094666 117.361839,474.193573   C139.403000,474.193573 161.456512,473.800049 183.476028,474.490540   C188.520325,474.648743 193.909973,477.852600 198.344971,480.837219   C213.773010,491.219635 225.462875,505.423737 236.167633,520.349121   C255.483017,547.280090 274.422485,574.480591 293.526367,601.563293   C294.457123,602.882690 295.459137,604.151794 296.696503,605.802551   C303.134430,594.456970 309.377747,583.472900 315.603333,572.478699   C325.608551,554.809814 336.151428,537.413574 345.344025,519.331177   C349.306366,511.537048 351.628784,502.446930 352.605347,493.711853   C353.885468,482.261444 347.045288,476.038177 335.503174,476.013824   C315.506561,475.971649 295.509796,476.002106 274.250397,476.002106   C277.684601,474.689606 280.061432,473.989685 282.250153,472.908844   C292.112976,468.038177 295.327301,459.304596 295.827850,449.071136   C298.555908,393.299591 300.321289,337.501282 299.043060,281.661957   C298.532501,259.358032 297.331116,237.057495 295.861908,214.793839   C295.232361,205.254318 292.365387,196.120590 284.882874,188.463791   C313.205200,188.463791 341.013702,188.463791 369.074188,188.463791   C373.216492,220.720917 392.749847,245.950317 409.273682,272.523285   C439.341400,320.877075 469.817902,368.976685 500.128113,417.179688   C500.801910,418.251251 501.526917,419.290649 503.085083,421.633911   C503.085083,418.776001 503.085419,417.377197 503.085083,415.978394   C503.070099,354.312866 503.172607,292.646851 502.906860,230.982422   C502.869171,222.238663 501.476135,213.423157 499.902344,204.788132   C498.638580,197.854080 495.524078,191.543640 489.283142,188.033386   C502.128693,188.033386 515.172668,188.069641 528.216370,188.027084   C582.710388,187.849258 637.204590,187.673203 691.698303,187.410980   C696.526306,187.387741 700.353760,189.331345 702.699158,193.131958   C705.727356,198.039261 708.549316,203.234985 710.432190,208.663071   C729.833130,264.595306 755.119507,317.922455 781.728455,370.673401   C781.946411,371.105408 782.271667,371.483276 782.995605,372.544128   C786.037415,364.157654 789.163208,356.321442 791.739014,348.308441   C806.342651,302.878021 820.882507,257.426727 835.268433,211.927017   C837.836121,203.805923 839.678833,195.420547 834.202820,187.499939   C853.539185,187.499939 872.720703,187.499939 891.529846,187.499939   C909.621094,255.195709 939.839539,318.567566 965.124634,383.776276   C965.359070,384.380707 965.743225,384.927032 966.562805,386.422943   C970.549622,375.575562 974.336426,365.482056 977.967896,355.332947   C981.609253,345.156036 985.160767,334.945709 988.631958,324.709442   C992.153992,314.323639 995.529541,303.888153 999.067749,293.088867  M939.999634,550.506592   C939.334656,537.204712 939.202576,523.848633 937.856506,510.616058   C936.481140,497.096130 934.223755,483.579193 922.946411,472.872650   C930.152100,472.872650 936.552979,472.872650 942.928223,472.872650   C943.079468,458.956329 876.240051,277.824432 863.274780,256.652893   C862.848389,257.674225 862.400452,258.567139 862.094360,259.506256   C843.088379,317.819214 823.942871,376.087463 805.217529,434.490417   C801.146301,447.188354 798.584167,460.370117 795.383606,473.103973   C810.759766,474.125946 824.895874,474.652588 838.935120,476.111572   C853.764038,477.652618 867.126404,483.134735 876.926514,494.883728   C901.773682,524.672241 897.222168,578.082703 853.115051,595.957092   C845.462524,599.058289 837.380249,601.099060 829.364319,603.672058   C829.389893,603.776428 829.431213,604.255249 829.619263,604.667114   C851.074829,651.652527 874.970093,697.323120 904.128967,740.036377   C909.104492,747.324768 915.583923,754.024597 922.613464,759.354492   C930.240723,765.137329 937.444885,764.442444 937.939453,751.833679   C939.036133,723.873352 940.553284,695.910034 940.765076,667.939270   C941.059021,629.131592 940.312317,590.316101 939.999634,550.506592  M753.121948,428.377502   C751.910889,425.103668 750.748779,421.810791 749.481689,418.558807   C725.187439,356.208313 696.470459,295.862885 666.566650,236.063370   C661.080566,225.092636 652.330017,217.782257 639.690979,217.207535   C623.237244,216.459381 606.747498,216.445602 590.271545,216.282379   C585.117493,216.231323 579.960510,216.807999 574.800842,216.942780   C560.551025,217.315063 553.115295,224.709763 553.034119,239.114334   C552.915833,260.103943 552.998962,281.094727 553.008972,302.084991   C553.009521,303.206360 553.128174,304.327637 553.224976,306.033020   C585.982910,305.714294 618.498901,307.787842 651.241028,302.181824   C649.598450,315.564362 647.971130,328.822388 646.361572,341.935883   C641.378113,341.197052 637.135498,340.086182 632.875671,340.016083   C608.573914,339.616119 584.268433,339.401703 559.963440,339.272308   C553.970093,339.240387 552.961182,340.376984 552.947815,346.274200   C552.892761,370.588867 553.302063,394.912292 552.758850,419.214996   C552.480652,431.660461 561.123413,443.410950 576.716614,443.806976   C604.854736,444.521606 632.988831,444.402435 661.023926,441.002319   C674.921204,439.316803 685.556274,433.222565 692.159729,420.640625   C692.679443,419.650452 693.523438,418.830505 694.947754,416.983521   C693.150146,436.755554 691.472290,455.210693 689.764160,473.998840   C709.825378,473.998840 729.137634,473.673920 748.431824,474.124725   C759.419067,474.381439 763.421631,469.311249 761.391968,458.910370   C759.426636,448.839569 756.122192,439.030060 753.121948,428.377502  M603.009766,598.609558   C601.087830,585.620728 599.748657,572.511536 597.096252,559.673645   C593.794312,543.691345 587.347046,528.969482 576.262878,516.571411   C555.012634,492.802246 510.339722,491.504333 485.473267,506.644531   C463.972443,519.735535 453.555603,539.297913 449.982788,563.401367   C445.588623,593.046082 445.206024,622.830078 447.285004,652.639648   C448.444794,669.269043 450.978394,685.804810 457.083588,701.431702   C476.530518,751.208191 528.311646,762.189148 567.519653,736.089661   C586.062012,723.746643 593.896301,705.039124 597.942749,684.150269   C603.360962,656.180237 604.471008,627.953064 603.009766,598.609558  z"/>
<path fill="#fffaf7" opacity="1.000000" stroke="none" d=" M1096.286865,481.244843   C1102.658569,475.433685 1110.148682,473.288757 1118.112671,473.129059   C1131.598511,472.858582 1145.093750,473.054779 1157.694702,473.054779   C1117.791504,507.229065 1082.127441,546.356445 1047.192749,586.209961   C1045.211426,588.470276 1044.384277,590.066650 1046.280029,593.015625   C1075.178589,637.970459 1104.041138,682.960327 1137.065796,725.056213   C1147.404541,738.234802 1158.873535,750.526672 1169.514404,762.864075   C1169.592163,762.859009 1168.227905,763.024292 1166.863281,763.025818   C1150.870605,763.044067 1134.847534,762.431091 1118.895264,763.233398   C1106.582031,763.852722 1098.772827,758.232666 1092.541260,748.678772   C1075.810547,723.028503 1059.197632,697.298645 1042.188354,671.833923   C1026.206299,647.907227 1009.777649,624.278870 992.855957,599.509949   C1026.816895,560.664001 1061.424194,521.078796 1096.286865,481.244843  z"/>
<path fill="#fffaf7" opacity="1.000000" stroke="none" d=" M1048.541992,1003.630249   C1048.451904,1003.726746 1048.438110,1003.387695 1048.438110,1003.387695   C1048.438110,1003.387695 1048.632202,1003.533691 1048.541992,1003.630249  z"/>
<path fill="#fffaf7" opacity="1.000000" stroke="none" d=" M566.567383,1053.558716   C566.462891,1053.603882 566.398010,1053.406738 566.398010,1053.406738   C566.398010,1053.406738 566.671936,1053.513550 566.567383,1053.558716  z"/>
<path fill="#0177c1" opacity="1.000000" stroke="none" d=" M940.005371,551.005249   C940.312317,590.316101 941.059021,629.131592 940.765076,667.939270   C940.553284,695.910034 939.036133,723.873352 937.939453,751.833679   C937.444885,764.442444 930.240723,765.137329 922.613464,759.354492   C915.583923,754.024597 909.104492,747.324768 904.128967,740.036377   C874.970093,697.323120 851.074829,651.652527 829.619263,604.667114   C829.431213,604.255249 829.389893,603.776428 829.364319,603.672058   C837.380249,601.099060 845.462524,599.058289 853.115051,595.957092   C897.222168,578.082703 901.773682,524.672241 876.926514,494.883728   C867.126404,483.134735 853.764038,477.652618 838.935120,476.111572   C824.895874,474.652588 810.759766,474.125946 795.383606,473.103973   C798.584167,460.370117 801.146301,447.188354 805.217529,434.490417   C823.942871,376.087463 843.088379,317.819214 862.094360,259.506256   C862.400452,258.567139 862.848389,257.674225 863.274780,256.652893   C876.240051,277.824432 943.079468,458.956329 942.928223,472.872650   C936.552979,472.872650 930.152100,472.872650 922.946411,472.872650   C934.223755,483.579193 936.481140,497.096130 937.856506,510.616058   C939.202576,523.848633 939.334656,537.204712 940.005371,551.005249  z"/>
<path fill="#0177c1" opacity="1.000000" stroke="none" d=" M753.263916,428.741638   C756.122192,439.030060 759.426636,448.839569 761.391968,458.910370   C763.421631,469.311249 759.419067,474.381439 748.431824,474.124725   C729.137634,473.673920 709.825378,473.998840 689.764160,473.998840   C691.472290,455.210693 693.150146,436.755554 694.947754,416.983521   C693.523438,418.830505 692.679443,419.650452 692.159729,420.640625   C685.556274,433.222565 674.921204,439.316803 661.023926,441.002319   C632.988831,444.402435 604.854736,444.521606 576.716614,443.806976   C561.123413,443.410950 552.480652,431.660461 552.758850,419.214996   C553.302063,394.912292 552.892761,370.588867 552.947815,346.274200   C552.961182,340.376984 553.970093,339.240387 559.963440,339.272308   C584.268433,339.401703 608.573914,339.616119 632.875671,340.016083   C637.135498,340.086182 641.378113,341.197052 646.361572,341.935883   C647.971130,328.822388 649.598450,315.564362 651.241028,302.181824   C618.498901,307.787842 585.982910,305.714294 553.224976,306.033020   C553.128174,304.327637 553.009521,303.206360 553.008972,302.084991   C552.998962,281.094727 552.915833,260.103943 553.034119,239.114334   C553.115295,224.709763 560.551025,217.315063 574.800842,216.942780   C579.960510,216.807999 585.117493,216.231323 590.271545,216.282379   C606.747498,216.445602 623.237244,216.459381 639.690979,217.207535   C652.330017,217.782257 661.080566,225.092636 666.566650,236.063370   C696.470459,295.862885 725.187439,356.208313 749.481689,418.558807   C750.748779,421.810791 751.910889,425.103668 753.263916,428.741638  z"/>
<path fill="#0177c1" opacity="1.000000" stroke="none" d=" M603.026001,599.090576   C604.471008,627.953064 603.360962,656.180237 597.942749,684.150269   C593.896301,705.039124 586.062012,723.746643 567.519653,736.089661   C528.311646,762.189148 476.530518,751.208191 457.083588,701.431702   C450.978394,685.804810 448.444794,669.269043 447.285004,652.639648   C445.206024,622.830078 445.588623,593.046082 449.982788,563.401367   C453.555603,539.297913 463.972443,519.735535 485.473267,506.644531   C510.339722,491.504333 555.012634,492.802246 576.262878,516.571411   C587.347046,528.969482 593.794312,543.691345 597.096252,559.673645   C599.748657,572.511536 601.087830,585.620728 603.026001,599.090576  z"/>
</svg>