<?xml version="1.0" encoding="UTF-8"?>
<svg version="1.1" xmlns="http://www.w3.org/2000/svg" width="250" height="250">
<path d="M0 0 C0.7734375 -0.00773437 1.546875 -0.01546875 2.34375 -0.0234375 C5.0545965 0.47747979 5.90840838 1.13790218 7.5 3.375 C8.38835947 6.83174571 8.32324658 9.90786536 7.5 13.375 C5.25244439 16.3320113 2.54135148 18.28008307 -0.5 20.375 C-1.15484375 20.88289063 -1.8096875 21.39078125 -2.484375 21.9140625 C-7.00872905 25.375 -7.00872905 25.375 -10.5 25.375 C-9.91196203 28.39919525 -9.27321882 31.39258453 -8.5 34.375 C-7.84 34.375 -7.18 34.375 -6.5 34.375 C-6.17 36.685 -5.84 38.995 -5.5 41.375 C-4.84 41.375 -4.18 41.375 -3.5 41.375 C1.95096559 60.0300036 5.05773941 79.1673839 0.5 98.375 C-0.16 98.375 -0.82 98.375 -1.5 98.375 C-1.5825 99.055625 -1.665 99.73625 -1.75 100.4375 C-2.72332528 104.2496907 -4.45807455 107.01570329 -6.5 110.375 C-7.16 110.375 -7.82 110.375 -8.5 110.375 C-8.5 111.365 -8.5 112.355 -8.5 113.375 C-10.14453125 114.98046875 -10.14453125 114.98046875 -12.3125 116.5625 C-13.02019531 117.09230469 -13.72789062 117.62210937 -14.45703125 118.16796875 C-16.5 119.375 -16.5 119.375 -19.5 119.375 C-19.5 120.035 -19.5 120.695 -19.5 121.375 C-30.36427678 125.01203519 -39.17803659 125.74375247 -50.5 124.375 C-50.5 123.715 -50.5 123.055 -50.5 122.375 C-52.81 122.045 -55.12 121.715 -57.5 121.375 C-57.5 120.715 -57.5 120.055 -57.5 119.375 C-58.180625 119.33375 -58.86125 119.2925 -59.5625 119.25 C-63.68503653 118.02201039 -66.59996171 115.52576207 -69.5 112.375 C-69.5 111.715 -69.5 111.055 -69.5 110.375 C-70.16 110.375 -70.82 110.375 -71.5 110.375 C-73.20177173 108.28468216 -74.7693852 106.20356229 -76.3125 104 C-76.98744507 103.0414209 -76.98744507 103.0414209 -77.67602539 102.06347656 C-82.79125702 94.67470567 -86.42083307 87.40023371 -88.82421875 78.7265625 C-89.42695291 76.62918698 -90.13156073 74.65062276 -90.9375 72.625 C-96.5 58.21575798 -96.5 58.21575798 -96.5 51.375 C-98.21497681 51.61730347 -98.21497681 51.61730347 -99.96459961 51.86450195 C-104.34496047 52.40953046 -108.656262 52.53636222 -113.06640625 52.54296875 C-114.26123878 52.54796135 -114.26123878 52.54796135 -115.48020935 52.55305481 C-117.15843129 52.55808756 -118.8366631 52.56046427 -120.51489258 52.56030273 C-123.03158904 52.56247334 -125.54783484 52.5806244 -128.06445312 52.59960938 C-154.67208219 52.69947926 -154.67208219 52.69947926 -159.87524414 48.42260742 C-161.65883072 46.17483272 -162.04419629 45.20356268 -162 42.375 C-162.0103125 41.715 -162.020625 41.055 -162.03125 40.375 C-161.23095925 37.3621407 -160.01190883 36.19552024 -157.5 34.375 C-154.3828125 34.16796875 -154.3828125 34.16796875 -150.625 34.5625 C-149.16810587 34.68780261 -147.71106543 34.81141205 -146.25390625 34.93359375 C-144.66926844 35.08070343 -143.08463308 35.2278394 -141.5 35.375 C-117.3285405 37.53343307 -91.93900586 35.91569421 -68.5 29.375 C-67.4181543 29.08431641 -66.33630859 28.79363281 -65.22167969 28.49414062 C-61.49721737 27.49174706 -57.77895614 26.46916645 -54.0625 25.4375 C-52.88840576 25.11370361 -51.71431152 24.78990723 -50.50463867 24.45629883 C-43.93876207 22.57786974 -37.84760181 20.35681397 -31.72241211 17.32592773 C-29.5 16.375 -29.5 16.375 -26.5 16.375 C-26.5 15.715 -26.5 15.055 -26.5 14.375 C-25.88253906 14.08367187 -25.26507813 13.79234375 -24.62890625 13.4921875 C-14.52857911 8.759395 -14.52857911 8.759395 -6.02734375 1.71875 C-3.97952682 -0.0829099 -2.69381726 -0.02693817 0 0 Z M-27.5 33.375 C-29.27230751 34.1633609 -31.04279534 34.95581347 -32.8125 35.75 C-33.79863281 36.19085938 -34.78476563 36.63171875 -35.80078125 37.0859375 C-38.62745207 38.35742758 -38.62745207 38.35742758 -41.5 40.375 C-41.18546875 40.99503906 -40.8709375 41.61507812 -40.546875 42.25390625 C-36.77458424 50.05982117 -34.50974523 57.98084859 -32.5 66.375 C-32.2215625 67.42816406 -31.943125 68.48132813 -31.65625 69.56640625 C-28.77754154 81.29714324 -28.28836399 93.35846446 -27.5 105.375 C-25.38430146 105.60149337 -25.38430146 105.60149337 -23.9140625 103.90625 C-15.01889828 93.80693691 -12.92018609 85.72597817 -13.5 72.375 C-14.46090783 62.889467 -17.05968299 45.81531701 -24 38.875 C-25.69011758 37.18488242 -26.48006657 35.52037721 -27.5 33.375 Z M-69.125 46.3125 C-70.45144531 46.58610352 -70.45144531 46.58610352 -71.8046875 46.86523438 C-72.64515625 47.04248047 -73.485625 47.21972656 -74.3515625 47.40234375 C-75.50906006 47.64585571 -75.50906006 47.64585571 -76.68994141 47.89428711 C-78.50709321 48.2147881 -78.50709321 48.2147881 -79.5 49.375 C-79.4567745 54.91867086 -78.57219129 60.03942551 -76.4296875 65.140625 C-75.73253837 66.81612627 -75.10272368 68.51990655 -74.5078125 70.234375 C-70.48613925 81.6060028 -64.0082982 95.52031888 -54.5 103.375 C-53.51 103.375 -52.52 103.375 -51.5 103.375 C-51.5 104.035 -51.5 104.695 -51.5 105.375 C-48.86 106.365 -46.22 107.355 -43.5 108.375 C-42.20429286 101.35446914 -42.9319816 95.20189992 -44.0625 88.1875 C-44.23942383 87.05650879 -44.41634766 85.92551758 -44.59863281 84.76025391 C-46.37660583 74.03074328 -49.20350056 63.72600824 -52.5 53.375 C-53.16 53.375 -53.82 53.375 -54.5 53.375 C-54.644375 52.26125 -54.78875 51.1475 -54.9375 50 C-55.28372035 46.55357953 -55.28372035 46.55357953 -56.5 44.375 C-60.83758206 44.375 -64.89366425 45.41334115 -69.125 46.3125 Z " fill="#000000" transform="translate(201.5,110.625)"/>
<path d="M0 0 C1.60332791 -0.08121924 3.20784026 -0.13929134 4.8125 -0.1875 C6.15248047 -0.23970703 6.15248047 -0.23970703 7.51953125 -0.29296875 C10 -0 10 -0 11.7890625 1.25 C13.70832449 4.02364314 13.59430064 6.29708197 13.4765625 9.59375 C12.18057428 16.13742824 6.68590608 20.48142378 1.73046875 24.49609375 C-0.66751672 26.58012176 -2.62527621 28.94883218 -4.65234375 31.38671875 C-6.32752066 33.39207546 -8.05009919 35.25901713 -10 37 C-10.66 37 -11.32 37 -12 37 C-12 37.66 -12 38.32 -12 39 C-12.66 39 -13.32 39 -14 39 C-14 39.66 -14 40.32 -14 41 C-15.64453125 42.69140625 -15.64453125 42.69140625 -17.8125 44.5625 C-18.87404297 45.49255859 -18.87404297 45.49255859 -19.95703125 46.44140625 C-22 48 -22 48 -25 49 C-25 49.66 -25 50.32 -25 51 C-26.375 52.625 -26.375 52.625 -28 54 C-28.66 54 -29.32 54 -30 54 C-24.66388858 61.91216521 -16.71428686 64.52280291 -7.6875 66.6875 C11.05510176 70.26526346 29.98762644 70.28337635 49 70 C49 70.66 49 71.32 49 72 C50.485 72.495 50.485 72.495 52 73 C52.08121924 74.60332791 52.13929134 76.20784026 52.1875 77.8125 C52.23970703 79.15248047 52.23970703 79.15248047 52.29296875 80.51953125 C51.93888034 83.51747978 51.32324298 84.15444793 49 86 C45.98992478 86.31256585 43.19178864 86.44342028 40.1796875 86.43359375 C39.29627182 86.44042175 38.41285614 86.44724976 37.50267029 86.45428467 C34.62643321 86.46793617 31.75120491 86.45522952 28.875 86.4375 C27.90202972 86.43545563 26.92905945 86.43341125 25.92660522 86.43130493 C1.92976331 86.34872907 -23.97642252 86.02357748 -42 68 C-46.40850254 62.34807366 -47.038986 58.20069088 -47.328125 51.16015625 C-46.43201926 45.26079344 -43.18082628 41.90732558 -38.625 38.375 C-37.68914062 37.64023437 -36.75328125 36.90546875 -35.7890625 36.1484375 C-33.98748642 34.76066881 -32.18421756 33.37509363 -30.37890625 31.9921875 C-27.37449157 29.47617521 -25.03304673 26.62552019 -22.55078125 23.609375 C-21.78314453 22.81273437 -21.78314453 22.81273437 -21 22 C-20.34 22 -19.68 22 -19 22 C-19 21.34 -19 20.68 -19 20 C-18.34 20 -17.68 20 -17 20 C-17 19.34 -17 18.68 -17 18 C-16.34 18 -15.68 18 -15 18 C-14.34 16.68 -13.68 15.36 -13 14 C-12.34 14 -11.68 14 -11 14 C-11 13.34 -11 12.68 -11 12 C-10.34 12 -9.68 12 -9 12 C-8.7525 11.443125 -8.505 10.88625 -8.25 10.3125 C-6.77075182 7.57589087 -5.06532561 5.32349131 -3 3 C-2.34 3 -1.68 3 -1 3 C-0.67 2.01 -0.34 1.02 0 0 Z " fill="#000000" transform="translate(174,4)"/>
<path d="M0 0 C5.30977924 -0.34818225 9.15096107 -0.13949436 14.1015625 1.859375 C19.8453667 4.03091286 25.5389549 5.35874275 31.5625 6.5 C32.63097168 6.70794189 33.69944336 6.91588379 34.80029297 7.13012695 C51.76093313 10.36537215 68.8695514 12.85162691 86 15 C86 15.66 86 16.32 86 17 C87.485 17.495 87.485 17.495 89 18 C89.71465484 26.44351454 89.21663417 32.11530703 84.5078125 39.26953125 C84.01023437 39.84058594 83.51265625 40.41164062 83 41 C82.34 41 81.68 41 81 41 C80.82726562 41.69867188 80.65453125 42.39734375 80.4765625 43.1171875 C78.33646588 47.29547137 75.11572436 49.38949232 71.375 52.125 C70.62025391 52.68832031 69.86550781 53.25164062 69.08789062 53.83203125 C40.52302493 75 40.52302493 75 34 75 C34 75.66 34 76.32 34 77 C31.09458095 77.96847302 29.03362546 78.19582812 26 78.25 C25.13375 78.27578125 24.2675 78.3015625 23.375 78.328125 C21 78 21 78 19.19921875 76.77734375 C17.6473367 74.47732313 17.69297136 73.0616588 17.8125 70.3125 C17.83957031 69.50425781 17.86664062 68.69601563 17.89453125 67.86328125 C17.92933594 67.24839844 17.96414062 66.63351563 18 66 C18.66 66 19.32 66 20 66 C20.495 64.515 20.495 64.515 21 63 C23.60242414 61.35179805 24.86248779 61 28 61 C28 60.34 28 59.68 28 59 C28.62003906 58.68289062 29.24007812 58.36578125 29.87890625 58.0390625 C42.95562453 51.14856466 56.79225159 42.80820419 67 32 C67.66 31.34 68.32 30.68 69 30 C68.22100342 29.89977539 67.44200684 29.79955078 66.6394043 29.69628906 C43.84022926 26.73452864 22.0571289 22.60952249 0 16 C0 15.34 0 14.68 0 14 C-0.66 14 -1.32 14 -2 14 C-3.12256131 11.75487738 -3.13413762 10.48543351 -3.125 8 C-3.12886719 6.948125 -3.12886719 6.948125 -3.1328125 5.875 C-3 4 -3 4 -2 2 C-1.34 2 -0.68 2 0 2 C0 1.34 0 0.68 0 0 Z " fill="#000000" transform="translate(13,40)"/>
</svg>
