<svg version="1.1" id="Layer_1" xmlns="http://www.w3.org/2000/svg" xmlns:xlink="http://www.w3.org/1999/xlink" x="0px" y="0px"
	 width="100%" viewBox="0 0 2048 2048" enable-background="new 0 0 2048 2048" xml:space="preserve">
<path fill="#E51837" opacity="1.000000" stroke="none" 
	d="
M2049.000000,764.000000 
	C2049.000000,1192.290161 2049.000000,1620.580200 2049.000000,2048.935059 
	C1366.445435,2048.935059 683.890869,2048.935059 1.000000,2048.935059 
	C1.000000,1830.967407 1.000000,1612.934570 1.345748,1394.439453 
	C3.400444,1391.722900 5.236583,1389.553223 6.797517,1387.200928 
	C16.265894,1372.932251 25.764351,1358.682251 35.071285,1344.308350 
	C43.925545,1330.633545 52.672039,1316.885620 61.255989,1303.039795 
	C70.102798,1288.770020 78.625999,1274.300049 87.418495,1259.996094 
	C98.208771,1242.442139 109.281456,1225.060425 119.958229,1207.438354 
	C132.795334,1186.250488 145.308456,1164.866943 158.031097,1143.609497 
	C165.881683,1130.492310 173.959579,1117.510742 181.757111,1104.362427 
	C190.570099,1089.501953 198.980362,1074.400024 207.930267,1059.623901 
	C221.794998,1036.733398 236.043365,1014.075500 249.979492,991.227783 
	C256.815521,980.020325 263.010651,968.414368 270.040497,957.334351 
	C280.008392,941.623596 290.462219,926.220642 300.739899,910.707031 
	C310.109253,896.564453 319.177277,882.206116 328.988678,868.376038 
	C346.499786,843.692505 363.633759,818.667725 382.482605,795.027283 
	C401.753174,770.857971 422.592896,747.908447 443.297546,724.922058 
	C466.160858,699.539001 491.121063,676.226074 517.799988,654.918579 
	C538.971069,638.010071 560.833862,621.944153 584.475281,608.495422 
	C611.994751,592.840637 640.332153,579.013184 670.673523,569.651672 
	C676.613770,567.818787 682.697266,566.450378 689.623352,564.628723 
	C689.036499,570.550415 688.406311,575.466431 688.084839,580.402527 
	C686.647827,602.465637 685.376099,624.539612 683.890076,646.599304 
	C682.939026,660.717102 682.440186,674.921631 680.410645,688.894409 
	C678.472412,702.238098 681.850342,713.346313 690.823975,722.850952 
	C697.969177,730.419006 706.239441,736.622620 717.477478,734.869324 
	C731.655518,732.657349 742.600037,725.383789 746.939148,711.220032 
	C749.336182,703.395447 750.179077,694.986145 750.860535,686.768860 
	C752.015381,672.843689 752.318481,658.850098 753.292236,644.907104 
	C754.368225,629.500549 755.929443,614.128052 757.031006,598.723022 
	C758.036987,584.655090 758.711304,570.563477 759.560730,555.985779 
	C762.456299,555.985779 765.097717,555.922974 767.735413,555.995728 
	C787.624329,556.544250 807.115723,559.713440 826.331543,564.796692 
	C845.289368,569.811829 863.455322,577.213867 879.861145,587.607544 
	C905.316711,603.734436 926.944885,624.455505 944.935852,648.774109 
	C961.057739,670.566345 972.511658,694.888428 983.104065,719.661560 
	C993.525635,744.035217 999.249512,769.863586 1006.075989,795.322266 
	C1009.508728,808.124390 1011.720825,821.272461 1014.097290,834.334595 
	C1017.249146,851.658813 1020.540039,868.983765 1022.840332,886.431152 
	C1026.602051,914.963928 1029.844482,943.571167 1032.882812,972.191895 
	C1036.834229,1009.413452 1039.750854,1046.754395 1044.265137,1083.903931 
	C1048.634521,1119.859497 1053.612549,1155.789062 1059.957886,1191.439087 
	C1064.080322,1214.601074 1070.338379,1237.479858 1077.118652,1260.041138 
	C1082.594849,1278.263306 1089.435181,1296.200562 1097.220947,1313.569092 
	C1105.413330,1331.844116 1114.625244,1349.773560 1127.021240,1365.750732 
	C1135.670776,1376.898926 1143.949463,1388.380249 1153.219360,1398.991699 
	C1168.753906,1416.774048 1187.684326,1430.431519 1207.221558,1443.689575 
	C1236.518677,1463.570557 1269.034180,1474.517578 1303.044800,1481.342285 
	C1321.707153,1485.087036 1340.999634,1485.690552 1360.007446,1487.716431 
	C1361.246582,1487.848389 1362.480103,1488.032593 1363.620361,1488.180176 
	C1363.351196,1492.229614 1363.121826,1495.884521 1362.863403,1499.537354 
	C1361.231689,1522.595337 1359.505005,1545.647095 1358.000488,1568.713379 
	C1357.394653,1578.001099 1356.529663,1587.363892 1357.077515,1596.615967 
	C1358.325928,1617.699951 1372.737549,1630.250366 1393.626587,1629.373169 
	C1408.215820,1628.760620 1421.267456,1617.385742 1422.859741,1602.800659 
	C1425.057495,1582.669067 1426.635010,1562.466309 1428.263916,1542.276855 
	C1429.841431,1522.723022 1431.086670,1503.142212 1432.707031,1483.592285 
	C1432.818848,1482.243042 1434.636230,1480.276123 1436.008911,1479.912964 
	C1445.316650,1477.449219 1454.672241,1475.119385 1464.098267,1473.159790 
	C1487.241821,1468.348633 1509.683105,1461.417969 1531.725098,1452.828003 
	C1577.251953,1435.086304 1618.812988,1410.699829 1655.400757,1378.430542 
	C1674.830688,1361.293579 1693.776978,1343.310913 1710.843018,1323.868042 
	C1730.983032,1300.923218 1749.668091,1276.571655 1767.497192,1251.761597 
	C1788.254761,1222.876343 1807.657349,1193.001099 1827.162354,1163.237183 
	C1840.737671,1142.521606 1853.637573,1121.357300 1866.561646,1100.223633 
	C1873.920288,1088.190308 1880.670288,1075.786255 1887.788086,1063.603882 
	C1894.408447,1052.272827 1901.299927,1041.098389 1907.809692,1029.704956 
	C1918.528564,1010.945251 1929.089722,992.094727 1939.617188,973.226624 
	C1950.149902,954.348938 1960.797607,935.529297 1970.960449,916.452820 
	C1982.369385,895.037659 1993.386353,873.411499 2004.396973,851.787048 
	C2013.672852,833.569641 2022.628174,815.189148 2031.855225,796.946472 
	C2037.442505,785.899780 2043.276733,774.977966 2049.000000,764.000000 
M545.956726,1307.598999 
	C536.718079,1304.943726 527.755127,1306.332275 519.176208,1310.021729 
	C512.449158,1312.914551 506.891388,1317.301514 504.603516,1324.791260 
	C502.519836,1331.612427 499.562866,1338.264404 498.337219,1345.228027 
	C496.227448,1357.214966 499.420593,1374.667847 515.467590,1380.062622 
	C520.616150,1381.793701 526.043152,1382.818970 531.416809,1383.730225 
	C540.524231,1385.275024 547.938049,1381.813232 554.385559,1375.497070 
	C562.588013,1367.461792 565.986816,1357.123779 568.891968,1346.481201 
	C573.898010,1328.142456 565.276245,1313.046631 545.956726,1307.598999 
z"/>
<path fill="#E51837" opacity="1.000000" stroke="none" 
	d="
M1.000003,1271.000000 
	C1.000000,847.710022 1.000000,424.420074 1.000000,1.065062 
	C683.553406,1.065062 1366.106812,1.065062 2049.000000,1.065062 
	C2049.000000,200.365936 2049.000000,399.732086 2048.678467,599.686401 
	C2039.269775,620.765747 2030.510376,641.409973 2021.025635,661.715454 
	C2002.734375,700.874146 1984.292480,739.967285 1965.413818,778.845154 
	C1951.907837,806.658691 1938.191406,834.402954 1923.500977,861.601379 
	C1896.411011,911.757080 1868.800659,961.637451 1840.874146,1011.333069 
	C1827.525879,1035.086548 1813.228271,1058.322144 1798.876221,1081.492188 
	C1779.177124,1113.294312 1759.524048,1145.146606 1738.885132,1176.338013 
	C1724.124268,1198.646118 1708.240723,1220.259033 1691.992432,1241.520508 
	C1678.792847,1258.792603 1664.684692,1275.415405 1650.287231,1291.714844 
	C1635.192871,1308.803101 1617.981445,1323.718018 1600.594238,1338.505493 
	C1583.326172,1353.191528 1564.209106,1364.793579 1544.404053,1375.246216 
	C1515.730347,1390.379517 1484.573975,1399.032227 1453.463745,1407.554810 
	C1448.749634,1408.846191 1443.818115,1409.344116 1438.484741,1410.299072 
	C1438.905396,1403.301392 1439.272339,1396.876221 1439.681519,1390.453857 
	C1440.464111,1378.175415 1442.002441,1365.889038 1441.842896,1353.623901 
	C1441.708130,1343.264893 1438.960449,1333.143433 1431.117554,1325.415894 
	C1425.598511,1319.978027 1418.398682,1318.444336 1411.062134,1317.391357 
	C1392.503662,1314.728149 1378.068726,1325.640381 1375.997803,1344.281494 
	C1374.381470,1358.831299 1373.187988,1373.428589 1371.866943,1388.010376 
	C1370.939941,1398.243286 1370.114746,1408.485474 1369.238770,1418.785522 
	C1353.229370,1419.905273 1338.270630,1416.444336 1323.192505,1414.284424 
	C1317.280884,1413.437500 1311.231323,1412.919800 1305.552856,1411.221680 
	C1295.876221,1408.327759 1286.200806,1405.171021 1276.967163,1401.117310 
	C1264.654907,1395.712402 1251.928955,1390.590088 1240.852905,1383.153809 
	C1209.065186,1361.811401 1185.270142,1332.977173 1166.998047,1299.503052 
	C1150.323730,1268.956055 1138.645630,1236.476318 1131.434082,1202.529053 
	C1126.017090,1177.030029 1121.693115,1151.284912 1117.446899,1125.556274 
	C1114.796387,1109.495972 1112.921509,1093.292114 1111.185303,1077.100464 
	C1108.437744,1051.476685 1106.175171,1025.801392 1103.563965,1000.162415 
	C1101.086182,975.834290 1098.661987,951.496582 1095.779663,927.214722 
	C1092.584961,900.302063 1089.588501,873.334900 1085.222534,846.601074 
	C1081.182861,821.864746 1076.060303,797.259644 1070.261108,772.871033 
	C1065.777954,754.017883 1059.606079,735.560364 1054.015869,716.977844 
	C1045.561768,688.874939 1034.143066,661.988586 1019.342468,636.662292 
	C1004.277832,610.884216 986.684448,586.961914 964.828552,566.388977 
	C933.157166,536.576843 897.510193,513.477844 855.673767,500.356445 
	C833.141296,493.289398 810.093567,489.784241 786.664490,488.177002 
	C778.975098,487.649506 771.264099,487.437103 764.179016,487.109161 
	C764.179016,480.177277 763.935181,474.177216 764.223328,468.202820 
	C765.207642,447.796600 766.411682,427.401062 767.468933,406.998230 
	C768.345154,390.089691 768.404297,373.099640 770.179504,356.288727 
	C771.720825,341.691803 756.480591,318.927582 744.789734,317.654236 
	C738.463684,316.965210 731.807007,316.959351 725.583374,318.140747 
	C709.500732,321.193665 701.086975,332.126221 700.864319,348.503876 
	C700.757935,356.327820 700.367004,364.151642 699.943420,371.966797 
	C698.710632,394.708954 697.402588,417.447083 696.111938,440.186066 
	C695.141357,457.286835 694.089478,474.383453 693.232361,491.489838 
	C693.087708,494.377808 692.060120,495.493805 689.227051,495.968964 
	C662.315552,500.482758 636.902405,510.054321 611.953918,520.520081 
	C585.570374,531.587952 560.433228,545.450012 536.637451,561.330444 
	C514.528564,576.085144 493.122742,591.926453 471.815735,607.836304 
	C460.514709,616.274719 449.842194,625.608459 439.328033,635.031189 
	C429.954102,643.432129 420.985626,652.314392 412.202301,661.338623 
	C399.220032,674.677063 386.188629,688.000793 373.862335,701.935974 
	C360.211731,717.368408 347.105927,733.300598 334.179535,749.350769 
	C321.459625,765.144470 308.962097,781.137512 296.921936,797.452637 
	C285.570190,812.834961 274.589050,828.518799 264.073975,844.484253 
	C246.707474,870.852539 229.822632,897.538330 212.782150,924.120667 
	C201.931473,941.047119 190.874252,957.850769 180.424591,975.022766 
	C159.780716,1008.947021 139.378632,1043.020142 119.102516,1077.165894 
	C106.466560,1098.445312 94.507294,1120.128418 81.761818,1141.340576 
	C69.093437,1162.424316 55.704487,1183.073730 42.849720,1204.047363 
	C31.901707,1221.910034 21.343977,1240.011597 10.433377,1257.897583 
	C7.638897,1262.478516 4.162927,1266.643799 1.000003,1271.000000 
M1537.260498,755.761780 
	C1549.216309,754.616882 1558.010864,748.820068 1562.716675,737.678040 
	C1564.440674,733.596130 1565.390747,729.120117 1566.206055,724.733215 
	C1569.824341,705.265320 1550.998901,684.535095 1531.115845,685.937500 
	C1506.818848,687.651306 1489.920898,714.007385 1498.997192,736.649048 
	C1500.825439,741.210083 1503.944702,745.996216 1507.818115,748.841858 
	C1516.136475,754.953125 1525.608765,758.705688 1537.260498,755.761780 
z"/>
<path fill="#FFF9F6" opacity="1.000000" stroke="none" 
	d="
M1.000003,1271.468628 
	C4.162927,1266.643799 7.638897,1262.478516 10.433377,1257.897583 
	C21.343977,1240.011597 31.901707,1221.910034 42.849720,1204.047363 
	C55.704487,1183.073730 69.093437,1162.424316 81.761818,1141.340576 
	C94.507294,1120.128418 106.466560,1098.445312 119.102516,1077.165894 
	C139.378632,1043.020142 159.780716,1008.947021 180.424591,975.022766 
	C190.874252,957.850769 201.931473,941.047119 212.782150,924.120667 
	C229.822632,897.538330 246.707474,870.852539 264.073975,844.484253 
	C274.589050,828.518799 285.570190,812.834961 296.921936,797.452637 
	C308.962097,781.137512 321.459625,765.144470 334.179535,749.350769 
	C347.105927,733.300598 360.211731,717.368408 373.862335,701.935974 
	C386.188629,688.000793 399.220032,674.677063 412.202301,661.338623 
	C420.985626,652.314392 429.954102,643.432129 439.328033,635.031189 
	C449.842194,625.608459 460.514709,616.274719 471.815735,607.836304 
	C493.122742,591.926453 514.528564,576.085144 536.637451,561.330444 
	C560.433228,545.450012 585.570374,531.587952 611.953918,520.520081 
	C636.902405,510.054321 662.315552,500.482758 689.227051,495.968964 
	C692.060120,495.493805 693.087708,494.377808 693.232361,491.489838 
	C694.089478,474.383453 695.141357,457.286835 696.111938,440.186066 
	C697.402588,417.447083 698.710632,394.708954 699.943420,371.966797 
	C700.367004,364.151642 700.757935,356.327820 700.864319,348.503876 
	C701.086975,332.126221 709.500732,321.193665 725.583374,318.140747 
	C731.807007,316.959351 738.463684,316.965210 744.789734,317.654236 
	C756.480591,318.927582 771.720825,341.691803 770.179504,356.288727 
	C768.404297,373.099640 768.345154,390.089691 767.468933,406.998230 
	C766.411682,427.401062 765.207642,447.796600 764.223328,468.202820 
	C763.935181,474.177216 764.179016,480.177277 764.179016,487.109161 
	C771.264099,487.437103 778.975098,487.649506 786.664490,488.177002 
	C810.093567,489.784241 833.141296,493.289398 855.673767,500.356445 
	C897.510193,513.477844 933.157166,536.576843 964.828552,566.388977 
	C986.684448,586.961914 1004.277832,610.884216 1019.342468,636.662292 
	C1034.143066,661.988586 1045.561768,688.874939 1054.015869,716.977844 
	C1059.606079,735.560364 1065.777954,754.017883 1070.261108,772.871033 
	C1076.060303,797.259644 1081.182861,821.864746 1085.222534,846.601074 
	C1089.588501,873.334900 1092.584961,900.302063 1095.779663,927.214722 
	C1098.661987,951.496582 1101.086182,975.834290 1103.563965,1000.162415 
	C1106.175171,1025.801392 1108.437744,1051.476685 1111.185303,1077.100464 
	C1112.921509,1093.292114 1114.796387,1109.495972 1117.446899,1125.556274 
	C1121.693115,1151.284912 1126.017090,1177.030029 1131.434082,1202.529053 
	C1138.645630,1236.476318 1150.323730,1268.956055 1166.998047,1299.503052 
	C1185.270142,1332.977173 1209.065186,1361.811401 1240.852905,1383.153809 
	C1251.928955,1390.590088 1264.654907,1395.712402 1276.967163,1401.117310 
	C1286.200806,1405.171021 1295.876221,1408.327759 1305.552856,1411.221680 
	C1311.231323,1412.919800 1317.280884,1413.437500 1323.192505,1414.284424 
	C1338.270630,1416.444336 1353.229370,1419.905273 1369.238770,1418.785522 
	C1370.114746,1408.485474 1370.939941,1398.243286 1371.866943,1388.010376 
	C1373.187988,1373.428589 1374.381470,1358.831299 1375.997803,1344.281494 
	C1378.068726,1325.640381 1392.503662,1314.728149 1411.062134,1317.391357 
	C1418.398682,1318.444336 1425.598511,1319.978027 1431.117554,1325.415894 
	C1438.960449,1333.143433 1441.708130,1343.264893 1441.842896,1353.623901 
	C1442.002441,1365.889038 1440.464111,1378.175415 1439.681519,1390.453857 
	C1439.272339,1396.876221 1438.905396,1403.301392 1438.484741,1410.299072 
	C1443.818115,1409.344116 1448.749634,1408.846191 1453.463745,1407.554810 
	C1484.573975,1399.032227 1515.730347,1390.379517 1544.404053,1375.246216 
	C1564.209106,1364.793579 1583.326172,1353.191528 1600.594238,1338.505493 
	C1617.981445,1323.718018 1635.192871,1308.803101 1650.287231,1291.714844 
	C1664.684692,1275.415405 1678.792847,1258.792603 1691.992432,1241.520508 
	C1708.240723,1220.259033 1724.124268,1198.646118 1738.885132,1176.338013 
	C1759.524048,1145.146606 1779.177124,1113.294312 1798.876221,1081.492188 
	C1813.228271,1058.322144 1827.525879,1035.086548 1840.874146,1011.333069 
	C1868.800659,961.637451 1896.411011,911.757080 1923.500977,861.601379 
	C1938.191406,834.402954 1951.907837,806.658691 1965.413818,778.845154 
	C1984.292480,739.967285 2002.734375,700.874146 2021.025635,661.715454 
	C2030.510376,641.409973 2039.269775,620.765747 2048.678467,600.137268 
	C2049.000000,654.354248 2049.000000,708.708435 2049.000000,763.531372 
	C2043.276733,774.977966 2037.442505,785.899780 2031.855225,796.946472 
	C2022.628174,815.189148 2013.672852,833.569641 2004.396973,851.787048 
	C1993.386353,873.411499 1982.369385,895.037659 1970.960449,916.452820 
	C1960.797607,935.529297 1950.149902,954.348938 1939.617188,973.226624 
	C1929.089722,992.094727 1918.528564,1010.945251 1907.809692,1029.704956 
	C1901.299927,1041.098389 1894.408447,1052.272827 1887.788086,1063.603882 
	C1880.670288,1075.786255 1873.920288,1088.190308 1866.561646,1100.223633 
	C1853.637573,1121.357300 1840.737671,1142.521606 1827.162354,1163.237183 
	C1807.657349,1193.001099 1788.254761,1222.876343 1767.497192,1251.761597 
	C1749.668091,1276.571655 1730.983032,1300.923218 1710.843018,1323.868042 
	C1693.776978,1343.310913 1674.830688,1361.293579 1655.400757,1378.430542 
	C1618.812988,1410.699829 1577.251953,1435.086304 1531.725098,1452.828003 
	C1509.683105,1461.417969 1487.241821,1468.348633 1464.098267,1473.159790 
	C1454.672241,1475.119385 1445.316650,1477.449219 1436.008911,1479.912964 
	C1434.636230,1480.276123 1432.818848,1482.243042 1432.707031,1483.592285 
	C1431.086670,1503.142212 1429.841431,1522.723022 1428.263916,1542.276855 
	C1426.635010,1562.466309 1425.057495,1582.669067 1422.859741,1602.800659 
	C1421.267456,1617.385742 1408.215820,1628.760620 1393.626587,1629.373169 
	C1372.737549,1630.250366 1358.325928,1617.699951 1357.077515,1596.615967 
	C1356.529663,1587.363892 1357.394653,1578.001099 1358.000488,1568.713379 
	C1359.505005,1545.647095 1361.231689,1522.595337 1362.863403,1499.537354 
	C1363.121826,1495.884521 1363.351196,1492.229614 1363.620361,1488.180176 
	C1362.480103,1488.032593 1361.246582,1487.848389 1360.007446,1487.716431 
	C1340.999634,1485.690552 1321.707153,1485.087036 1303.044800,1481.342285 
	C1269.034180,1474.517578 1236.518677,1463.570557 1207.221558,1443.689575 
	C1187.684326,1430.431519 1168.753906,1416.774048 1153.219360,1398.991699 
	C1143.949463,1388.380249 1135.670776,1376.898926 1127.021240,1365.750732 
	C1114.625244,1349.773560 1105.413330,1331.844116 1097.220947,1313.569092 
	C1089.435181,1296.200562 1082.594849,1278.263306 1077.118652,1260.041138 
	C1070.338379,1237.479858 1064.080322,1214.601074 1059.957886,1191.439087 
	C1053.612549,1155.789062 1048.634521,1119.859497 1044.265137,1083.903931 
	C1039.750854,1046.754395 1036.834229,1009.413452 1032.882812,972.191895 
	C1029.844482,943.571167 1026.602051,914.963928 1022.840332,886.431152 
	C1020.540039,868.983765 1017.249146,851.658813 1014.097290,834.334595 
	C1011.720825,821.272461 1009.508728,808.124390 1006.075989,795.322266 
	C999.249512,769.863586 993.525635,744.035217 983.104065,719.661560 
	C972.511658,694.888428 961.057739,670.566345 944.935852,648.774109 
	C926.944885,624.455505 905.316711,603.734436 879.861145,587.607544 
	C863.455322,577.213867 845.289368,569.811829 826.331543,564.796692 
	C807.115723,559.713440 787.624329,556.544250 767.735413,555.995728 
	C765.097717,555.922974 762.456299,555.985779 759.560730,555.985779 
	C758.711304,570.563477 758.036987,584.655090 757.031006,598.723022 
	C755.929443,614.128052 754.368225,629.500549 753.292236,644.907104 
	C752.318481,658.850098 752.015381,672.843689 750.860535,686.768860 
	C750.179077,694.986145 749.336182,703.395447 746.939148,711.220032 
	C742.600037,725.383789 731.655518,732.657349 717.477478,734.869324 
	C706.239441,736.622620 697.969177,730.419006 690.823975,722.850952 
	C681.850342,713.346313 678.472412,702.238098 680.410645,688.894409 
	C682.440186,674.921631 682.939026,660.717102 683.890076,646.599304 
	C685.376099,624.539612 686.647827,602.465637 688.084839,580.402527 
	C688.406311,575.466431 689.036499,570.550415 689.623352,564.628723 
	C682.697266,566.450378 676.613770,567.818787 670.673523,569.651672 
	C640.332153,579.013184 611.994751,592.840637 584.475281,608.495422 
	C560.833862,621.944153 538.971069,638.010071 517.799988,654.918579 
	C491.121063,676.226074 466.160858,699.539001 443.297546,724.922058 
	C422.592896,747.908447 401.753174,770.857971 382.482605,795.027283 
	C363.633759,818.667725 346.499786,843.692505 328.988678,868.376038 
	C319.177277,882.206116 310.109253,896.564453 300.739899,910.707031 
	C290.462219,926.220642 280.008392,941.623596 270.040497,957.334351 
	C263.010651,968.414368 256.815521,980.020325 249.979492,991.227783 
	C236.043365,1014.075500 221.794998,1036.733398 207.930267,1059.623901 
	C198.980362,1074.400024 190.570099,1089.501953 181.757111,1104.362427 
	C173.959579,1117.510742 165.881683,1130.492310 158.031097,1143.609497 
	C145.308456,1164.866943 132.795334,1186.250488 119.958229,1207.438354 
	C109.281456,1225.060425 98.208771,1242.442139 87.418495,1259.996094 
	C78.625999,1274.300049 70.102798,1288.770020 61.255989,1303.039795 
	C52.672039,1316.885620 43.925545,1330.633545 35.071285,1344.308350 
	C25.764351,1358.682251 16.265894,1372.932251 6.797517,1387.200928 
	C5.236583,1389.553223 3.400444,1391.722900 1.345748,1393.988525 
	C1.000000,1353.312378 1.000000,1312.624878 1.000003,1271.468628 
z"/>
<path fill="#FFF8F5" opacity="1.000000" stroke="none" 
	d="
M546.353455,1307.694336 
	C565.276245,1313.046631 573.898010,1328.142456 568.891968,1346.481201 
	C565.986816,1357.123779 562.588013,1367.461792 554.385559,1375.497070 
	C547.938049,1381.813232 540.524231,1385.275024 531.416809,1383.730225 
	C526.043152,1382.818970 520.616150,1381.793701 515.467590,1380.062622 
	C499.420593,1374.667847 496.227448,1357.214966 498.337219,1345.228027 
	C499.562866,1338.264404 502.519836,1331.612427 504.603516,1324.791260 
	C506.891388,1317.301514 512.449158,1312.914551 519.176208,1310.021729 
	C527.755127,1306.332275 536.718079,1304.943726 546.353455,1307.694336 
z"/>
<path fill="#FFF8F5" opacity="1.000000" stroke="none" 
	d="
M1536.829346,755.805664 
	C1525.608765,758.705688 1516.136475,754.953125 1507.818115,748.841858 
	C1503.944702,745.996216 1500.825439,741.210083 1498.997192,736.649048 
	C1489.920898,714.007385 1506.818848,687.651306 1531.115845,685.937500 
	C1550.998901,684.535095 1569.824341,705.265320 1566.206055,724.733215 
	C1565.390747,729.120117 1564.440674,733.596130 1562.716675,737.678040 
	C1558.010864,748.820068 1549.216309,754.616882 1536.829346,755.805664 
z"/>
</svg>