<svg version="1.1" id="Layer_1" xmlns="http://www.w3.org/2000/svg" xmlns:xlink="http://www.w3.org/1999/xlink" x="0px" y="0px"
	 width="100%" viewBox="0 0 2048 2048" enable-background="new 0 0 2048 2048" xml:space="preserve">
<path fill="#E51837" opacity="1.000000" stroke="none" 
	d="
M1190.000000,2049.000000 
	C793.692322,2049.000000 397.384644,2049.000000 1.038482,2049.000000 
	C1.038482,1366.403198 1.038482,683.806335 1.038482,1.104767 
	C683.552612,1.104767 1366.105347,1.104767 2049.000000,1.104767 
	C2049.000000,278.368164 2049.000000,555.736450 2048.684814,833.377747 
	C2043.123901,823.493103 2038.663208,812.818665 2032.411865,803.323120 
	C2026.146729,793.806946 2018.254517,785.330139 2010.795288,776.638245 
	C1989.243164,751.524292 1963.847412,731.429993 1933.156982,718.563843 
	C1929.130005,716.875671 1928.474121,714.713074 1929.207520,711.015442 
	C1932.013184,696.870850 1932.024658,682.596313 1931.088379,668.273621 
	C1929.829834,649.020264 1928.404907,629.772522 1927.530396,610.500671 
	C1926.645020,590.990479 1924.488892,571.642639 1919.915894,552.695679 
	C1916.129395,537.007446 1910.145020,522.080566 1902.601074,507.670990 
	C1885.343384,474.706787 1863.149658,446.545227 1831.991211,425.183167 
	C1806.306274,407.573914 1777.457886,398.378876 1748.494263,389.184570 
	C1733.176514,384.321991 1717.173218,381.643250 1701.560547,377.660431 
	C1699.132935,377.041138 1696.608521,375.130981 1695.033569,373.112000 
	C1684.700928,359.867188 1675.653809,345.454407 1664.213623,333.276764 
	C1646.132202,314.029663 1626.905884,295.796051 1607.415894,277.950714 
	C1585.969482,258.314178 1561.732178,242.260651 1536.312866,228.308792 
	C1518.424683,218.490524 1499.675537,210.190262 1481.071167,201.739838 
	C1455.603760,190.172104 1429.144775,181.466171 1401.832642,175.264755 
	C1381.833984,170.723892 1361.659790,167.491394 1341.191162,166.804169 
	C1312.068115,165.826370 1283.378784,169.174652 1255.334595,177.322510 
	C1251.921631,178.314056 1249.656250,177.776932 1247.218262,174.778824 
	C1234.487183,159.123322 1217.662354,149.025131 1199.270142,141.676117 
	C1189.293335,137.689636 1178.694824,135.191345 1168.278809,132.385727 
	C1148.608887,127.087540 1128.467529,124.660179 1108.173584,123.922577 
	C1084.212891,123.051689 1060.740601,126.714409 1037.611694,132.851639 
	C1011.871521,139.681824 986.499756,147.553940 962.967712,160.296112 
	C955.630310,164.269165 948.829773,166.185440 941.410950,160.741028 
	C939.181763,159.105103 936.384399,158.093826 933.705200,157.244949 
	C914.705200,151.224915 895.803345,144.830734 876.597656,139.546448 
	C862.852966,135.764709 848.760193,133.073532 834.685425,130.715073 
	C820.593262,128.353683 806.373962,126.439339 792.132263,125.356400 
	C771.912048,123.818863 751.588379,122.040260 731.369141,122.587875 
	C714.538330,123.043732 697.578979,125.696968 681.072998,129.229202 
	C664.885132,132.693329 648.890991,137.675201 633.368469,143.479568 
	C614.247559,150.629501 595.945984,159.718643 578.193115,169.999619 
	C555.877441,182.922958 536.291199,198.854965 519.860107,218.669327 
	C518.171570,220.705612 517.016418,221.047318 514.485535,220.085388 
	C507.984039,217.614288 501.422119,214.971344 494.640533,213.626175 
	C467.204681,208.184097 440.087860,210.439789 414.086212,220.367554 
	C395.790466,227.353104 378.315918,236.246063 362.602966,248.466629 
	C337.465729,268.016785 314.382935,289.704987 295.701324,315.398346 
	C281.762909,334.568237 269.920563,355.283661 257.524384,375.543060 
	C252.421982,383.882050 248.247818,392.795624 243.771408,401.509460 
	C237.419876,413.873352 229.188126,425.413849 227.157700,439.704773 
	C226.970871,441.019653 225.171738,442.587494 223.761902,443.173920 
	C204.128326,451.341309 185.939590,462.116669 169.386703,475.284943 
	C153.000946,488.320312 137.577316,502.561615 121.661369,516.191895 
	C104.198822,531.146667 89.578049,548.721741 76.643097,567.496338 
	C60.559532,590.840942 48.031586,616.005981 39.380577,643.305481 
	C28.184010,678.637878 22.438423,714.610291 24.499516,751.436035 
	C25.919325,776.803833 29.297125,802.138672 33.206482,827.269409 
	C37.291550,853.529724 42.253311,879.718445 48.353176,905.579651 
	C53.112171,925.755920 59.471317,945.643555 66.457428,965.181030 
	C73.557152,985.036316 81.724121,1004.566101 90.468552,1023.762390 
	C100.281685,1045.304688 113.277412,1064.981323 127.242538,1084.183960 
	C147.385666,1111.881836 169.076462,1138.063843 194.228577,1161.319336 
	C200.582764,1167.194336 207.484467,1172.504639 213.581329,1178.625488 
	C232.971954,1198.092407 254.036575,1215.156006 278.910614,1227.298462 
	C302.170776,1238.653442 325.590729,1247.988647 351.987549,1238.505981 
	C352.344391,1239.057129 352.685272,1239.424561 352.848755,1239.858643 
	C366.509552,1276.137085 385.829102,1309.162720 409.941925,1339.455566 
	C427.001862,1360.888062 447.297119,1378.713013 470.081207,1393.797485 
	C488.757935,1406.162842 508.884857,1415.741211 529.544312,1424.176880 
	C569.888977,1440.650269 611.569641,1452.787231 654.698792,1458.931763 
	C679.195862,1462.421631 704.017944,1463.997192 728.752747,1465.371826 
	C771.969116,1467.773438 814.988831,1464.641968 857.610291,1457.453491 
	C879.544128,1453.754272 901.205383,1448.382568 922.905273,1443.398560 
	C927.350525,1442.377441 929.074402,1443.638794 931.348206,1447.291626 
	C938.711365,1459.120850 946.067566,1471.044922 954.586182,1482.033447 
	C960.653870,1489.860474 968.633240,1496.196045 975.683655,1503.272705 
	C997.104614,1524.773193 1019.185120,1545.420898 1044.844116,1562.006714 
	C1059.995972,1571.801025 1075.425171,1580.851929 1092.526733,1586.715210 
	C1099.114746,1588.973877 1105.984375,1590.404663 1112.607788,1592.572510 
	C1114.020752,1593.035034 1115.814941,1594.996826 1115.912720,1596.375854 
	C1116.483887,1604.426270 1119.308472,1611.534180 1123.640991,1618.231689 
	C1128.065308,1625.070923 1132.836426,1631.775024 1136.430542,1639.045166 
	C1146.521973,1659.458252 1156.320557,1680.024902 1165.800903,1700.729492 
	C1179.516724,1730.683838 1192.630981,1761.044434 1200.401855,1793.069336 
	C1206.815796,1819.502441 1210.805664,1846.577148 1214.812988,1873.524658 
	C1218.400757,1897.651855 1217.372070,1921.958008 1215.388184,1946.281128 
	C1213.218994,1972.873779 1206.714355,1998.368530 1198.438843,2023.544678 
	C1195.647461,2032.036987 1192.814209,2040.515259 1190.000000,2049.000000 
z"/>
<path fill="#FFF9F6" opacity="1.000000" stroke="none" 
	d="
M1190.468628,2049.000000 
	C1192.814209,2040.515259 1195.647461,2032.036987 1198.438843,2023.544678 
	C1206.714355,1998.368530 1213.218994,1972.873779 1215.388184,1946.281128 
	C1217.372070,1921.958008 1218.400757,1897.651855 1214.812988,1873.524658 
	C1210.805664,1846.577148 1206.815796,1819.502441 1200.401855,1793.069336 
	C1192.630981,1761.044434 1179.516724,1730.683838 1165.800903,1700.729492 
	C1156.320557,1680.024902 1146.521973,1659.458252 1136.430542,1639.045166 
	C1132.836426,1631.775024 1128.065308,1625.070923 1123.640991,1618.231689 
	C1119.308472,1611.534180 1116.483887,1604.426270 1115.912720,1596.375854 
	C1115.814941,1594.996826 1114.020752,1593.035034 1112.607788,1592.572510 
	C1105.984375,1590.404663 1099.114746,1588.973877 1092.526733,1586.715210 
	C1075.425171,1580.851929 1059.995972,1571.801025 1044.844116,1562.006714 
	C1019.185120,1545.420898 997.104614,1524.773193 975.683655,1503.272705 
	C968.633240,1496.196045 960.653870,1489.860474 954.586182,1482.033447 
	C946.067566,1471.044922 938.711365,1459.120850 931.348206,1447.291626 
	C929.074402,1443.638794 927.350525,1442.377441 922.905273,1443.398560 
	C901.205383,1448.382568 879.544128,1453.754272 857.610291,1457.453491 
	C814.988831,1464.641968 771.969116,1467.773438 728.752747,1465.371826 
	C704.017944,1463.997192 679.195862,1462.421631 654.698792,1458.931763 
	C611.569641,1452.787231 569.888977,1440.650269 529.544312,1424.176880 
	C508.884857,1415.741211 488.757935,1406.162842 470.081207,1393.797485 
	C447.297119,1378.713013 427.001862,1360.888062 409.941925,1339.455566 
	C385.829102,1309.162720 366.509552,1276.137085 352.848755,1239.858643 
	C352.685272,1239.424561 352.344391,1239.057129 351.987549,1238.505981 
	C325.590729,1247.988647 302.170776,1238.653442 278.910614,1227.298462 
	C254.036575,1215.156006 232.971954,1198.092407 213.581329,1178.625488 
	C207.484467,1172.504639 200.582764,1167.194336 194.228577,1161.319336 
	C169.076462,1138.063843 147.385666,1111.881836 127.242538,1084.183960 
	C113.277412,1064.981323 100.281685,1045.304688 90.468552,1023.762390 
	C81.724121,1004.566101 73.557152,985.036316 66.457428,965.181030 
	C59.471317,945.643555 53.112171,925.755920 48.353176,905.579651 
	C42.253311,879.718445 37.291550,853.529724 33.206482,827.269409 
	C29.297125,802.138672 25.919325,776.803833 24.499516,751.436035 
	C22.438423,714.610291 28.184010,678.637878 39.380577,643.305481 
	C48.031586,616.005981 60.559532,590.840942 76.643097,567.496338 
	C89.578049,548.721741 104.198822,531.146667 121.661369,516.191895 
	C137.577316,502.561615 153.000946,488.320312 169.386703,475.284943 
	C185.939590,462.116669 204.128326,451.341309 223.761902,443.173920 
	C225.171738,442.587494 226.970871,441.019653 227.157700,439.704773 
	C229.188126,425.413849 237.419876,413.873352 243.771408,401.509460 
	C248.247818,392.795624 252.421982,383.882050 257.524384,375.543060 
	C269.920563,355.283661 281.762909,334.568237 295.701324,315.398346 
	C314.382935,289.704987 337.465729,268.016785 362.602966,248.466629 
	C378.315918,236.246063 395.790466,227.353104 414.086212,220.367554 
	C440.087860,210.439789 467.204681,208.184097 494.640533,213.626175 
	C501.422119,214.971344 507.984039,217.614288 514.485535,220.085388 
	C517.016418,221.047318 518.171570,220.705612 519.860107,218.669327 
	C536.291199,198.854965 555.877441,182.922958 578.193115,169.999619 
	C595.945984,159.718643 614.247559,150.629501 633.368469,143.479568 
	C648.890991,137.675201 664.885132,132.693329 681.072998,129.229202 
	C697.578979,125.696968 714.538330,123.043732 731.369141,122.587875 
	C751.588379,122.040260 771.912048,123.818863 792.132263,125.356400 
	C806.373962,126.439339 820.593262,128.353683 834.685425,130.715073 
	C848.760193,133.073532 862.852966,135.764709 876.597656,139.546448 
	C895.803345,144.830734 914.705200,151.224915 933.705200,157.244949 
	C936.384399,158.093826 939.181763,159.105103 941.410950,160.741028 
	C948.829773,166.185440 955.630310,164.269165 962.967712,160.296112 
	C986.499756,147.553940 1011.871521,139.681824 1037.611694,132.851639 
	C1060.740601,126.714409 1084.212891,123.051689 1108.173584,123.922577 
	C1128.467529,124.660179 1148.608887,127.087540 1168.278809,132.385727 
	C1178.694824,135.191345 1189.293335,137.689636 1199.270142,141.676117 
	C1217.662354,149.025131 1234.487183,159.123322 1247.218262,174.778824 
	C1249.656250,177.776932 1251.921631,178.314056 1255.334595,177.322510 
	C1283.378784,169.174652 1312.068115,165.826370 1341.191162,166.804169 
	C1361.659790,167.491394 1381.833984,170.723892 1401.832642,175.264755 
	C1429.144775,181.466171 1455.603760,190.172104 1481.071167,201.739838 
	C1499.675537,210.190262 1518.424683,218.490524 1536.312866,228.308792 
	C1561.732178,242.260651 1585.969482,258.314178 1607.415894,277.950714 
	C1626.905884,295.796051 1646.132202,314.029663 1664.213623,333.276764 
	C1675.653809,345.454407 1684.700928,359.867188 1695.033569,373.112000 
	C1696.608521,375.130981 1699.132935,377.041138 1701.560547,377.660431 
	C1717.173218,381.643250 1733.176514,384.321991 1748.494263,389.184570 
	C1777.457886,398.378876 1806.306274,407.573914 1831.991211,425.183167 
	C1863.149658,446.545227 1885.343384,474.706787 1902.601074,507.670990 
	C1910.145020,522.080566 1916.129395,537.007446 1919.915894,552.695679 
	C1924.488892,571.642639 1926.645020,590.990479 1927.530396,610.500671 
	C1928.404907,629.772522 1929.829834,649.020264 1931.088379,668.273621 
	C1932.024658,682.596313 1932.013184,696.870850 1929.207520,711.015442 
	C1928.474121,714.713074 1929.130005,716.875671 1933.156982,718.563843 
	C1963.847412,731.429993 1989.243164,751.524292 2010.795288,776.638245 
	C2018.254517,785.330139 2026.146729,793.806946 2032.411865,803.323120 
	C2038.663208,812.818665 2043.123901,823.493103 2048.684814,833.825378 
	C2049.000000,901.687561 2049.000000,969.375183 2048.695801,1037.724854 
	C2040.506714,1056.808105 2030.380127,1073.854248 2016.721558,1089.201660 
	C2018.387329,1089.808716 2019.578369,1090.272461 2020.788574,1090.679443 
	C2034.263672,1095.211060 2040.192749,1103.124268 2040.747070,1117.213867 
	C2041.198486,1128.686523 2042.181519,1140.159546 2042.108398,1151.627197 
	C2041.959961,1174.903931 2042.619263,1198.303345 2040.475952,1221.423340 
	C2036.878662,1260.226318 2024.286743,1296.615601 2007.314941,1331.679688 
	C1997.717773,1351.507812 1985.910522,1369.743652 1971.171509,1385.821289 
	C1960.648071,1397.300415 1948.189941,1406.997437 1936.745850,1417.651611 
	C1935.273682,1419.022095 1934.001221,1421.313477 1933.850220,1423.271851 
	C1933.258423,1430.946777 1930.829834,1437.901489 1926.722778,1444.314331 
	C1923.044678,1450.057495 1919.421509,1455.846802 1915.482666,1461.409668 
	C1905.981445,1474.828247 1896.364014,1488.165894 1886.650635,1501.431396 
	C1885.110718,1503.534424 1882.860840,1505.129883 1880.883301,1506.897461 
	C1877.300293,1510.099976 1873.250488,1512.888428 1870.137817,1516.490967 
	C1852.348145,1537.079468 1833.090820,1556.248413 1812.174072,1573.543701 
	C1795.533325,1587.303345 1778.215210,1600.448120 1760.093262,1612.156250 
	C1741.000732,1624.491333 1721.093750,1635.829834 1700.617432,1645.680054 
	C1682.414307,1654.437012 1663.118530,1661.063232 1643.978271,1667.685547 
	C1629.086670,1672.838013 1613.878784,1677.413086 1598.481079,1680.694336 
	C1569.690063,1686.829590 1540.618408,1691.448975 1511.203491,1693.774170 
	C1476.677979,1696.503296 1442.366821,1695.563354 1408.240723,1689.412964 
	C1398.312256,1687.623535 1388.353149,1686.004395 1377.640137,1684.176147 
	C1379.945435,1689.593506 1382.218628,1694.352417 1384.027100,1699.281860 
	C1393.643188,1725.494141 1403.051636,1751.782715 1412.707031,1777.980347 
	C1423.281738,1806.671997 1434.039307,1835.288574 1440.779175,1865.218872 
	C1447.986694,1897.225708 1454.383301,1929.221802 1452.504272,1962.422241 
	C1451.362793,1982.593872 1448.051270,2002.061890 1440.156250,2020.631592 
	C1436.079834,2030.219116 1431.404663,2039.552124 1427.000000,2049.000000 
	C1405.645752,2049.000000 1384.291504,2049.000000 1362.598877,2048.689941 
	C1369.164185,2037.804321 1376.390015,2027.421753 1382.876587,2016.595947 
	C1388.791870,2006.723389 1392.813110,1996.002930 1395.033936,1984.594849 
	C1398.178467,1968.441406 1399.259766,1952.191650 1396.985840,1935.919678 
	C1394.365723,1917.170288 1392.549927,1898.112549 1387.655884,1879.922974 
	C1380.368286,1852.838257 1370.935181,1826.313843 1361.943970,1799.710083 
	C1355.561646,1780.825684 1348.368530,1762.215820 1341.598267,1743.461548 
	C1333.908081,1722.158203 1325.397095,1701.300537 1312.887085,1682.194458 
	C1309.554810,1677.105103 1308.081543,1670.640259 1306.544067,1664.605957 
	C1305.851196,1661.886841 1305.157349,1660.331909 1302.530029,1659.160156 
	C1298.020752,1657.149048 1293.755981,1654.589844 1289.146484,1652.382324 
	C1288.781250,1652.564087 1288.658081,1652.624512 1288.534912,1652.684937 
	C1288.593994,1652.773071 1288.653198,1652.861206 1288.712280,1652.949219 
	C1288.936768,1652.688965 1289.161133,1652.428589 1289.165039,1652.550537 
	C1289.021851,1653.584717 1288.951172,1654.299683 1289.198120,1654.879150 
	C1295.452271,1669.552246 1302.019043,1684.099609 1307.930420,1698.908691 
	C1312.416138,1710.145752 1317.158691,1721.463745 1319.852661,1733.190186 
	C1324.126099,1751.791504 1326.529541,1770.813721 1330.209839,1789.562744 
	C1332.936401,1803.452881 1326.879639,1813.392456 1317.115479,1821.977905 
	C1312.519531,1826.019165 1307.127686,1826.590820 1301.187378,1825.620239 
	C1287.321655,1823.354858 1279.399170,1814.879517 1276.234497,1801.782715 
	C1274.014282,1792.593872 1272.673828,1783.193848 1270.894897,1773.896851 
	C1268.521973,1761.495483 1267.650391,1748.537476 1263.368408,1736.829956 
	C1255.684814,1715.822266 1246.360229,1695.373169 1236.930176,1675.057983 
	C1228.667114,1657.257080 1219.233521,1640.016357 1206.092285,1625.145752 
	C1199.883423,1618.119751 1193.779785,1611.017822 1195.125366,1600.244385 
	C1189.291260,1600.562256 1184.119873,1600.843994 1178.720093,1601.138184 
	C1183.762207,1610.903442 1188.750366,1620.058472 1193.275024,1629.436890 
	C1201.649902,1646.795776 1210.026855,1664.163574 1217.884888,1681.758911 
	C1224.378540,1696.299561 1230.106567,1711.181641 1236.207275,1725.898560 
	C1247.192505,1752.397949 1255.332642,1779.825317 1260.377441,1807.978516 
	C1265.119385,1834.439941 1269.366577,1861.114380 1271.503784,1887.881104 
	C1273.418823,1911.866821 1272.567505,1936.077271 1269.154419,1960.120361 
	C1264.834595,1990.550659 1257.258301,2020.089966 1247.000000,2049.000000 
	C1228.312378,2049.000000 1209.624878,2049.000000 1190.468628,2049.000000 
M589.415894,1244.072144 
	C571.430847,1238.244507 554.702087,1229.734619 538.692322,1219.823730 
	C534.234375,1217.064209 529.962952,1213.658936 526.453186,1209.782715 
	C518.779480,1201.307495 518.750122,1192.122070 524.771301,1181.478394 
	C530.570251,1171.227539 538.640747,1166.306885 549.476196,1168.223145 
	C554.955627,1169.192139 560.427246,1171.121582 565.451721,1173.549683 
	C574.872070,1178.101807 583.805481,1183.662476 593.230286,1188.204346 
	C607.982910,1195.313599 623.731995,1199.677734 640.066040,1197.876465 
	C653.339600,1196.412476 666.426575,1192.828491 679.432251,1189.536499 
	C686.421265,1187.767578 693.064819,1184.633911 700.208862,1181.988525 
	C698.823792,1178.435181 697.803101,1175.468262 696.529907,1172.614136 
	C692.333496,1163.207275 687.723694,1153.971802 683.852722,1144.435059 
	C671.639160,1114.345581 654.382019,1087.958984 629.264954,1066.909302 
	C616.237793,1055.991699 603.635254,1044.426514 588.376038,1036.775024 
	C574.446716,1029.790405 560.168152,1023.237366 545.471252,1018.145813 
	C536.411865,1015.007385 526.239929,1013.562561 516.638611,1013.837646 
	C499.306030,1014.333984 484.997772,1023.635681 471.956055,1034.048584 
	C444.417145,1056.036499 427.841705,1085.683960 415.982330,1118.180664 
	C410.636230,1132.829834 406.251160,1147.835693 401.659363,1162.750244 
	C400.458496,1166.650757 399.562744,1170.809692 399.520233,1174.860352 
	C399.468445,1179.793091 400.190887,1184.786011 401.065857,1189.665649 
	C403.023926,1200.585938 403.816681,1212.020020 407.761047,1222.208618 
	C413.848785,1237.933472 421.492737,1253.175415 429.761841,1267.900391 
	C437.055298,1280.888184 445.327087,1293.506226 454.567047,1305.179199 
	C468.353180,1322.595459 484.773315,1337.407349 503.841675,1349.149780 
	C521.712097,1360.154663 540.048950,1370.079956 559.700500,1377.660400 
	C593.806519,1390.816406 628.692627,1400.934570 664.878357,1406.338257 
	C690.919128,1410.226685 717.071960,1412.838135 743.450439,1412.023560 
	C763.736023,1411.397095 784.038757,1410.954224 804.292236,1409.737915 
	C840.969116,1407.535522 876.697571,1399.782471 911.958313,1389.834839 
	C933.272766,1383.821655 953.837219,1375.771240 973.817627,1366.141113 
	C1009.438843,1348.972534 1042.504517,1327.947021 1071.304688,1300.778076 
	C1096.839722,1276.689331 1118.230713,1249.437622 1130.509155,1215.996460 
	C1136.374634,1200.021240 1140.884521,1183.577881 1141.773682,1166.576294 
	C1143.860229,1126.676758 1134.296265,1089.776123 1111.761597,1056.444580 
	C1099.453125,1038.238525 1083.674561,1024.450317 1062.658813,1017.428833 
	C1045.325439,1011.637634 1028.523193,1013.896118 1012.835266,1022.966553 
	C1004.090576,1028.022583 995.122314,1029.624390 985.509277,1026.979614 
	C968.012695,1022.165955 958.694580,1003.252319 971.608643,987.508362 
	C975.749207,982.460388 981.080505,978.231506 986.381714,974.326599 
	C996.779419,966.667603 1009.326050,965.197327 1021.590698,962.749573 
	C1045.020996,958.073425 1067.621948,960.909119 1089.689453,969.270935 
	C1111.878662,977.678772 1131.041504,990.522827 1146.334961,1008.873108 
	C1149.811523,1013.044495 1153.509155,1017.031555 1157.461670,1021.507324 
	C1170.935547,990.931641 1189.611450,964.871033 1214.093994,943.096985 
	C1219.033081,938.704285 1224.005371,933.708008 1229.899902,931.154541 
	C1245.753418,924.287292 1259.599243,933.174683 1265.074951,952.426331 
	C1268.361572,963.981873 1261.025757,972.091431 1254.061157,979.817932 
	C1245.713867,989.078369 1236.940308,997.953247 1228.519775,1007.149170 
	C1215.332886,1021.550598 1206.400879,1038.449341 1201.616089,1057.228638 
	C1197.971436,1071.532715 1195.794556,1086.213013 1193.069214,1100.745483 
	C1192.804810,1102.155884 1193.181274,1103.719971 1193.422485,1105.186157 
	C1196.010132,1120.916870 1198.927856,1136.515625 1198.493408,1152.676392 
	C1197.903442,1174.619873 1195.121216,1196.121948 1188.781860,1217.091553 
	C1180.585449,1244.203613 1168.876221,1269.751709 1151.435303,1292.182739 
	C1139.197754,1307.921509 1126.679932,1323.631470 1112.694092,1337.779541 
	C1089.056641,1361.690918 1061.111816,1380.254883 1032.441650,1397.637085 
	C1028.285278,1400.157104 1023.911743,1402.319092 1018.313538,1405.368652 
	C1020.804688,1405.810547 1021.708923,1406.029663 1022.626038,1406.124878 
	C1041.331787,1408.067749 1059.998291,1410.725586 1078.754639,1411.770264 
	C1113.655396,1413.714111 1148.598511,1415.292114 1183.543579,1415.901611 
	C1205.649658,1416.287109 1227.902710,1415.762817 1249.883179,1413.572388 
	C1269.158447,1411.651611 1288.157349,1406.900635 1307.256592,1403.285400 
	C1320.945068,1400.694336 1334.175903,1396.643433 1347.017822,1390.228027 
	C1345.803711,1389.188477 1344.823486,1388.334839 1343.828003,1387.499390 
	C1333.277954,1378.644409 1322.233765,1370.308838 1312.275024,1360.832520 
	C1291.079102,1340.663208 1276.649780,1316.180176 1268.920532,1287.927124 
	C1259.346191,1252.929688 1262.549072,1218.134277 1272.938110,1184.078125 
	C1280.502075,1159.283081 1293.118530,1136.620972 1309.127808,1116.159546 
	C1334.454224,1083.789673 1366.234497,1058.634644 1400.188110,1035.958130 
	C1409.784058,1029.549316 1419.436401,1030.245605 1428.351440,1035.842773 
	C1436.626099,1041.037842 1442.423340,1048.760742 1441.002441,1059.577881 
	C1439.512329,1070.921265 1432.807495,1078.862915 1423.897461,1085.461060 
	C1402.905151,1101.006104 1381.438843,1115.953735 1363.463379,1135.215576 
	C1333.414307,1167.415039 1316.649414,1204.740234 1318.640503,1249.438965 
	C1319.770386,1274.806030 1328.530273,1297.287598 1345.835815,1315.879639 
	C1358.231934,1329.197144 1372.794189,1339.955566 1388.471436,1349.392334 
	C1415.038818,1365.384277 1443.633301,1374.798462 1474.356689,1377.866211 
	C1495.649292,1379.992065 1516.794189,1379.252563 1537.994385,1375.484497 
	C1560.965332,1371.401489 1582.529907,1363.418457 1603.859619,1354.515869 
	C1609.430664,1352.190552 1614.628052,1348.969849 1620.205444,1346.051147 
	C1618.250122,1343.102539 1616.461304,1340.694702 1614.971558,1338.114502 
	C1597.517334,1307.880249 1573.035645,1284.621826 1543.771729,1266.046265 
	C1528.831665,1256.562622 1513.543945,1249.530151 1495.571167,1257.636841 
	C1495.421387,1257.704346 1495.251709,1257.731934 1495.088623,1257.765259 
	C1481.550049,1260.546753 1467.845947,1252.167114 1462.434937,1238.939209 
	C1458.361572,1228.981567 1467.091553,1208.709961 1475.915161,1204.980103 
	C1490.349365,1198.878784 1505.471558,1195.379761 1521.194092,1197.598267 
	C1543.313965,1200.719604 1562.456665,1211.265137 1580.339966,1223.878174 
	C1592.399048,1232.383179 1604.144043,1241.577515 1614.817627,1251.736572 
	C1626.331177,1262.695068 1637.059937,1274.638062 1646.958374,1287.084351 
	C1655.420044,1297.724121 1663.079346,1309.223389 1669.509766,1321.193359 
	C1675.595825,1332.522339 1686.116333,1340.054199 1691.916260,1351.984863 
	C1696.724976,1361.876953 1706.559570,1370.183594 1715.843140,1376.864258 
	C1735.259399,1390.836792 1758.033447,1396.887451 1781.542480,1399.786133 
	C1790.392578,1400.877319 1799.399658,1401.172363 1808.324951,1401.056396 
	C1819.420776,1400.912354 1830.682007,1400.995361 1841.556763,1399.136719 
	C1859.899292,1396.001709 1876.700806,1388.383911 1892.709717,1378.791138 
	C1917.369873,1364.014160 1936.674927,1344.081177 1951.531982,1319.675903 
	C1960.811523,1304.432739 1968.166626,1288.322510 1974.251953,1271.491455 
	C1983.061401,1247.126587 1987.673950,1222.065430 1988.603760,1196.320068 
	C1989.107910,1182.355591 1988.772827,1168.345093 1988.371216,1154.368286 
	C1988.027344,1142.405151 1987.049438,1130.460327 1986.303711,1117.677856 
	C1984.641602,1118.892700 1983.964233,1119.343018 1983.335938,1119.853516 
	C1957.643188,1140.740234 1927.244629,1151.312500 1895.792969,1159.320068 
	C1883.372070,1162.482300 1871.623047,1156.761597 1867.148315,1146.656006 
	C1861.866211,1134.727661 1865.251343,1119.225342 1875.138672,1112.298950 
	C1878.607910,1109.868530 1882.811768,1108.357422 1886.848633,1106.890747 
	C1899.035522,1102.463257 1911.479004,1098.695679 1923.497925,1093.864014 
	C1938.044922,1088.016235 1949.902222,1077.975342 1961.484375,1067.635010 
	C1980.289429,1050.846069 1994.289551,1030.835938 2000.771851,1006.368713 
	C2004.330200,992.938477 2006.647583,979.099731 2008.473267,965.306030 
	C2012.767578,932.860962 2013.255615,900.487915 2001.719971,869.181763 
	C1997.721436,858.330078 1993.214844,847.448120 1987.251221,837.603210 
	C1981.970825,828.886108 1974.415405,821.529968 1967.738770,813.679932 
	C1957.552002,801.703064 1946.354858,790.889465 1932.703369,782.776550 
	C1902.344482,764.734741 1869.033569,753.343445 1836.458740,740.416382 
	C1818.745483,733.386963 1800.130493,728.600952 1781.853516,723.028015 
	C1763.166016,717.329956 1755.591309,696.388977 1766.524780,680.135315 
	C1772.208374,671.686157 1788.791748,665.769348 1799.341675,669.106934 
	C1820.552856,675.817505 1841.632690,682.943420 1862.763550,689.907288 
	C1867.429321,691.444946 1872.082397,693.021423 1877.255981,694.752197 
	C1877.469238,691.915039 1877.901367,689.458435 1877.795654,687.025208 
	C1877.225098,673.883484 1876.659180,660.738770 1875.831421,647.611572 
	C1874.532104,627.003113 1874.033447,606.276123 1871.364624,585.838379 
	C1867.543091,556.572998 1854.704590,530.761597 1837.711914,506.789154 
	C1826.352661,490.764160 1812.434570,477.631744 1795.785034,467.509644 
	C1779.351807,457.519043 1761.421021,450.865967 1742.894287,445.803101 
	C1739.044434,444.751007 1735.252563,443.486420 1731.842163,442.444489 
	C1737.777466,461.815002 1743.953979,480.765686 1749.256714,499.957764 
	C1751.023560,506.352631 1751.512085,513.455750 1750.892944,520.076904 
	C1749.787842,531.895874 1741.068604,540.988037 1730.442139,543.184937 
	C1717.731201,545.812805 1702.846680,535.775513 1698.587891,521.596313 
	C1695.193359,510.294373 1691.960327,498.944031 1688.594482,487.633392 
	C1682.637451,467.615143 1673.921021,448.756042 1664.076050,430.414581 
	C1662.900635,428.224670 1660.287598,426.043152 1657.915527,425.380859 
	C1640.754028,420.588837 1637.053467,408.086426 1637.949463,393.541473 
	C1638.103027,391.049561 1637.397583,387.914581 1635.900269,386.012421 
	C1629.106201,377.381683 1622.274292,368.720306 1614.748291,360.737152 
	C1590.357544,334.864288 1563.752686,311.483643 1533.969482,291.953461 
	C1514.064941,278.901123 1492.871338,268.257904 1471.122559,258.503876 
	C1444.497070,246.562744 1417.282349,236.262146 1388.925415,229.835907 
	C1362.613525,223.873108 1335.685791,221.062622 1308.600830,224.393585 
	C1298.281616,225.662674 1288.076538,227.859360 1278.135620,229.578644 
	C1283.521240,251.324326 1289.204590,272.165405 1293.783936,293.246307 
	C1300.998047,326.456787 1311.025391,358.394989 1329.187012,387.553711 
	C1340.110229,405.090759 1352.044434,421.511414 1368.290771,434.447540 
	C1370.136719,435.917419 1372.559448,437.088837 1374.870117,437.479004 
	C1388.474609,439.776184 1402.204346,441.391357 1415.742676,444.008026 
	C1439.147705,448.531708 1461.983765,455.376892 1483.745972,465.025269 
	C1505.400146,474.625793 1525.111694,487.276398 1542.765137,503.584198 
	C1561.048340,520.473755 1576.176392,539.386047 1586.759155,561.693787 
	C1592.207153,573.178040 1597.284058,585.307922 1599.633545,597.695129 
	C1604.615479,623.960571 1597.120239,647.764648 1580.926025,668.871887 
	C1577.457153,673.393066 1573.866455,677.820740 1570.197754,682.461182 
	C1576.651367,682.988708 1582.586182,683.572021 1588.534302,683.942688 
	C1611.357422,685.364929 1633.724365,689.310059 1655.406128,696.590332 
	C1683.002319,705.856445 1708.857788,718.535034 1732.388184,735.921875 
	C1750.900879,749.601074 1767.349854,765.180054 1780.451782,784.167725 
	C1798.551025,810.397827 1807.979004,839.161316 1804.554565,871.224609 
	C1801.500488,899.820679 1791.531738,926.431335 1779.804199,952.483093 
	C1770.185059,973.851074 1760.210815,995.106018 1751.750977,1016.936890 
	C1741.437744,1043.550293 1742.403320,1070.684204 1752.023315,1097.472656 
	C1763.891113,1130.520630 1786.710449,1154.350342 1816.541260,1171.532837 
	C1847.760620,1189.515015 1881.744629,1201.535645 1914.955688,1215.186157 
	C1921.857300,1218.023071 1929.059204,1220.731445 1935.081543,1224.976196 
	C1946.462158,1232.997681 1951.748291,1245.137085 1945.047974,1258.358765 
	C1937.629761,1272.996826 1923.360352,1279.152954 1907.280762,1273.408325 
	C1897.886719,1270.052124 1888.778809,1265.895996 1879.540161,1262.104370 
	C1848.949463,1249.549683 1818.135620,1237.633911 1789.258545,1221.130127 
	C1762.399658,1205.779785 1739.773926,1185.948608 1722.550171,1160.566040 
	C1706.929810,1137.546387 1696.666260,1112.013428 1691.825684,1084.302979 
	C1688.124268,1063.115112 1688.260986,1042.267456 1693.307373,1021.415833 
	C1699.891968,994.207886 1712.665039,969.448608 1723.826904,944.037170 
	C1733.039795,923.062561 1742.840698,902.309387 1747.720703,879.670166 
	C1754.130981,849.931885 1745.747681,824.938599 1724.647217,803.606323 
	C1708.444824,787.225769 1689.887451,774.245117 1669.363403,763.853943 
	C1640.880493,749.433228 1610.665405,741.529602 1578.887085,740.282532 
	C1561.474609,739.599121 1543.965454,739.976990 1526.559570,740.947693 
	C1511.651978,741.778992 1496.564331,742.930603 1482.036987,746.126038 
	C1464.240479,750.040527 1446.865479,755.982178 1429.462769,761.532227 
	C1419.376099,764.749084 1409.979126,765.380188 1401.017212,758.693726 
	C1398.698364,756.963684 1396.159424,755.293274 1393.458008,754.350769 
	C1378.072266,748.982239 1371.419067,727.401855 1380.730225,714.111450 
	C1389.124268,702.130127 1402.161255,699.006714 1414.764526,694.907043 
	C1428.824951,690.333435 1443.096191,686.375977 1457.029541,681.453369 
	C1470.327637,676.755310 1483.427490,671.437561 1496.397339,665.885010 
	C1510.348877,659.912292 1524.134766,653.310730 1534.323608,641.578857 
	C1543.488281,631.026245 1548.670776,618.581177 1544.220825,604.690002 
	C1540.806641,594.032104 1536.350708,583.369202 1530.410400,573.934875 
	C1520.314575,557.901001 1506.219604,545.405151 1490.973511,534.088928 
	C1478.104492,524.537170 1463.968018,517.620239 1449.147339,512.136536 
	C1418.540527,500.811768 1386.632568,495.293457 1354.192017,493.143066 
	C1336.099365,491.943726 1317.921997,491.595062 1299.783569,491.608978 
	C1269.809448,491.632019 1239.836060,492.272736 1209.861938,492.610596 
	C1206.537109,492.648071 1203.209839,492.349854 1199.882446,492.307312 
	C1183.076660,492.092529 1166.263184,492.152740 1149.466431,491.650238 
	C1132.353882,491.138275 1115.257690,490.084045 1098.941650,489.304871 
	C1069.854614,569.445496 1008.773438,605.849854 927.851868,616.044067 
	C928.114502,616.587341 928.449463,617.318909 928.816528,618.033813 
	C942.772766,645.215027 964.678467,664.540833 990.724365,679.364380 
	C1001.953613,685.755188 1014.100952,690.538513 1025.858521,695.993225 
	C1035.152954,700.305115 1044.048218,705.108215 1049.753052,714.132935 
	C1058.466064,727.916260 1053.157227,743.834778 1038.054565,749.812866 
	C1029.037842,753.381897 1020.195740,753.429749 1011.391174,749.443787 
	C999.890747,744.237305 988.276978,739.244934 977.005432,733.577026 
	C956.707520,723.370422 937.829834,710.951233 921.475830,695.056335 
	C897.530701,671.783325 879.158630,644.638123 866.170898,613.881958 
	C865.083984,611.308105 863.664185,610.221252 860.919067,609.516357 
	C848.697327,606.377869 836.367249,603.453491 824.460876,599.339050 
	C800.558228,591.079102 778.921082,578.338013 758.089111,564.138428 
	C748.975342,557.926270 740.815735,551.167786 737.719910,539.886963 
	C732.487732,520.820984 745.783142,501.772217 768.231995,508.062073 
	C774.200867,509.734497 780.103271,512.528381 785.295166,515.936340 
	C808.164917,530.948059 831.155029,545.550415 858.184875,552.212769 
	C861.990540,553.150757 865.109558,553.307739 868.445862,550.867432 
	C875.384949,545.791748 883.120422,544.231384 891.016479,548.176575 
	C895.410339,550.371887 899.159058,553.827576 903.337646,556.497620 
	C905.460205,557.853821 907.966553,559.799194 910.169556,559.643311 
	C922.910889,558.741577 936.018982,558.861877 948.244690,555.702209 
	C973.616882,549.144897 996.786926,537.896912 1015.653137,518.728882 
	C1027.417480,506.776337 1036.988037,493.667603 1042.721802,477.919830 
	C1043.366089,476.150513 1042.974609,473.321075 1041.929810,471.725769 
	C1031.838379,456.316772 1031.875122,445.661957 1043.617310,433.517090 
	C1045.005615,432.081116 1045.877441,428.893829 1045.310791,427.028168 
	C1042.270752,417.020477 1039.160034,406.986053 1035.210571,397.313293 
	C1028.023315,379.710480 1015.967102,365.125549 1004.739380,350.048065 
	C1000.574219,344.454620 996.183411,338.890778 992.981689,332.747345 
	C986.421509,320.159943 989.940552,305.629913 1000.559570,298.376099 
	C1010.037476,291.901825 1028.760986,294.033600 1036.477295,303.226715 
	C1045.776489,314.305603 1054.859741,325.628906 1063.197876,337.438446 
	C1082.383667,364.611542 1094.575439,394.810944 1100.200317,427.604889 
	C1100.745361,430.782593 1102.383179,431.753326 1105.202393,431.931244 
	C1119.647705,432.842957 1134.079102,434.079559 1148.537109,434.659424 
	C1167.494873,435.419708 1186.472290,436.008179 1205.442749,436.057129 
	C1228.074097,436.115540 1250.707031,435.500610 1273.339722,435.229065 
	C1280.690186,435.140869 1288.042480,435.215210 1295.734619,435.215210 
	C1288.114258,422.587616 1280.698364,411.137360 1274.114380,399.227203 
	C1256.299805,367.001801 1246.976562,331.786835 1238.650391,296.255676 
	C1235.425659,282.494263 1232.667725,268.591431 1228.677612,255.053528 
	C1226.344849,247.138916 1224.994995,238.459396 1217.859863,232.535233 
	C1212.315308,227.931793 1208.858398,221.906555 1208.215332,214.490524 
	C1208.122925,213.424011 1207.634399,212.093414 1206.861206,211.432892 
	C1201.960571,207.246597 1197.432373,202.263031 1191.847778,199.304535 
	C1172.844604,189.237411 1152.171265,184.481400 1131.014893,181.124603 
	C1112.870728,178.245728 1094.742920,178.042282 1076.812866,180.958221 
	C1050.140503,185.295898 1024.567993,193.653992 999.913879,204.868713 
	C989.435181,209.635284 978.851501,213.995865 970.356567,222.111786 
	C969.066284,223.344513 967.373047,224.396423 965.677002,224.925369 
	C952.312500,229.093536 942.651489,238.742767 932.558777,247.562988 
	C913.980896,263.798645 899.136963,283.203491 886.184143,304.121826 
	C878.504944,316.523163 867.737976,320.451111 852.510376,316.577423 
	C841.382568,313.746613 836.176270,305.767975 834.129089,290.821625 
	C833.515808,286.344299 834.298645,280.780914 836.549500,276.954987 
	C848.811646,256.111572 862.600159,236.332901 880.230896,219.507156 
	C885.452454,214.523987 890.353149,209.204605 895.402039,204.038162 
	C895.186035,203.845978 894.975159,203.516861 894.687317,203.422455 
	C867.139221,194.386307 839.081909,187.842697 810.181152,184.705750 
	C785.033813,181.976181 760.035278,179.052475 734.579041,179.505707 
	C700.113770,180.119308 667.946289,189.282990 636.534851,202.087158 
	C625.325317,206.656479 614.454712,212.219223 603.867371,218.115067 
	C587.357544,227.309036 572.214417,238.384506 560.417175,253.581604 
	C560.817139,254.125809 561.163513,254.698654 561.605835,255.184082 
	C578.636719,273.876465 592.831848,294.501831 603.953918,317.227631 
	C608.192566,325.888519 612.201538,334.674377 616.767639,343.159790 
	C624.884460,358.244019 633.376282,373.126129 641.641785,388.131012 
	C643.601196,391.688202 645.285950,395.396729 647.106079,399.053802 
	C647.858582,398.633392 648.213135,398.533691 648.422546,398.302521 
	C649.874329,396.700073 651.322632,395.092987 652.723328,393.445984 
	C684.205566,356.427368 725.295654,341.465088 772.642639,343.347961 
	C801.144592,344.481384 828.274658,352.847931 853.917419,365.661194 
	C861.016479,369.208466 868.197693,373.108856 875.800537,375.016663 
	C889.321716,378.409607 903.271240,380.058685 916.889587,383.114563 
	C925.113647,384.959961 933.392334,387.332611 941.035889,390.810242 
	C951.904480,395.755188 955.574097,404.361450 954.026428,417.307953 
	C952.915771,426.599060 944.116760,436.586243 934.628174,438.327148 
	C930.140930,439.150482 925.278503,439.142456 920.770508,438.396484 
	C910.114319,436.633270 899.626953,433.841431 888.966003,432.116699 
	C866.559998,428.491882 844.965393,423.359924 824.518921,412.401184 
	C803.103027,400.922821 779.875488,394.590515 754.805847,397.989441 
	C725.492493,401.963745 702.440552,415.676910 686.346252,440.454590 
	C675.171265,457.658875 670.020264,477.225616 667.284485,497.233337 
	C664.551819,517.218811 665.020142,537.369690 666.979065,557.502625 
	C669.757812,586.061646 674.925781,614.120361 682.803650,641.710754 
	C687.048157,656.576111 691.341492,671.451782 694.779175,686.513062 
	C696.488220,694.001099 698.090759,700.032837 706.034546,703.928528 
	C720.133728,710.843079 730.408691,723.008118 738.709595,735.646362 
	C751.861572,755.670532 745.397217,769.430786 727.174133,779.546692 
	C720.626831,783.181152 713.830811,783.272461 707.197266,779.232178 
	C704.659607,777.686462 701.935364,776.447083 699.402405,775.123657 
	C697.222107,788.791931 695.054688,802.379333 692.875366,816.041077 
	C693.375183,815.990051 694.031433,815.971191 694.668518,815.850769 
	C710.995056,812.765686 727.241821,809.146790 743.664185,806.710510 
	C763.568848,803.757751 783.572144,801.198242 803.622131,799.564880 
	C830.296570,797.391785 857.144104,794.298279 883.704102,800.165161 
	C893.650085,802.362122 903.693970,805.506531 912.706177,810.139221 
	C921.267029,814.539917 928.538513,821.448975 936.667725,827.470459 
	C1016.055115,776.806396 1104.660645,761.821350 1197.923340,766.579285 
	C1198.115601,765.149719 1198.280884,764.182739 1198.371216,763.208801 
	C1199.723877,748.630981 1200.006226,733.858459 1202.627319,719.513000 
	C1208.503174,687.354919 1221.664429,657.937195 1239.933105,630.931335 
	C1255.075439,608.547485 1273.741211,589.400085 1295.511353,573.298035 
	C1322.760498,553.143494 1351.953369,536.673157 1384.821289,527.747009 
	C1407.844604,521.494385 1431.526367,520.932922 1455.243164,522.259277 
	C1464.465210,522.774963 1472.553833,525.930359 1479.892578,531.823730 
	C1489.422241,539.476501 1490.218506,549.037659 1487.538330,559.747070 
	C1485.006348,569.864075 1479.199097,576.692566 1468.363647,578.141602 
	C1464.583740,578.647095 1460.761475,579.145142 1456.961304,579.125000 
	C1449.139648,579.083496 1441.309937,578.311035 1433.501099,578.513550 
	C1410.411377,579.112244 1388.265137,584.174377 1367.796143,594.950745 
	C1356.199097,601.056213 1345.167358,608.282715 1334.121948,615.379211 
	C1310.021851,630.863037 1290.821533,651.228699 1276.152344,675.726807 
	C1263.176392,697.397705 1254.409668,720.623535 1253.287231,746.174866 
	C1252.887329,755.278564 1253.223145,764.414551 1253.223145,773.828735 
	C1254.410889,774.131104 1256.011108,774.530334 1257.607056,774.945984 
	C1273.204956,779.007507 1289.262817,781.835754 1304.287476,787.435608 
	C1324.944580,795.134949 1345.183838,804.200989 1364.929688,814.032166 
	C1385.641479,824.344360 1405.470093,836.574036 1422.699951,852.139404 
	C1438.473145,866.388977 1453.442871,881.579590 1468.109009,896.981750 
	C1475.873901,905.136536 1483.073608,914.100281 1489.052612,923.625244 
	C1499.742676,940.654907 1509.543701,958.259460 1519.293457,975.858032 
	C1529.532837,994.340454 1539.345337,1013.025452 1553.232300,1029.202393 
	C1568.338013,1046.798828 1592.027954,1050.314697 1610.909546,1037.443481 
	C1628.940674,1025.151978 1652.759521,1036.061279 1654.910522,1057.882080 
	C1655.345459,1062.296021 1655.011353,1067.664673 1652.850708,1071.295044 
	C1645.656860,1083.382812 1635.241455,1092.195923 1621.442139,1096.000366 
	C1614.110474,1098.021606 1606.529541,1099.477783 1598.965210,1100.256958 
	C1568.450562,1103.400635 1542.087891,1093.841187 1520.311157,1072.508301 
	C1501.187378,1053.774292 1488.266846,1030.694824 1475.634277,1007.309326 
	C1464.344360,986.409485 1452.845703,965.342834 1438.849854,946.247559 
	C1415.703247,914.667297 1386.017944,889.740112 1352.352661,869.553955 
	C1322.109375,851.419556 1289.790527,838.538208 1255.411743,831.203125 
	C1237.893799,827.465515 1220.050659,824.865906 1202.221436,823.085327 
	C1185.561523,821.421509 1168.706299,820.691772 1151.972534,821.080566 
	C1135.732422,821.457947 1119.405151,822.941345 1103.357910,825.471802 
	C1085.342651,828.312622 1067.192139,831.578369 1049.845459,837.029907 
	C1030.756226,843.028870 1012.089478,850.840637 994.035522,859.520020 
	C979.014282,866.741455 963.205994,873.550293 954.847168,890.208679 
	C951.657593,896.565125 945.017944,900.470886 936.929626,900.143860 
	C935.338928,900.079468 933.195129,900.913818 932.151611,902.086060 
	C922.316956,913.134155 911.446777,923.520569 903.216614,935.682312 
	C886.295776,960.686218 874.602966,988.190918 870.405884,1018.392151 
	C868.243286,1033.953857 867.989441,1049.401855 872.426270,1064.878174 
	C876.997864,1080.824219 886.965576,1092.693359 898.702209,1103.497925 
	C899.761169,1104.472778 902.185242,1104.296387 903.925476,1104.130493 
	C907.516541,1103.788330 911.071594,1102.651367 914.645630,1102.632446 
	C922.281433,1102.592285 930.093933,1104.208496 937.523315,1103.087280 
	C956.566101,1100.212891 975.474243,1096.388672 994.366516,1092.596924 
	C1005.202209,1090.422119 1015.908386,1088.519897 1026.973267,1090.987183 
	C1042.626831,1094.478027 1047.554443,1107.922119 1045.369873,1120.642578 
	C1043.263428,1132.909058 1035.356567,1140.115356 1023.004211,1142.364258 
	C1011.058167,1144.538940 999.119019,1146.758545 987.206299,1149.107544 
	C974.906555,1151.533203 962.642395,1154.139038 950.054138,1156.729370 
	C957.429749,1175.330444 959.032104,1194.254761 958.444275,1213.817993 
	C957.398926,1248.609863 941.435669,1274.435791 913.013672,1292.993408 
	C895.717285,1304.286743 875.927917,1306.564697 855.649292,1306.677979 
	C833.271057,1306.802979 811.914734,1302.882446 792.055969,1292.393921 
	C765.847656,1278.551514 743.869873,1259.868530 727.655457,1234.793701 
	C726.866333,1233.573242 725.943787,1232.438965 724.998657,1231.149170 
	C723.973633,1231.557373 723.203308,1231.818115 722.472168,1232.161987 
	C703.553101,1241.056885 683.674072,1246.671387 663.176575,1250.714600 
	C638.087280,1255.663452 613.909546,1253.088013 589.415894,1244.072144 
M294.231720,485.053375 
	C288.577667,485.124817 282.789459,484.437378 277.294556,485.408905 
	C260.317810,488.410645 244.295074,494.321136 229.377792,503.059753 
	C204.514771,517.624695 182.753891,536.319275 161.749802,555.719971 
	C143.903320,572.204102 127.988037,590.627380 115.553719,611.795715 
	C103.698105,631.978882 93.843956,653.020142 88.921425,675.962830 
	C85.374077,692.496216 82.658592,709.237366 80.337402,725.991882 
	C79.205315,734.163391 79.160355,742.627075 79.783356,750.870789 
	C81.099380,768.284790 83.293633,785.630310 84.917450,803.023499 
	C87.364708,829.236877 92.017433,855.051636 97.998726,880.676636 
	C103.747856,905.307007 110.051849,929.729614 119.115097,953.408752 
	C126.478111,972.645691 132.639130,992.408508 143.334351,1010.165222 
	C151.905624,1024.395508 160.978348,1038.332764 170.133835,1052.198364 
	C174.061935,1058.147217 178.588379,1063.730713 183.151154,1069.224365 
	C191.971161,1079.843994 200.423721,1090.860474 210.094391,1100.660767 
	C224.798248,1115.561646 240.487808,1129.485596 255.615829,1143.973633 
	C274.609344,1162.163574 296.321442,1176.051880 320.753082,1185.705566 
	C327.751099,1188.470459 330.782104,1187.902222 333.725861,1181.163330 
	C339.234070,1168.553711 344.515900,1155.763184 348.666687,1142.659912 
	C356.899750,1116.669312 364.325714,1090.513550 376.775024,1065.982544 
	C391.050079,1037.853882 408.834045,1012.558105 432.943420,992.220459 
	C445.755859,981.412292 460.078033,972.859802 476.123566,966.847900 
	C490.211212,961.569519 504.225952,957.596313 519.235535,958.000549 
	C523.357849,958.111572 525.146973,956.745850 526.385620,953.077942 
	C531.688477,937.374817 540.733643,923.659912 551.470276,911.415283 
	C565.917908,894.938599 580.684204,878.531189 596.936279,863.895752 
	C621.656006,841.635010 636.877197,814.890015 641.445435,782.091248 
	C642.205383,776.635315 641.552490,770.982544 641.552490,765.089783 
	C640.379028,765.338745 639.727234,765.380737 639.152222,765.612915 
	C613.861511,775.824280 588.263977,785.187988 561.580017,791.046936 
	C544.224060,794.857605 526.773804,798.557617 509.176514,800.862244 
	C491.000824,803.242493 472.663452,802.254517 454.378784,800.145386 
	C420.708313,796.261658 388.519104,787.310364 357.774719,773.141541 
	C348.293701,768.772095 338.999298,763.997742 329.134155,759.171387 
	C324.632874,768.854004 319.913300,778.193909 315.887085,787.823730 
	C305.101105,813.621216 300.480652,839.988892 308.870361,867.587769 
	C314.633789,886.547241 325.324951,901.515808 342.547577,911.577332 
	C350.579681,916.269714 358.597595,920.992371 366.735229,925.496643 
	C379.179596,932.384827 383.365326,943.527161 382.819824,956.884583 
	C382.692017,960.014160 381.467133,963.539062 379.636597,966.083191 
	C371.527405,977.354004 356.720673,981.065796 343.982452,975.623352 
	C327.162170,968.436829 311.774506,958.866943 298.237976,946.666382 
	C290.745361,939.913269 283.846558,932.315735 277.667938,924.334106 
	C268.521759,912.519043 262.992126,898.691467 258.214203,884.614624 
	C250.223572,861.072571 247.232697,836.864441 250.724548,812.273804 
	C255.179123,780.903564 267.458740,752.313232 283.888275,725.152649 
	C264.520660,706.856140 250.862061,683.952454 236.957657,661.215393 
	C229.924576,649.714661 230.906723,638.711243 238.808212,628.193115 
	C249.944702,613.368652 271.291595,611.066223 281.920593,628.404968 
	C284.181610,632.093262 286.236603,635.916565 288.643860,639.505005 
	C296.233032,650.817627 303.252563,662.604736 311.763245,673.186218 
	C326.193298,691.127197 345.420563,703.245056 365.574707,713.805603 
	C374.102264,718.273987 382.785828,722.671387 391.834137,725.867737 
	C406.679993,731.112122 421.694702,736.138550 436.992645,739.759705 
	C448.903564,742.579163 461.330353,744.138062 473.570068,744.418945 
	C489.152710,744.776611 505.077118,744.938782 520.313782,742.189941 
	C542.490784,738.188904 564.431396,732.320862 586.011414,725.736755 
	C604.540649,720.083374 622.422791,712.309387 640.693970,705.434448 
	C640.347839,703.314331 640.234863,701.832153 639.855408,700.421692 
	C636.442505,687.737305 632.794617,675.113037 629.583008,662.378418 
	C625.272949,645.287903 620.298462,628.279602 617.415283,610.935852 
	C613.765076,588.977478 611.238403,566.769775 609.557556,544.568848 
	C608.458313,530.048462 608.891968,515.278076 610.145752,500.749634 
	C611.513184,484.905365 613.969177,469.085052 619.544434,453.968628 
	C619.938049,452.901520 618.853699,450.289856 617.837402,449.859833 
	C609.419067,446.298004 605.581055,439.093567 602.002136,431.395447 
	C596.822571,420.253967 591.527039,409.151001 585.814758,398.276550 
	C578.938599,385.186523 571.614380,372.330566 564.409851,359.414734 
	C556.316895,344.906219 548.853821,329.978729 539.792664,316.097778 
	C531.410767,303.257324 522.837097,290.055359 508.045898,283.106506 
	C506.737732,282.491943 505.572083,281.354706 504.626984,280.221191 
	C496.815491,270.852478 486.182281,267.369141 474.652985,266.541412 
	C456.264008,265.221222 438.835419,269.840668 422.674713,278.071320 
	C390.121399,294.650696 364.483185,319.642822 342.590698,348.311859 
	C330.101593,364.666809 319.297028,382.357819 308.418091,399.872223 
	C302.690460,409.093323 298.433105,419.227692 293.543365,428.887421 
	C301.359894,430.055176 309.483887,430.322815 317.025360,432.556885 
	C352.487427,443.062195 382.312469,461.992615 406.192932,490.830170 
	C424.809357,513.310974 436.247070,539.314392 447.361725,565.659729 
	C450.267609,572.547607 451.052704,580.290161 446.922760,586.926880 
	C436.872864,603.076843 412.988831,607.825073 401.276001,589.443909 
	C396.921753,582.610718 393.220612,575.259277 390.051910,567.791809 
	C380.414642,545.080261 367.516998,524.853760 348.056702,509.195312 
	C332.448975,496.636688 315.162933,487.933441 294.231720,485.053375 
M832.807007,1107.640381 
	C829.838318,1101.504517 826.486572,1095.521606 823.965149,1089.207153 
	C810.822205,1056.292603 811.310425,1022.526245 818.670837,988.564270 
	C823.850159,964.665649 832.951233,942.165466 845.500183,921.176514 
	C856.442444,902.874817 868.104614,885.053772 883.742798,870.232483 
	C886.123840,867.975830 888.101562,865.293701 890.575562,862.452820 
	C888.599792,861.356445 887.093994,860.360413 885.465332,859.643433 
	C875.838135,855.405579 865.536804,853.605835 855.250366,854.160278 
	C827.872559,855.635925 800.444458,857.078430 773.214294,860.124634 
	C749.143372,862.817505 725.164429,866.937866 701.436096,871.838135 
	C689.224060,874.360107 677.150574,875.306091 664.846680,875.609985 
	C663.167542,875.651428 661.143311,876.783386 659.929321,878.039185 
	C654.033325,884.138184 648.546448,890.637817 642.568359,896.651306 
	C628.741516,910.559875 614.432861,923.999573 600.868042,938.155029 
	C591.780334,947.638550 584.395203,958.500122 579.802368,971.399902 
	C583.064087,972.918091 586.249756,974.300232 589.345642,975.860474 
	C599.137085,980.795044 609.642212,984.737488 618.507385,990.995789 
	C636.002197,1003.346191 652.899597,1016.605957 669.461914,1030.198975 
	C692.239807,1048.893188 708.323975,1073.043701 721.543213,1098.960815 
	C730.064514,1115.667236 736.803040,1133.282593 744.353699,1150.484863 
	C747.006042,1156.527710 749.718628,1161.470581 757.252747,1163.983032 
	C773.059204,1169.254028 778.361755,1184.166504 771.740173,1200.020996 
	C771.323120,1201.019653 771.373108,1202.715088 771.963501,1203.551514 
	C775.889404,1209.114258 779.300049,1215.312134 784.216064,1219.856445 
	C802.637695,1236.885498 823.276184,1249.376709 849.252747,1251.715698 
	C872.667786,1253.823975 891.301025,1244.813477 899.598511,1224.443604 
	C904.785522,1211.709839 904.833862,1198.153931 902.766052,1184.581909 
	C901.629944,1177.124512 899.066895,1170.892822 891.894958,1167.218994 
	C889.264282,1165.871338 887.096680,1163.647949 884.615784,1161.975464 
	C863.580994,1147.794312 846.767883,1129.574219 832.807007,1107.640381 
M1333.217651,1586.408936 
	C1317.972168,1584.988647 1302.726685,1583.568481 1287.481201,1582.148193 
	C1302.606567,1594.767700 1317.812256,1606.922241 1336.071533,1613.622070 
	C1353.823486,1620.136108 1372.003174,1625.646362 1390.278809,1630.536621 
	C1428.408569,1640.739624 1467.338623,1643.878540 1506.636597,1640.747437 
	C1537.858765,1638.259521 1568.694580,1633.044800 1599.025269,1625.033813 
	C1639.798462,1614.264893 1678.385132,1598.310059 1714.574951,1576.624390 
	C1716.542603,1575.445190 1718.375000,1574.040283 1720.270386,1572.740479 
	C1715.959839,1572.920288 1712.057007,1573.660889 1708.183228,1574.530396 
	C1668.949829,1583.336914 1629.143066,1587.967896 1589.062622,1590.014648 
	C1560.325928,1591.482178 1531.537842,1592.263794 1502.764282,1592.577637 
	C1481.807007,1592.806274 1460.825562,1592.045410 1439.873535,1591.240723 
	C1404.611694,1589.886475 1369.364502,1588.147095 1333.217651,1586.408936 
M1606.128784,1463.584106 
	C1614.544922,1462.578857 1623.088623,1462.182251 1631.352783,1460.451294 
	C1653.614624,1455.788452 1675.786499,1450.680542 1697.926880,1445.464111 
	C1703.529785,1444.144165 1708.881470,1441.757690 1714.807007,1439.702148 
	C1711.114136,1438.015259 1707.869141,1436.725952 1704.802490,1435.100464 
	C1685.917603,1425.090820 1669.546875,1411.873047 1655.435669,1395.867188 
	C1653.184692,1393.313965 1651.426514,1392.964478 1648.253662,1394.551636 
	C1623.715820,1406.827026 1598.932007,1418.465820 1572.229492,1425.548828 
	C1548.476440,1431.849243 1524.406494,1435.938477 1499.862061,1436.096558 
	C1469.721558,1436.290649 1440.203735,1431.525757 1411.491211,1422.300049 
	C1407.540405,1421.030518 1404.693970,1421.630371 1401.324097,1423.641846 
	C1383.421875,1434.327515 1364.866577,1443.576660 1344.554932,1448.923584 
	C1337.633667,1450.745605 1330.854370,1453.106934 1324.010254,1455.221802 
	C1417.535645,1469.432495 1511.193481,1473.263794 1606.128784,1463.584106 
M1820.211182,1478.597656 
	C1831.185303,1473.143555 1842.384888,1467.975952 1848.779541,1456.438843 
	C1836.925903,1457.305176 1825.323730,1457.967896 1813.766724,1459.093262 
	C1809.442261,1459.514526 1804.963257,1460.410522 1800.998413,1462.119263 
	C1778.723267,1471.719727 1757.028442,1482.849731 1734.298096,1491.170410 
	C1695.440430,1505.395020 1655.064331,1514.119873 1613.860962,1518.131348 
	C1588.535400,1520.596924 1563.084717,1522.011597 1537.656128,1523.109131 
	C1518.707764,1523.927124 1499.677490,1524.178589 1480.732422,1523.437500 
	C1451.151978,1522.280273 1421.566284,1520.620239 1392.070190,1518.135620 
	C1366.900635,1516.015381 1341.806641,1512.783936 1316.768311,1509.387695 
	C1297.348389,1506.753784 1278.056763,1503.161133 1258.724976,1499.894043 
	C1241.844604,1497.041260 1224.987793,1494.048706 1208.120728,1491.117310 
	C1201.402710,1489.949585 1194.685059,1488.779419 1187.967285,1487.610474 
	C1189.050293,1490.676880 1190.613281,1492.552368 1192.252441,1494.358643 
	C1198.628296,1501.384033 1205.267334,1508.188965 1211.324585,1515.478027 
	C1214.667725,1519.501099 1217.692871,1522.262695 1223.388550,1520.411133 
	C1225.608276,1519.689575 1228.349609,1520.313110 1230.811890,1520.637573 
	C1248.627808,1522.984741 1266.377441,1526.010132 1284.254517,1527.680786 
	C1314.733765,1530.528931 1345.257446,1533.210938 1375.823608,1534.737183 
	C1413.906006,1536.638672 1452.046509,1537.446167 1490.169067,1538.451416 
	C1529.655273,1539.493042 1569.081299,1537.983765 1608.451172,1534.864746 
	C1637.510620,1532.562500 1666.386597,1528.973877 1694.918213,1522.859375 
	C1738.344604,1513.552612 1780.830811,1501.598511 1820.211182,1478.597656 
M1158.607422,1542.710083 
	C1158.590698,1542.256470 1158.763916,1541.624268 1158.529785,1541.375244 
	C1152.833252,1535.315918 1147.238770,1529.150879 1141.333862,1523.299561 
	C1125.113281,1507.226562 1109.283813,1490.836548 1098.398071,1470.472900 
	C1096.596924,1467.103516 1094.245361,1466.433228 1090.820068,1466.159180 
	C1068.260376,1464.354614 1045.716797,1462.347900 1023.171326,1460.367310 
	C1019.035828,1460.004150 1014.916138,1459.459473 1011.436096,1459.070679 
	C1016.313293,1464.381958 1021.122253,1469.867554 1026.194946,1475.097534 
	C1043.991699,1493.446533 1063.547852,1509.630981 1085.657959,1522.573364 
	C1107.966553,1535.631836 1132.641235,1540.394043 1158.607422,1542.710083 
M1186.549683,1487.490601 
	C1186.549683,1487.490601 1186.630615,1487.476685 1186.549683,1487.490601 
z"/>
<path fill="#E51837" opacity="1.000000" stroke="none" 
	d="
M1427.468750,2049.000000 
	C1431.404663,2039.552124 1436.079834,2030.219116 1440.156250,2020.631592 
	C1448.051270,2002.061890 1451.362793,1982.593872 1452.504272,1962.422241 
	C1454.383301,1929.221802 1447.986694,1897.225708 1440.779175,1865.218872 
	C1434.039307,1835.288574 1423.281738,1806.671997 1412.707031,1777.980347 
	C1403.051636,1751.782715 1393.643188,1725.494141 1384.027100,1699.281860 
	C1382.218628,1694.352417 1379.945435,1689.593506 1377.640137,1684.176147 
	C1388.353149,1686.004395 1398.312256,1687.623535 1408.240723,1689.412964 
	C1442.366821,1695.563354 1476.677979,1696.503296 1511.203491,1693.774170 
	C1540.618408,1691.448975 1569.690063,1686.829590 1598.481079,1680.694336 
	C1613.878784,1677.413086 1629.086670,1672.838013 1643.978271,1667.685547 
	C1663.118530,1661.063232 1682.414307,1654.437012 1700.617432,1645.680054 
	C1721.093750,1635.829834 1741.000732,1624.491333 1760.093262,1612.156250 
	C1778.215210,1600.448120 1795.533325,1587.303345 1812.174072,1573.543701 
	C1833.090820,1556.248413 1852.348145,1537.079468 1870.137817,1516.490967 
	C1873.250488,1512.888428 1877.300293,1510.099976 1880.883301,1506.897461 
	C1882.860840,1505.129883 1885.110718,1503.534424 1886.650635,1501.431396 
	C1896.364014,1488.165894 1905.981445,1474.828247 1915.482666,1461.409668 
	C1919.421509,1455.846802 1923.044678,1450.057495 1926.722778,1444.314331 
	C1930.829834,1437.901489 1933.258423,1430.946777 1933.850220,1423.271851 
	C1934.001221,1421.313477 1935.273682,1419.022095 1936.745850,1417.651611 
	C1948.189941,1406.997437 1960.648071,1397.300415 1971.171509,1385.821289 
	C1985.910522,1369.743652 1997.717773,1351.507812 2007.314941,1331.679688 
	C2024.286743,1296.615601 2036.878662,1260.226318 2040.475952,1221.423340 
	C2042.619263,1198.303345 2041.959961,1174.903931 2042.108398,1151.627197 
	C2042.181519,1140.159546 2041.198486,1128.686523 2040.747070,1117.213867 
	C2040.192749,1103.124268 2034.263672,1095.211060 2020.788574,1090.679443 
	C2019.578369,1090.272461 2018.387329,1089.808716 2016.721558,1089.201660 
	C2030.380127,1073.854248 2040.506714,1056.808105 2048.695801,1038.193359 
	C2049.000000,1374.909790 2049.000000,1711.819458 2049.000000,2049.000000 
	C1841.979126,2049.000000 1634.958252,2049.000000 1427.468750,2049.000000 
z"/>
<path fill="#E51A38" opacity="1.000000" stroke="none" 
	d="
M1289.388550,1652.260864 
	C1293.755981,1654.589844 1298.020752,1657.149048 1302.530029,1659.160156 
	C1305.157349,1660.331909 1305.851196,1661.886841 1306.544067,1664.605957 
	C1308.081543,1670.640259 1309.554810,1677.105103 1312.887085,1682.194458 
	C1325.397095,1701.300537 1333.908081,1722.158203 1341.598267,1743.461548 
	C1348.368530,1762.215820 1355.561646,1780.825684 1361.943970,1799.710083 
	C1370.935181,1826.313843 1380.368286,1852.838257 1387.655884,1879.922974 
	C1392.549927,1898.112549 1394.365723,1917.170288 1396.985840,1935.919678 
	C1399.259766,1952.191650 1398.178467,1968.441406 1395.033936,1984.594849 
	C1392.813110,1996.002930 1388.791870,2006.723389 1382.876587,2016.595947 
	C1376.390015,2027.421753 1369.164185,2037.804321 1362.130127,2048.689941 
	C1323.979126,2049.000000 1285.958130,2049.000000 1247.468628,2049.000000 
	C1257.258301,2020.089966 1264.834595,1990.550659 1269.154419,1960.120361 
	C1272.567505,1936.077271 1273.418823,1911.866821 1271.503784,1887.881104 
	C1269.366577,1861.114380 1265.119385,1834.439941 1260.377441,1807.978516 
	C1255.332642,1779.825317 1247.192505,1752.397949 1236.207275,1725.898560 
	C1230.106567,1711.181641 1224.378540,1696.299561 1217.884888,1681.758911 
	C1210.026855,1664.163574 1201.649902,1646.795776 1193.275024,1629.436890 
	C1188.750366,1620.058472 1183.762207,1610.903442 1178.720093,1601.138184 
	C1184.119873,1600.843994 1189.291260,1600.562256 1195.125366,1600.244385 
	C1193.779785,1611.017822 1199.883423,1618.119751 1206.092285,1625.145752 
	C1219.233521,1640.016357 1228.667114,1657.257080 1236.930176,1675.057983 
	C1246.360229,1695.373169 1255.684814,1715.822266 1263.368408,1736.829956 
	C1267.650391,1748.537476 1268.521973,1761.495483 1270.894897,1773.896851 
	C1272.673828,1783.193848 1274.014282,1792.593872 1276.234497,1801.782715 
	C1279.399170,1814.879517 1287.321655,1823.354858 1301.187378,1825.620239 
	C1307.127686,1826.590820 1312.519531,1826.019165 1317.115479,1821.977905 
	C1326.879639,1813.392456 1332.936401,1803.452881 1330.209839,1789.562744 
	C1326.529541,1770.813721 1324.126099,1751.791504 1319.852661,1733.190186 
	C1317.158691,1721.463745 1312.416138,1710.145752 1307.930420,1698.908691 
	C1302.019043,1684.099609 1295.452271,1669.552246 1289.198120,1654.879150 
	C1288.951172,1654.299683 1289.021851,1653.584717 1289.141602,1652.578857 
	C1289.338501,1652.224731 1289.388550,1652.260864 1289.388550,1652.260864 
z"/>
<path fill="#E51938" opacity="1.000000" stroke="none" 
	d="
M589.776611,1244.221436 
	C613.909546,1253.088013 638.087280,1255.663452 663.176575,1250.714600 
	C683.674072,1246.671387 703.553101,1241.056885 722.472168,1232.161987 
	C723.203308,1231.818115 723.973633,1231.557373 724.998657,1231.149170 
	C725.943787,1232.438965 726.866333,1233.573242 727.655457,1234.793701 
	C743.869873,1259.868530 765.847656,1278.551514 792.055969,1292.393921 
	C811.914734,1302.882446 833.271057,1306.802979 855.649292,1306.677979 
	C875.927917,1306.564697 895.717285,1304.286743 913.013672,1292.993408 
	C941.435669,1274.435791 957.398926,1248.609863 958.444275,1213.817993 
	C959.032104,1194.254761 957.429749,1175.330444 950.054138,1156.729370 
	C962.642395,1154.139038 974.906555,1151.533203 987.206299,1149.107544 
	C999.119019,1146.758545 1011.058167,1144.538940 1023.004211,1142.364258 
	C1035.356567,1140.115356 1043.263428,1132.909058 1045.369873,1120.642578 
	C1047.554443,1107.922119 1042.626831,1094.478027 1026.973267,1090.987183 
	C1015.908386,1088.519897 1005.202209,1090.422119 994.366516,1092.596924 
	C975.474243,1096.388672 956.566101,1100.212891 937.523315,1103.087280 
	C930.093933,1104.208496 922.281433,1102.592285 914.645630,1102.632446 
	C911.071594,1102.651367 907.516541,1103.788330 903.925476,1104.130493 
	C902.185242,1104.296387 899.761169,1104.472778 898.702209,1103.497925 
	C886.965576,1092.693359 876.997864,1080.824219 872.426270,1064.878174 
	C867.989441,1049.401855 868.243286,1033.953857 870.405884,1018.392151 
	C874.602966,988.190918 886.295776,960.686218 903.216614,935.682312 
	C911.446777,923.520569 922.316956,913.134155 932.151611,902.086060 
	C933.195129,900.913818 935.338928,900.079468 936.929626,900.143860 
	C945.017944,900.470886 951.657593,896.565125 954.847168,890.208679 
	C963.205994,873.550293 979.014282,866.741455 994.035522,859.520020 
	C1012.089478,850.840637 1030.756226,843.028870 1049.845459,837.029907 
	C1067.192139,831.578369 1085.342651,828.312622 1103.357910,825.471802 
	C1119.405151,822.941345 1135.732422,821.457947 1151.972534,821.080566 
	C1168.706299,820.691772 1185.561523,821.421509 1202.221436,823.085327 
	C1220.050659,824.865906 1237.893799,827.465515 1255.411743,831.203125 
	C1289.790527,838.538208 1322.109375,851.419556 1352.352661,869.553955 
	C1386.017944,889.740112 1415.703247,914.667297 1438.849854,946.247559 
	C1452.845703,965.342834 1464.344360,986.409485 1475.634277,1007.309326 
	C1488.266846,1030.694824 1501.187378,1053.774292 1520.311157,1072.508301 
	C1542.087891,1093.841187 1568.450562,1103.400635 1598.965210,1100.256958 
	C1606.529541,1099.477783 1614.110474,1098.021606 1621.442139,1096.000366 
	C1635.241455,1092.195923 1645.656860,1083.382812 1652.850708,1071.295044 
	C1655.011353,1067.664673 1655.345459,1062.296021 1654.910522,1057.882080 
	C1652.759521,1036.061279 1628.940674,1025.151978 1610.909546,1037.443481 
	C1592.027954,1050.314697 1568.338013,1046.798828 1553.232300,1029.202393 
	C1539.345337,1013.025452 1529.532837,994.340454 1519.293457,975.858032 
	C1509.543701,958.259460 1499.742676,940.654907 1489.052612,923.625244 
	C1483.073608,914.100281 1475.873901,905.136536 1468.109009,896.981750 
	C1453.442871,881.579590 1438.473145,866.388977 1422.699951,852.139404 
	C1405.470093,836.574036 1385.641479,824.344360 1364.929688,814.032166 
	C1345.183838,804.200989 1324.944580,795.134949 1304.287476,787.435608 
	C1289.262817,781.835754 1273.204956,779.007507 1257.607056,774.945984 
	C1256.011108,774.530334 1254.410889,774.131104 1253.223145,773.828735 
	C1253.223145,764.414551 1252.887329,755.278564 1253.287231,746.174866 
	C1254.409668,720.623535 1263.176392,697.397705 1276.152344,675.726807 
	C1290.821533,651.228699 1310.021851,630.863037 1334.121948,615.379211 
	C1345.167358,608.282715 1356.199097,601.056213 1367.796143,594.950745 
	C1388.265137,584.174377 1410.411377,579.112244 1433.501099,578.513550 
	C1441.309937,578.311035 1449.139648,579.083496 1456.961304,579.125000 
	C1460.761475,579.145142 1464.583740,578.647095 1468.363647,578.141602 
	C1479.199097,576.692566 1485.006348,569.864075 1487.538330,559.747070 
	C1490.218506,549.037659 1489.422241,539.476501 1479.892578,531.823730 
	C1472.553833,525.930359 1464.465210,522.774963 1455.243164,522.259277 
	C1431.526367,520.932922 1407.844604,521.494385 1384.821289,527.747009 
	C1351.953369,536.673157 1322.760498,553.143494 1295.511353,573.298035 
	C1273.741211,589.400085 1255.075439,608.547485 1239.933105,630.931335 
	C1221.664429,657.937195 1208.503174,687.354919 1202.627319,719.513000 
	C1200.006226,733.858459 1199.723877,748.630981 1198.371216,763.208801 
	C1198.280884,764.182739 1198.115601,765.149719 1197.923340,766.579285 
	C1104.660645,761.821350 1016.055115,776.806396 936.667725,827.470459 
	C928.538513,821.448975 921.267029,814.539917 912.706177,810.139221 
	C903.693970,805.506531 893.650085,802.362122 883.704102,800.165161 
	C857.144104,794.298279 830.296570,797.391785 803.622131,799.564880 
	C783.572144,801.198242 763.568848,803.757751 743.664185,806.710510 
	C727.241821,809.146790 710.995056,812.765686 694.668518,815.850769 
	C694.031433,815.971191 693.375183,815.990051 692.875366,816.041077 
	C695.054688,802.379333 697.222107,788.791931 699.402405,775.123657 
	C701.935364,776.447083 704.659607,777.686462 707.197266,779.232178 
	C713.830811,783.272461 720.626831,783.181152 727.174133,779.546692 
	C745.397217,769.430786 751.861572,755.670532 738.709595,735.646362 
	C730.408691,723.008118 720.133728,710.843079 706.034546,703.928528 
	C698.090759,700.032837 696.488220,694.001099 694.779175,686.513062 
	C691.341492,671.451782 687.048157,656.576111 682.803650,641.710754 
	C674.925781,614.120361 669.757812,586.061646 666.979065,557.502625 
	C665.020142,537.369690 664.551819,517.218811 667.284485,497.233337 
	C670.020264,477.225616 675.171265,457.658875 686.346252,440.454590 
	C702.440552,415.676910 725.492493,401.963745 754.805847,397.989441 
	C779.875488,394.590515 803.103027,400.922821 824.518921,412.401184 
	C844.965393,423.359924 866.559998,428.491882 888.966003,432.116699 
	C899.626953,433.841431 910.114319,436.633270 920.770508,438.396484 
	C925.278503,439.142456 930.140930,439.150482 934.628174,438.327148 
	C944.116760,436.586243 952.915771,426.599060 954.026428,417.307953 
	C955.574097,404.361450 951.904480,395.755188 941.035889,390.810242 
	C933.392334,387.332611 925.113647,384.959961 916.889587,383.114563 
	C903.271240,380.058685 889.321716,378.409607 875.800537,375.016663 
	C868.197693,373.108856 861.016479,369.208466 853.917419,365.661194 
	C828.274658,352.847931 801.144592,344.481384 772.642639,343.347961 
	C725.295654,341.465088 684.205566,356.427368 652.723328,393.445984 
	C651.322632,395.092987 649.874329,396.700073 648.422546,398.302521 
	C648.213135,398.533691 647.858582,398.633392 647.106079,399.053802 
	C645.285950,395.396729 643.601196,391.688202 641.641785,388.131012 
	C633.376282,373.126129 624.884460,358.244019 616.767639,343.159790 
	C612.201538,334.674377 608.192566,325.888519 603.953918,317.227631 
	C592.831848,294.501831 578.636719,273.876465 561.605835,255.184082 
	C561.163513,254.698654 560.817139,254.125809 560.417175,253.581604 
	C572.214417,238.384506 587.357544,227.309036 603.867371,218.115067 
	C614.454712,212.219223 625.325317,206.656479 636.534851,202.087158 
	C667.946289,189.282990 700.113770,180.119308 734.579041,179.505707 
	C760.035278,179.052475 785.033813,181.976181 810.181152,184.705750 
	C839.081909,187.842697 867.139221,194.386307 894.687317,203.422455 
	C894.975159,203.516861 895.186035,203.845978 895.402039,204.038162 
	C890.353149,209.204605 885.452454,214.523987 880.230896,219.507156 
	C862.600159,236.332901 848.811646,256.111572 836.549500,276.954987 
	C834.298645,280.780914 833.515808,286.344299 834.129089,290.821625 
	C836.176270,305.767975 841.382568,313.746613 852.510376,316.577423 
	C867.737976,320.451111 878.504944,316.523163 886.184143,304.121826 
	C899.136963,283.203491 913.980896,263.798645 932.558777,247.562988 
	C942.651489,238.742767 952.312500,229.093536 965.677002,224.925369 
	C967.373047,224.396423 969.066284,223.344513 970.356567,222.111786 
	C978.851501,213.995865 989.435181,209.635284 999.913879,204.868713 
	C1024.567993,193.653992 1050.140503,185.295898 1076.812866,180.958221 
	C1094.742920,178.042282 1112.870728,178.245728 1131.014893,181.124603 
	C1152.171265,184.481400 1172.844604,189.237411 1191.847778,199.304535 
	C1197.432373,202.263031 1201.960571,207.246597 1206.861206,211.432892 
	C1207.634399,212.093414 1208.122925,213.424011 1208.215332,214.490524 
	C1208.858398,221.906555 1212.315308,227.931793 1217.859863,232.535233 
	C1224.994995,238.459396 1226.344849,247.138916 1228.677612,255.053528 
	C1232.667725,268.591431 1235.425659,282.494263 1238.650391,296.255676 
	C1246.976562,331.786835 1256.299805,367.001801 1274.114380,399.227203 
	C1280.698364,411.137360 1288.114258,422.587616 1295.734619,435.215210 
	C1288.042480,435.215210 1280.690186,435.140869 1273.339722,435.229065 
	C1250.707031,435.500610 1228.074097,436.115540 1205.442749,436.057129 
	C1186.472290,436.008179 1167.494873,435.419708 1148.537109,434.659424 
	C1134.079102,434.079559 1119.647705,432.842957 1105.202393,431.931244 
	C1102.383179,431.753326 1100.745361,430.782593 1100.200317,427.604889 
	C1094.575439,394.810944 1082.383667,364.611542 1063.197876,337.438446 
	C1054.859741,325.628906 1045.776489,314.305603 1036.477295,303.226715 
	C1028.760986,294.033600 1010.037476,291.901825 1000.559570,298.376099 
	C989.940552,305.629913 986.421509,320.159943 992.981689,332.747345 
	C996.183411,338.890778 1000.574219,344.454620 1004.739380,350.048065 
	C1015.967102,365.125549 1028.023315,379.710480 1035.210571,397.313293 
	C1039.160034,406.986053 1042.270752,417.020477 1045.310791,427.028168 
	C1045.877441,428.893829 1045.005615,432.081116 1043.617310,433.517090 
	C1031.875122,445.661957 1031.838379,456.316772 1041.929810,471.725769 
	C1042.974609,473.321075 1043.366089,476.150513 1042.721802,477.919830 
	C1036.988037,493.667603 1027.417480,506.776337 1015.653137,518.728882 
	C996.786926,537.896912 973.616882,549.144897 948.244690,555.702209 
	C936.018982,558.861877 922.910889,558.741577 910.169556,559.643311 
	C907.966553,559.799194 905.460205,557.853821 903.337646,556.497620 
	C899.159058,553.827576 895.410339,550.371887 891.016479,548.176575 
	C883.120422,544.231384 875.384949,545.791748 868.445862,550.867432 
	C865.109558,553.307739 861.990540,553.150757 858.184875,552.212769 
	C831.155029,545.550415 808.164917,530.948059 785.295166,515.936340 
	C780.103271,512.528381 774.200867,509.734497 768.231995,508.062073 
	C745.783142,501.772217 732.487732,520.820984 737.719910,539.886963 
	C740.815735,551.167786 748.975342,557.926270 758.089111,564.138428 
	C778.921082,578.338013 800.558228,591.079102 824.460876,599.339050 
	C836.367249,603.453491 848.697327,606.377869 860.919067,609.516357 
	C863.664185,610.221252 865.083984,611.308105 866.170898,613.881958 
	C879.158630,644.638123 897.530701,671.783325 921.475830,695.056335 
	C937.829834,710.951233 956.707520,723.370422 977.005432,733.577026 
	C988.276978,739.244934 999.890747,744.237305 1011.391174,749.443787 
	C1020.195740,753.429749 1029.037842,753.381897 1038.054565,749.812866 
	C1053.157227,743.834778 1058.466064,727.916260 1049.753052,714.132935 
	C1044.048218,705.108215 1035.152954,700.305115 1025.858521,695.993225 
	C1014.100952,690.538513 1001.953613,685.755188 990.724365,679.364380 
	C964.678467,664.540833 942.772766,645.215027 928.816528,618.033813 
	C928.449463,617.318909 928.114502,616.587341 927.851868,616.044067 
	C1008.773438,605.849854 1069.854614,569.445496 1098.941650,489.304871 
	C1115.257690,490.084045 1132.353882,491.138275 1149.466431,491.650238 
	C1166.263184,492.152740 1183.076660,492.092529 1199.882446,492.307312 
	C1203.209839,492.349854 1206.537109,492.648071 1209.861938,492.610596 
	C1239.836060,492.272736 1269.809448,491.632019 1299.783569,491.608978 
	C1317.921997,491.595062 1336.099365,491.943726 1354.192017,493.143066 
	C1386.632568,495.293457 1418.540527,500.811768 1449.147339,512.136536 
	C1463.968018,517.620239 1478.104492,524.537170 1490.973511,534.088928 
	C1506.219604,545.405151 1520.314575,557.901001 1530.410400,573.934875 
	C1536.350708,583.369202 1540.806641,594.032104 1544.220825,604.690002 
	C1548.670776,618.581177 1543.488281,631.026245 1534.323608,641.578857 
	C1524.134766,653.310730 1510.348877,659.912292 1496.397339,665.885010 
	C1483.427490,671.437561 1470.327637,676.755310 1457.029541,681.453369 
	C1443.096191,686.375977 1428.824951,690.333435 1414.764526,694.907043 
	C1402.161255,699.006714 1389.124268,702.130127 1380.730225,714.111450 
	C1371.419067,727.401855 1378.072266,748.982239 1393.458008,754.350769 
	C1396.159424,755.293274 1398.698364,756.963684 1401.017212,758.693726 
	C1409.979126,765.380188 1419.376099,764.749084 1429.462769,761.532227 
	C1446.865479,755.982178 1464.240479,750.040527 1482.036987,746.126038 
	C1496.564331,742.930603 1511.651978,741.778992 1526.559570,740.947693 
	C1543.965454,739.976990 1561.474609,739.599121 1578.887085,740.282532 
	C1610.665405,741.529602 1640.880493,749.433228 1669.363403,763.853943 
	C1689.887451,774.245117 1708.444824,787.225769 1724.647217,803.606323 
	C1745.747681,824.938599 1754.130981,849.931885 1747.720703,879.670166 
	C1742.840698,902.309387 1733.039795,923.062561 1723.826904,944.037170 
	C1712.665039,969.448608 1699.891968,994.207886 1693.307373,1021.415833 
	C1688.260986,1042.267456 1688.124268,1063.115112 1691.825684,1084.302979 
	C1696.666260,1112.013428 1706.929810,1137.546387 1722.550171,1160.566040 
	C1739.773926,1185.948608 1762.399658,1205.779785 1789.258545,1221.130127 
	C1818.135620,1237.633911 1848.949463,1249.549683 1879.540161,1262.104370 
	C1888.778809,1265.895996 1897.886719,1270.052124 1907.280762,1273.408325 
	C1923.360352,1279.152954 1937.629761,1272.996826 1945.047974,1258.358765 
	C1951.748291,1245.137085 1946.462158,1232.997681 1935.081543,1224.976196 
	C1929.059204,1220.731445 1921.857300,1218.023071 1914.955688,1215.186157 
	C1881.744629,1201.535645 1847.760620,1189.515015 1816.541260,1171.532837 
	C1786.710449,1154.350342 1763.891113,1130.520630 1752.023315,1097.472656 
	C1742.403320,1070.684204 1741.437744,1043.550293 1751.750977,1016.936890 
	C1760.210815,995.106018 1770.185059,973.851074 1779.804199,952.483093 
	C1791.531738,926.431335 1801.500488,899.820679 1804.554565,871.224609 
	C1807.979004,839.161316 1798.551025,810.397827 1780.451782,784.167725 
	C1767.349854,765.180054 1750.900879,749.601074 1732.388184,735.921875 
	C1708.857788,718.535034 1683.002319,705.856445 1655.406128,696.590332 
	C1633.724365,689.310059 1611.357422,685.364929 1588.534302,683.942688 
	C1582.586182,683.572021 1576.651367,682.988708 1570.197754,682.461182 
	C1573.866455,677.820740 1577.457153,673.393066 1580.926025,668.871887 
	C1597.120239,647.764648 1604.615479,623.960571 1599.633545,597.695129 
	C1597.284058,585.307922 1592.207153,573.178040 1586.759155,561.693787 
	C1576.176392,539.386047 1561.048340,520.473755 1542.765137,503.584198 
	C1525.111694,487.276398 1505.400146,474.625793 1483.745972,465.025269 
	C1461.983765,455.376892 1439.147705,448.531708 1415.742676,444.008026 
	C1402.204346,441.391357 1388.474609,439.776184 1374.870117,437.479004 
	C1372.559448,437.088837 1370.136719,435.917419 1368.290771,434.447540 
	C1352.044434,421.511414 1340.110229,405.090759 1329.187012,387.553711 
	C1311.025391,358.394989 1300.998047,326.456787 1293.783936,293.246307 
	C1289.204590,272.165405 1283.521240,251.324326 1278.135620,229.578644 
	C1288.076538,227.859360 1298.281616,225.662674 1308.600830,224.393585 
	C1335.685791,221.062622 1362.613525,223.873108 1388.925415,229.835907 
	C1417.282349,236.262146 1444.497070,246.562744 1471.122559,258.503876 
	C1492.871338,268.257904 1514.064941,278.901123 1533.969482,291.953461 
	C1563.752686,311.483643 1590.357544,334.864288 1614.748291,360.737152 
	C1622.274292,368.720306 1629.106201,377.381683 1635.900269,386.012421 
	C1637.397583,387.914581 1638.103027,391.049561 1637.949463,393.541473 
	C1637.053467,408.086426 1640.754028,420.588837 1657.915527,425.380859 
	C1660.287598,426.043152 1662.900635,428.224670 1664.076050,430.414581 
	C1673.921021,448.756042 1682.637451,467.615143 1688.594482,487.633392 
	C1691.960327,498.944031 1695.193359,510.294373 1698.587891,521.596313 
	C1702.846680,535.775513 1717.731201,545.812805 1730.442139,543.184937 
	C1741.068604,540.988037 1749.787842,531.895874 1750.892944,520.076904 
	C1751.512085,513.455750 1751.023560,506.352631 1749.256714,499.957764 
	C1743.953979,480.765686 1737.777466,461.815002 1731.842163,442.444489 
	C1735.252563,443.486420 1739.044434,444.751007 1742.894287,445.803101 
	C1761.421021,450.865967 1779.351807,457.519043 1795.785034,467.509644 
	C1812.434570,477.631744 1826.352661,490.764160 1837.711914,506.789154 
	C1854.704590,530.761597 1867.543091,556.572998 1871.364624,585.838379 
	C1874.033447,606.276123 1874.532104,627.003113 1875.831421,647.611572 
	C1876.659180,660.738770 1877.225098,673.883484 1877.795654,687.025208 
	C1877.901367,689.458435 1877.469238,691.915039 1877.255981,694.752197 
	C1872.082397,693.021423 1867.429321,691.444946 1862.763550,689.907288 
	C1841.632690,682.943420 1820.552856,675.817505 1799.341675,669.106934 
	C1788.791748,665.769348 1772.208374,671.686157 1766.524780,680.135315 
	C1755.591309,696.388977 1763.166016,717.329956 1781.853516,723.028015 
	C1800.130493,728.600952 1818.745483,733.386963 1836.458740,740.416382 
	C1869.033569,753.343445 1902.344482,764.734741 1932.703369,782.776550 
	C1946.354858,790.889465 1957.552002,801.703064 1967.738770,813.679932 
	C1974.415405,821.529968 1981.970825,828.886108 1987.251221,837.603210 
	C1993.214844,847.448120 1997.721436,858.330078 2001.719971,869.181763 
	C2013.255615,900.487915 2012.767578,932.860962 2008.473267,965.306030 
	C2006.647583,979.099731 2004.330200,992.938477 2000.771851,1006.368713 
	C1994.289551,1030.835938 1980.289429,1050.846069 1961.484375,1067.635010 
	C1949.902222,1077.975342 1938.044922,1088.016235 1923.497925,1093.864014 
	C1911.479004,1098.695679 1899.035522,1102.463257 1886.848633,1106.890747 
	C1882.811768,1108.357422 1878.607910,1109.868530 1875.138672,1112.298950 
	C1865.251343,1119.225342 1861.866211,1134.727661 1867.148315,1146.656006 
	C1871.623047,1156.761597 1883.372070,1162.482300 1895.792969,1159.320068 
	C1927.244629,1151.312500 1957.643188,1140.740234 1983.335938,1119.853516 
	C1983.964233,1119.343018 1984.641602,1118.892700 1986.303711,1117.677856 
	C1987.049438,1130.460327 1988.027344,1142.405151 1988.371216,1154.368286 
	C1988.772827,1168.345093 1989.107910,1182.355591 1988.603760,1196.320068 
	C1987.673950,1222.065430 1983.061401,1247.126587 1974.251953,1271.491455 
	C1968.166626,1288.322510 1960.811523,1304.432739 1951.531982,1319.675903 
	C1936.674927,1344.081177 1917.369873,1364.014160 1892.709717,1378.791138 
	C1876.700806,1388.383911 1859.899292,1396.001709 1841.556763,1399.136719 
	C1830.682007,1400.995361 1819.420776,1400.912354 1808.324951,1401.056396 
	C1799.399658,1401.172363 1790.392578,1400.877319 1781.542480,1399.786133 
	C1758.033447,1396.887451 1735.259399,1390.836792 1715.843140,1376.864258 
	C1706.559570,1370.183594 1696.724976,1361.876953 1691.916260,1351.984863 
	C1686.116333,1340.054199 1675.595825,1332.522339 1669.509766,1321.193359 
	C1663.079346,1309.223389 1655.420044,1297.724121 1646.958374,1287.084351 
	C1637.059937,1274.638062 1626.331177,1262.695068 1614.817627,1251.736572 
	C1604.144043,1241.577515 1592.399048,1232.383179 1580.339966,1223.878174 
	C1562.456665,1211.265137 1543.313965,1200.719604 1521.194092,1197.598267 
	C1505.471558,1195.379761 1490.349365,1198.878784 1475.915161,1204.980103 
	C1467.091553,1208.709961 1458.361572,1228.981567 1462.434937,1238.939209 
	C1467.845947,1252.167114 1481.550049,1260.546753 1495.088623,1257.765259 
	C1495.251709,1257.731934 1495.421387,1257.704346 1495.571167,1257.636841 
	C1513.543945,1249.530151 1528.831665,1256.562622 1543.771729,1266.046265 
	C1573.035645,1284.621826 1597.517334,1307.880249 1614.971558,1338.114502 
	C1616.461304,1340.694702 1618.250122,1343.102539 1620.205444,1346.051147 
	C1614.628052,1348.969849 1609.430664,1352.190552 1603.859619,1354.515869 
	C1582.529907,1363.418457 1560.965332,1371.401489 1537.994385,1375.484497 
	C1516.794189,1379.252563 1495.649292,1379.992065 1474.356689,1377.866211 
	C1443.633301,1374.798462 1415.038818,1365.384277 1388.471436,1349.392334 
	C1372.794189,1339.955566 1358.231934,1329.197144 1345.835815,1315.879639 
	C1328.530273,1297.287598 1319.770386,1274.806030 1318.640503,1249.438965 
	C1316.649414,1204.740234 1333.414307,1167.415039 1363.463379,1135.215576 
	C1381.438843,1115.953735 1402.905151,1101.006104 1423.897461,1085.461060 
	C1432.807495,1078.862915 1439.512329,1070.921265 1441.002441,1059.577881 
	C1442.423340,1048.760742 1436.626099,1041.037842 1428.351440,1035.842773 
	C1419.436401,1030.245605 1409.784058,1029.549316 1400.188110,1035.958130 
	C1366.234497,1058.634644 1334.454224,1083.789673 1309.127808,1116.159546 
	C1293.118530,1136.620972 1280.502075,1159.283081 1272.938110,1184.078125 
	C1262.549072,1218.134277 1259.346191,1252.929688 1268.920532,1287.927124 
	C1276.649780,1316.180176 1291.079102,1340.663208 1312.275024,1360.832520 
	C1322.233765,1370.308838 1333.277954,1378.644409 1343.828003,1387.499390 
	C1344.823486,1388.334839 1345.803711,1389.188477 1347.017822,1390.228027 
	C1334.175903,1396.643433 1320.945068,1400.694336 1307.256592,1403.285400 
	C1288.157349,1406.900635 1269.158447,1411.651611 1249.883179,1413.572388 
	C1227.902710,1415.762817 1205.649658,1416.287109 1183.543579,1415.901611 
	C1148.598511,1415.292114 1113.655396,1413.714111 1078.754639,1411.770264 
	C1059.998291,1410.725586 1041.331787,1408.067749 1022.626038,1406.124878 
	C1021.708923,1406.029663 1020.804688,1405.810547 1018.313538,1405.368652 
	C1023.911743,1402.319092 1028.285278,1400.157104 1032.441650,1397.637085 
	C1061.111816,1380.254883 1089.056641,1361.690918 1112.694092,1337.779541 
	C1126.679932,1323.631470 1139.197754,1307.921509 1151.435303,1292.182739 
	C1168.876221,1269.751709 1180.585449,1244.203613 1188.781860,1217.091553 
	C1195.121216,1196.121948 1197.903442,1174.619873 1198.493408,1152.676392 
	C1198.927856,1136.515625 1196.010132,1120.916870 1193.422485,1105.186157 
	C1193.181274,1103.719971 1192.804810,1102.155884 1193.069214,1100.745483 
	C1195.794556,1086.213013 1197.971436,1071.532715 1201.616089,1057.228638 
	C1206.400879,1038.449341 1215.332886,1021.550598 1228.519775,1007.149170 
	C1236.940308,997.953247 1245.713867,989.078369 1254.061157,979.817932 
	C1261.025757,972.091431 1268.361572,963.981873 1265.074951,952.426331 
	C1259.599243,933.174683 1245.753418,924.287292 1229.899902,931.154541 
	C1224.005371,933.708008 1219.033081,938.704285 1214.093994,943.096985 
	C1189.611450,964.871033 1170.935547,990.931641 1157.461670,1021.507324 
	C1153.509155,1017.031555 1149.811523,1013.044495 1146.334961,1008.873108 
	C1131.041504,990.522827 1111.878662,977.678772 1089.689453,969.270935 
	C1067.621948,960.909119 1045.020996,958.073425 1021.590698,962.749573 
	C1009.326050,965.197327 996.779419,966.667603 986.381714,974.326599 
	C981.080505,978.231506 975.749207,982.460388 971.608643,987.508362 
	C958.694580,1003.252319 968.012695,1022.165955 985.509277,1026.979614 
	C995.122314,1029.624390 1004.090576,1028.022583 1012.835266,1022.966553 
	C1028.523193,1013.896118 1045.325439,1011.637634 1062.658813,1017.428833 
	C1083.674561,1024.450317 1099.453125,1038.238525 1111.761597,1056.444580 
	C1134.296265,1089.776123 1143.860229,1126.676758 1141.773682,1166.576294 
	C1140.884521,1183.577881 1136.374634,1200.021240 1130.509155,1215.996460 
	C1118.230713,1249.437622 1096.839722,1276.689331 1071.304688,1300.778076 
	C1042.504517,1327.947021 1009.438843,1348.972534 973.817627,1366.141113 
	C953.837219,1375.771240 933.272766,1383.821655 911.958313,1389.834839 
	C876.697571,1399.782471 840.969116,1407.535522 804.292236,1409.737915 
	C784.038757,1410.954224 763.736023,1411.397095 743.450439,1412.023560 
	C717.071960,1412.838135 690.919128,1410.226685 664.878357,1406.338257 
	C628.692627,1400.934570 593.806519,1390.816406 559.700500,1377.660400 
	C540.048950,1370.079956 521.712097,1360.154663 503.841675,1349.149780 
	C484.773315,1337.407349 468.353180,1322.595459 454.567047,1305.179199 
	C445.327087,1293.506226 437.055298,1280.888184 429.761841,1267.900391 
	C421.492737,1253.175415 413.848785,1237.933472 407.761047,1222.208618 
	C403.816681,1212.020020 403.023926,1200.585938 401.065857,1189.665649 
	C400.190887,1184.786011 399.468445,1179.793091 399.520233,1174.860352 
	C399.562744,1170.809692 400.458496,1166.650757 401.659363,1162.750244 
	C406.251160,1147.835693 410.636230,1132.829834 415.982330,1118.180664 
	C427.841705,1085.683960 444.417145,1056.036499 471.956055,1034.048584 
	C484.997772,1023.635681 499.306030,1014.333984 516.638611,1013.837646 
	C526.239929,1013.562561 536.411865,1015.007385 545.471252,1018.145813 
	C560.168152,1023.237366 574.446716,1029.790405 588.376038,1036.775024 
	C603.635254,1044.426514 616.237793,1055.991699 629.264954,1066.909302 
	C654.382019,1087.958984 671.639160,1114.345581 683.852722,1144.435059 
	C687.723694,1153.971802 692.333496,1163.207275 696.529907,1172.614136 
	C697.803101,1175.468262 698.823792,1178.435181 700.208862,1181.988525 
	C693.064819,1184.633911 686.421265,1187.767578 679.432251,1189.536499 
	C666.426575,1192.828491 653.339600,1196.412476 640.066040,1197.876465 
	C623.731995,1199.677734 607.982910,1195.313599 593.230286,1188.204346 
	C583.805481,1183.662476 574.872070,1178.101807 565.451721,1173.549683 
	C560.427246,1171.121582 554.955627,1169.192139 549.476196,1168.223145 
	C538.640747,1166.306885 530.570251,1171.227539 524.771301,1181.478394 
	C518.750122,1192.122070 518.779480,1201.307495 526.453186,1209.782715 
	C529.962952,1213.658936 534.234375,1217.064209 538.692322,1219.823730 
	C554.702087,1229.734619 571.430847,1238.244507 589.776611,1244.221436 
z"/>
<path fill="#E51938" opacity="1.000000" stroke="none" 
	d="
M294.697449,485.076782 
	C315.162933,487.933441 332.448975,496.636688 348.056702,509.195312 
	C367.516998,524.853760 380.414642,545.080261 390.051910,567.791809 
	C393.220612,575.259277 396.921753,582.610718 401.276001,589.443909 
	C412.988831,607.825073 436.872864,603.076843 446.922760,586.926880 
	C451.052704,580.290161 450.267609,572.547607 447.361725,565.659729 
	C436.247070,539.314392 424.809357,513.310974 406.192932,490.830170 
	C382.312469,461.992615 352.487427,443.062195 317.025360,432.556885 
	C309.483887,430.322815 301.359894,430.055176 293.543365,428.887421 
	C298.433105,419.227692 302.690460,409.093323 308.418091,399.872223 
	C319.297028,382.357819 330.101593,364.666809 342.590698,348.311859 
	C364.483185,319.642822 390.121399,294.650696 422.674713,278.071320 
	C438.835419,269.840668 456.264008,265.221222 474.652985,266.541412 
	C486.182281,267.369141 496.815491,270.852478 504.626984,280.221191 
	C505.572083,281.354706 506.737732,282.491943 508.045898,283.106506 
	C522.837097,290.055359 531.410767,303.257324 539.792664,316.097778 
	C548.853821,329.978729 556.316895,344.906219 564.409851,359.414734 
	C571.614380,372.330566 578.938599,385.186523 585.814758,398.276550 
	C591.527039,409.151001 596.822571,420.253967 602.002136,431.395447 
	C605.581055,439.093567 609.419067,446.298004 617.837402,449.859833 
	C618.853699,450.289856 619.938049,452.901520 619.544434,453.968628 
	C613.969177,469.085052 611.513184,484.905365 610.145752,500.749634 
	C608.891968,515.278076 608.458313,530.048462 609.557556,544.568848 
	C611.238403,566.769775 613.765076,588.977478 617.415283,610.935852 
	C620.298462,628.279602 625.272949,645.287903 629.583008,662.378418 
	C632.794617,675.113037 636.442505,687.737305 639.855408,700.421692 
	C640.234863,701.832153 640.347839,703.314331 640.693970,705.434448 
	C622.422791,712.309387 604.540649,720.083374 586.011414,725.736755 
	C564.431396,732.320862 542.490784,738.188904 520.313782,742.189941 
	C505.077118,744.938782 489.152710,744.776611 473.570068,744.418945 
	C461.330353,744.138062 448.903564,742.579163 436.992645,739.759705 
	C421.694702,736.138550 406.679993,731.112122 391.834137,725.867737 
	C382.785828,722.671387 374.102264,718.273987 365.574707,713.805603 
	C345.420563,703.245056 326.193298,691.127197 311.763245,673.186218 
	C303.252563,662.604736 296.233032,650.817627 288.643860,639.505005 
	C286.236603,635.916565 284.181610,632.093262 281.920593,628.404968 
	C271.291595,611.066223 249.944702,613.368652 238.808212,628.193115 
	C230.906723,638.711243 229.924576,649.714661 236.957657,661.215393 
	C250.862061,683.952454 264.520660,706.856140 283.888275,725.152649 
	C267.458740,752.313232 255.179123,780.903564 250.724548,812.273804 
	C247.232697,836.864441 250.223572,861.072571 258.214203,884.614624 
	C262.992126,898.691467 268.521759,912.519043 277.667938,924.334106 
	C283.846558,932.315735 290.745361,939.913269 298.237976,946.666382 
	C311.774506,958.866943 327.162170,968.436829 343.982452,975.623352 
	C356.720673,981.065796 371.527405,977.354004 379.636597,966.083191 
	C381.467133,963.539062 382.692017,960.014160 382.819824,956.884583 
	C383.365326,943.527161 379.179596,932.384827 366.735229,925.496643 
	C358.597595,920.992371 350.579681,916.269714 342.547577,911.577332 
	C325.324951,901.515808 314.633789,886.547241 308.870361,867.587769 
	C300.480652,839.988892 305.101105,813.621216 315.887085,787.823730 
	C319.913300,778.193909 324.632874,768.854004 329.134155,759.171387 
	C338.999298,763.997742 348.293701,768.772095 357.774719,773.141541 
	C388.519104,787.310364 420.708313,796.261658 454.378784,800.145386 
	C472.663452,802.254517 491.000824,803.242493 509.176514,800.862244 
	C526.773804,798.557617 544.224060,794.857605 561.580017,791.046936 
	C588.263977,785.187988 613.861511,775.824280 639.152222,765.612915 
	C639.727234,765.380737 640.379028,765.338745 641.552490,765.089783 
	C641.552490,770.982544 642.205383,776.635315 641.445435,782.091248 
	C636.877197,814.890015 621.656006,841.635010 596.936279,863.895752 
	C580.684204,878.531189 565.917908,894.938599 551.470276,911.415283 
	C540.733643,923.659912 531.688477,937.374817 526.385620,953.077942 
	C525.146973,956.745850 523.357849,958.111572 519.235535,958.000549 
	C504.225952,957.596313 490.211212,961.569519 476.123566,966.847900 
	C460.078033,972.859802 445.755859,981.412292 432.943420,992.220459 
	C408.834045,1012.558105 391.050079,1037.853882 376.775024,1065.982544 
	C364.325714,1090.513550 356.899750,1116.669312 348.666687,1142.659912 
	C344.515900,1155.763184 339.234070,1168.553711 333.725861,1181.163330 
	C330.782104,1187.902222 327.751099,1188.470459 320.753082,1185.705566 
	C296.321442,1176.051880 274.609344,1162.163574 255.615829,1143.973633 
	C240.487808,1129.485596 224.798248,1115.561646 210.094391,1100.660767 
	C200.423721,1090.860474 191.971161,1079.843994 183.151154,1069.224365 
	C178.588379,1063.730713 174.061935,1058.147217 170.133835,1052.198364 
	C160.978348,1038.332764 151.905624,1024.395508 143.334351,1010.165222 
	C132.639130,992.408508 126.478111,972.645691 119.115097,953.408752 
	C110.051849,929.729614 103.747856,905.307007 97.998726,880.676636 
	C92.017433,855.051636 87.364708,829.236877 84.917450,803.023499 
	C83.293633,785.630310 81.099380,768.284790 79.783356,750.870789 
	C79.160355,742.627075 79.205315,734.163391 80.337402,725.991882 
	C82.658592,709.237366 85.374077,692.496216 88.921425,675.962830 
	C93.843956,653.020142 103.698105,631.978882 115.553719,611.795715 
	C127.988037,590.627380 143.903320,572.204102 161.749802,555.719971 
	C182.753891,536.319275 204.514771,517.624695 229.377792,503.059753 
	C244.295074,494.321136 260.317810,488.410645 277.294556,485.408905 
	C282.789459,484.437378 288.577667,485.124817 294.697449,485.076782 
z"/>
<path fill="#E51938" opacity="1.000000" stroke="none" 
	d="
M832.969604,1107.970825 
	C846.767883,1129.574219 863.580994,1147.794312 884.615784,1161.975464 
	C887.096680,1163.647949 889.264282,1165.871338 891.894958,1167.218994 
	C899.066895,1170.892822 901.629944,1177.124512 902.766052,1184.581909 
	C904.833862,1198.153931 904.785522,1211.709839 899.598511,1224.443604 
	C891.301025,1244.813477 872.667786,1253.823975 849.252747,1251.715698 
	C823.276184,1249.376709 802.637695,1236.885498 784.216064,1219.856445 
	C779.300049,1215.312134 775.889404,1209.114258 771.963501,1203.551514 
	C771.373108,1202.715088 771.323120,1201.019653 771.740173,1200.020996 
	C778.361755,1184.166504 773.059204,1169.254028 757.252747,1163.983032 
	C749.718628,1161.470581 747.006042,1156.527710 744.353699,1150.484863 
	C736.803040,1133.282593 730.064514,1115.667236 721.543213,1098.960815 
	C708.323975,1073.043701 692.239807,1048.893188 669.461914,1030.198975 
	C652.899597,1016.605957 636.002197,1003.346191 618.507385,990.995789 
	C609.642212,984.737488 599.137085,980.795044 589.345642,975.860474 
	C586.249756,974.300232 583.064087,972.918091 579.802368,971.399902 
	C584.395203,958.500122 591.780334,947.638550 600.868042,938.155029 
	C614.432861,923.999573 628.741516,910.559875 642.568359,896.651306 
	C648.546448,890.637817 654.033325,884.138184 659.929321,878.039185 
	C661.143311,876.783386 663.167542,875.651428 664.846680,875.609985 
	C677.150574,875.306091 689.224060,874.360107 701.436096,871.838135 
	C725.164429,866.937866 749.143372,862.817505 773.214294,860.124634 
	C800.444458,857.078430 827.872559,855.635925 855.250366,854.160278 
	C865.536804,853.605835 875.838135,855.405579 885.465332,859.643433 
	C887.093994,860.360413 888.599792,861.356445 890.575562,862.452820 
	C888.101562,865.293701 886.123840,867.975830 883.742798,870.232483 
	C868.104614,885.053772 856.442444,902.874817 845.500183,921.176514 
	C832.951233,942.165466 823.850159,964.665649 818.670837,988.564270 
	C811.310425,1022.526245 810.822205,1056.292603 823.965149,1089.207153 
	C826.486572,1095.521606 829.838318,1101.504517 832.969604,1107.970825 
z"/>
<path fill="#E51B39" opacity="1.000000" stroke="none" 
	d="
M1333.664429,1586.489258 
	C1369.364502,1588.147095 1404.611694,1589.886475 1439.873535,1591.240723 
	C1460.825562,1592.045410 1481.807007,1592.806274 1502.764282,1592.577637 
	C1531.537842,1592.263794 1560.325928,1591.482178 1589.062622,1590.014648 
	C1629.143066,1587.967896 1668.949829,1583.336914 1708.183228,1574.530396 
	C1712.057007,1573.660889 1715.959839,1572.920288 1720.270386,1572.740479 
	C1718.375000,1574.040283 1716.542603,1575.445190 1714.574951,1576.624390 
	C1678.385132,1598.310059 1639.798462,1614.264893 1599.025269,1625.033813 
	C1568.694580,1633.044800 1537.858765,1638.259521 1506.636597,1640.747437 
	C1467.338623,1643.878540 1428.408569,1640.739624 1390.278809,1630.536621 
	C1372.003174,1625.646362 1353.823486,1620.136108 1336.071533,1613.622070 
	C1317.812256,1606.922241 1302.606567,1594.767700 1287.481201,1582.148193 
	C1302.726685,1583.568481 1317.972168,1584.988647 1333.664429,1586.489258 
z"/>
<path fill="#E51B39" opacity="1.000000" stroke="none" 
	d="
M1605.681641,1463.658447 
	C1511.193481,1473.263794 1417.535645,1469.432495 1324.010254,1455.221802 
	C1330.854370,1453.106934 1337.633667,1450.745605 1344.554932,1448.923584 
	C1364.866577,1443.576660 1383.421875,1434.327515 1401.324097,1423.641846 
	C1404.693970,1421.630371 1407.540405,1421.030518 1411.491211,1422.300049 
	C1440.203735,1431.525757 1469.721558,1436.290649 1499.862061,1436.096558 
	C1524.406494,1435.938477 1548.476440,1431.849243 1572.229492,1425.548828 
	C1598.932007,1418.465820 1623.715820,1406.827026 1648.253662,1394.551636 
	C1651.426514,1392.964478 1653.184692,1393.313965 1655.435669,1395.867188 
	C1669.546875,1411.873047 1685.917603,1425.090820 1704.802490,1435.100464 
	C1707.869141,1436.725952 1711.114136,1438.015259 1714.807007,1439.702148 
	C1708.881470,1441.757690 1703.529785,1444.144165 1697.926880,1445.464111 
	C1675.786499,1450.680542 1653.614624,1455.788452 1631.352783,1460.451294 
	C1623.088623,1462.182251 1614.544922,1462.578857 1605.681641,1463.658447 
z"/>
<path fill="#E61D3B" opacity="1.000000" stroke="none" 
	d="
M1819.873901,1478.755859 
	C1780.830811,1501.598511 1738.344604,1513.552612 1694.918213,1522.859375 
	C1666.386597,1528.973877 1637.510620,1532.562500 1608.451172,1534.864746 
	C1569.081299,1537.983765 1529.655273,1539.493042 1490.169067,1538.451416 
	C1452.046509,1537.446167 1413.906006,1536.638672 1375.823608,1534.737183 
	C1345.257446,1533.210938 1314.733765,1530.528931 1284.254517,1527.680786 
	C1266.377441,1526.010132 1248.627808,1522.984741 1230.811890,1520.637573 
	C1228.349609,1520.313110 1225.608276,1519.689575 1223.388550,1520.411133 
	C1217.692871,1522.262695 1214.667725,1519.501099 1211.324585,1515.478027 
	C1205.267334,1508.188965 1198.628296,1501.384033 1192.252441,1494.358643 
	C1190.613281,1492.552368 1189.050293,1490.676880 1187.967285,1487.610474 
	C1194.685059,1488.779419 1201.402710,1489.949585 1208.120728,1491.117310 
	C1224.987793,1494.048706 1241.844604,1497.041260 1258.724976,1499.894043 
	C1278.056763,1503.161133 1297.348389,1506.753784 1316.768311,1509.387695 
	C1341.806641,1512.783936 1366.900635,1516.015381 1392.070190,1518.135620 
	C1421.566284,1520.620239 1451.151978,1522.280273 1480.732422,1523.437500 
	C1499.677490,1524.178589 1518.707764,1523.927124 1537.656128,1523.109131 
	C1563.084717,1522.011597 1588.535400,1520.596924 1613.860962,1518.131348 
	C1655.064331,1514.119873 1695.440430,1505.395020 1734.298096,1491.170410 
	C1757.028442,1482.849731 1778.723267,1471.719727 1800.998413,1462.119263 
	C1804.963257,1460.410522 1809.442261,1459.514526 1813.766724,1459.093262 
	C1825.323730,1457.967896 1836.925903,1457.305176 1848.779541,1456.438843 
	C1842.384888,1467.975952 1831.185303,1473.143555 1819.873901,1478.755859 
z"/>
<path fill="#E51C3A" opacity="1.000000" stroke="none" 
	d="
M1158.272583,1542.796875 
	C1132.641235,1540.394043 1107.966553,1535.631836 1085.657959,1522.573364 
	C1063.547852,1509.630981 1043.991699,1493.446533 1026.194946,1475.097534 
	C1021.122253,1469.867554 1016.313293,1464.381958 1011.436096,1459.070679 
	C1014.916138,1459.459473 1019.035828,1460.004150 1023.171326,1460.367310 
	C1045.716797,1462.347900 1068.260376,1464.354614 1090.820068,1466.159180 
	C1094.245361,1466.433228 1096.596924,1467.103516 1098.398071,1470.472900 
	C1109.283813,1490.836548 1125.113281,1507.226562 1141.333862,1523.299561 
	C1147.238770,1529.150879 1152.833252,1535.315918 1158.529785,1541.375244 
	C1158.763916,1541.624268 1158.590698,1542.256470 1158.272583,1542.796875 
z"/>
<path fill="#E61D3B" opacity="1.000000" stroke="none" 
	d="
M1186.590088,1487.483643 
	C1186.630615,1487.476685 1186.549683,1487.490601 1186.590088,1487.483643 
z"/>
<path fill="#E51A38" opacity="1.000000" stroke="none" 
	d="
M1289.362061,1652.196533 
	C1289.161133,1652.428589 1288.936768,1652.688965 1288.712280,1652.949219 
	C1288.653198,1652.861206 1288.593994,1652.773071 1288.534912,1652.684937 
	C1288.658081,1652.624512 1288.781250,1652.564087 1289.146484,1652.382324 
	C1289.388550,1652.260864 1289.338501,1652.224731 1289.362061,1652.196533 
z"/>
</svg>