<svg version="1.1" id="Layer_1" xmlns="http://www.w3.org/2000/svg" xmlns:xlink="http://www.w3.org/1999/xlink" x="0px" y="0px"
	 width="100%" viewBox="0 0 2048 2048" enable-background="new 0 0 2048 2048" xml:space="preserve">
<path fill="#E51837" opacity="1.000000" stroke="none" 
	d="
M1593.000000,2049.000000 
	C1250.969116,2049.000000 908.938171,2049.000000 566.589233,2048.639404 
	C569.227539,2030.254150 572.651672,2012.290649 575.020020,1994.189087 
	C577.891418,1972.242554 579.475403,1950.127441 582.336609,1928.179321 
	C585.935913,1900.569946 587.332703,1872.924927 587.196045,1845.082397 
	C587.096008,1824.718140 585.639832,1804.546997 582.855713,1784.443604 
	C580.238403,1765.544678 574.710632,1747.481689 566.567200,1730.176636 
	C554.967224,1705.526855 538.489380,1684.967651 515.383728,1670.416382 
	C493.852875,1656.856567 469.946899,1649.503418 444.804016,1645.871826 
	C415.854645,1641.690430 386.708344,1641.483765 357.603973,1641.977905 
	C335.670044,1642.350342 313.742432,1644.171631 291.855103,1645.895264 
	C272.285156,1647.436279 252.786514,1649.861572 233.233368,1651.643921 
	C216.165787,1653.199707 199.058914,1654.319214 181.982574,1655.784912 
	C162.915787,1657.421631 143.884247,1659.515625 124.799683,1660.885620 
	C105.886169,1662.243286 86.924019,1662.916260 67.987183,1663.961792 
	C63.754669,1664.195435 59.538776,1664.730103 54.235126,1665.227417 
	C60.743473,1656.516602 66.561447,1648.712891 72.397331,1640.922485 
	C84.047707,1625.370361 95.604820,1609.746826 107.398293,1594.303833 
	C116.080414,1582.934937 125.161484,1571.871460 133.899277,1560.544434 
	C138.567642,1554.492676 142.768951,1548.082275 147.383591,1541.987061 
	C161.239120,1523.686279 175.253647,1505.505859 189.089783,1487.190674 
	C198.608383,1474.590576 207.848663,1461.780151 217.366760,1449.179688 
	C229.092728,1433.656372 240.996704,1418.267578 252.789444,1402.794556 
	C265.391052,1386.260376 277.940735,1369.686768 290.535614,1353.147461 
	C300.204437,1340.450439 309.973785,1327.829468 319.577942,1315.083984 
	C328.982727,1302.603027 338.122864,1289.921875 347.582458,1277.483276 
	C359.668976,1261.590210 372.029999,1245.905884 384.136139,1230.027588 
	C391.789612,1219.989380 399.112122,1209.699463 406.729401,1199.633057 
	C417.462494,1185.449219 428.391113,1171.413330 439.120209,1157.226440 
	C446.138153,1147.946655 452.826904,1138.416992 459.885010,1129.168701 
	C470.172729,1115.688477 480.775360,1102.448242 491.029510,1088.943115 
	C501.077515,1075.709229 510.740295,1062.183105 520.781860,1048.944336 
	C536.667603,1028.000610 552.811218,1007.252441 568.691711,986.304810 
	C584.857849,964.980530 600.722168,943.427002 616.936035,922.139404 
	C629.838501,905.199402 643.115906,888.545532 656.141663,871.698730 
	C675.782166,846.296753 695.243042,820.755188 714.983276,795.431213 
	C728.072876,778.638977 741.609009,762.195557 754.778381,745.464478 
	C769.377136,726.917542 783.709106,708.160522 798.299133,689.606567 
	C812.796326,671.170471 827.627258,652.995483 842.029541,634.486267 
	C864.090149,606.134949 885.899292,577.588013 907.832825,549.137756 
	C927.125061,524.113586 946.410278,499.083832 965.768433,474.110687 
	C970.901733,467.488434 976.292480,461.065765 982.099792,453.890869 
	C994.295898,467.222107 1005.946899,479.320618 1016.872314,492.042267 
	C1035.406006,513.623169 1053.405151,535.662109 1071.776978,557.383362 
	C1084.335938,572.231934 1097.281982,586.753784 1109.791626,601.643005 
	C1116.944702,610.156616 1123.349487,619.297668 1130.476929,627.834167 
	C1148.391968,649.291077 1166.519409,670.570801 1184.574097,691.911072 
	C1211.771362,724.057617 1238.928589,756.238037 1266.201172,788.320496 
	C1282.359985,807.329163 1298.548706,826.316956 1315.017334,845.056396 
	C1330.168213,862.296448 1345.754517,879.152954 1361.070312,896.249023 
	C1378.510010,915.715942 1395.732788,935.378662 1413.287476,954.741028 
	C1432.839233,976.306274 1452.599365,997.683899 1472.376221,1019.043640 
	C1497.142212,1045.791626 1521.791626,1072.653564 1546.914185,1099.063965 
	C1568.812500,1122.084717 1591.318481,1144.526855 1613.517944,1167.261841 
	C1633.049194,1187.264526 1652.395142,1207.449951 1672.081055,1227.298706 
	C1683.210815,1238.520630 1695.020142,1249.066406 1706.231201,1260.210693 
	C1717.075195,1270.989746 1727.362671,1282.329224 1738.220337,1293.093994 
	C1755.115967,1309.845337 1772.331665,1326.273315 1789.324707,1342.927124 
	C1798.838989,1352.251465 1808.131348,1361.801880 1817.604492,1371.168701 
	C1843.269775,1396.546143 1869.100586,1421.757690 1894.633057,1447.267822 
	C1916.763550,1469.379028 1938.626343,1491.759521 1960.498535,1514.127563 
	C1967.253174,1521.035278 1973.650146,1528.292725 1980.633057,1535.846680 
	C1953.603882,1535.846680 1927.470337,1535.765991 1901.337769,1535.871338 
	C1878.871948,1535.961914 1856.401367,1536.025757 1833.943237,1536.545288 
	C1813.817627,1537.010742 1793.674316,1537.620850 1773.597168,1539.010498 
	C1752.399170,1540.477539 1731.263916,1542.878540 1710.112793,1544.987549 
	C1687.634521,1547.229004 1666.097168,1553.263184 1645.028931,1561.240845 
	C1619.443237,1570.929077 1598.051025,1585.661133 1581.830322,1608.375000 
	C1570.423584,1624.347900 1564.873657,1642.236572 1560.326172,1660.567993 
	C1553.383789,1688.552979 1553.535400,1717.385254 1553.273071,1745.949097 
	C1553.027222,1772.702393 1554.641968,1799.494141 1556.083618,1826.234131 
	C1557.030884,1843.806396 1558.973267,1861.332275 1560.762207,1878.849121 
	C1561.842407,1889.426025 1563.303467,1899.973145 1564.908447,1910.485596 
	C1567.914307,1930.172729 1570.817139,1949.885986 1574.414673,1969.468628 
	C1576.539917,1981.036987 1580.014771,1992.352417 1582.703735,2003.823486 
	C1586.228271,2018.860718 1589.576172,2033.939209 1593.000000,2049.000000 
z"/>
<path fill="#E51837" opacity="1.000000" stroke="none" 
	d="
M1062.000000,1.000003 
	C1390.946899,1.000000 1719.893921,1.000000 2049.000000,1.000000 
	C2049.000000,502.699371 2049.000000,1004.398743 2048.693359,1506.415405 
	C2036.752075,1494.622437 2025.103271,1482.525757 2013.487061,1470.397949 
	C2002.211304,1458.625854 1991.132080,1446.660767 1979.670776,1435.072998 
	C1965.637939,1420.885620 1951.225464,1407.074463 1937.110596,1392.967163 
	C1923.591431,1379.455322 1910.416382,1365.596069 1896.779907,1352.205322 
	C1874.822998,1330.644287 1852.482056,1309.474243 1830.554688,1287.883667 
	C1816.931519,1274.470093 1803.902954,1260.454468 1790.366577,1246.950439 
	C1777.191040,1233.806030 1763.582520,1221.096436 1750.390259,1207.968384 
	C1729.885376,1187.563477 1709.577515,1166.960571 1689.176392,1146.451294 
	C1668.422241,1125.587280 1647.411987,1104.971191 1626.964355,1083.811157 
	C1606.404297,1062.534912 1586.326416,1040.790405 1566.171387,1019.126099 
	C1545.781982,997.210083 1525.502197,975.191406 1505.276123,953.124451 
	C1486.403931,932.534668 1467.666504,911.821289 1448.867310,891.164490 
	C1438.225952,879.471680 1427.457642,867.891602 1416.964111,856.067505 
	C1400.962158,838.036255 1385.210815,819.782471 1369.229614,801.732483 
	C1360.858887,792.277954 1351.946533,783.293579 1343.761963,773.685242 
	C1317.228149,742.536133 1290.814209,711.283569 1264.551270,679.905701 
	C1239.568359,650.057068 1214.967651,619.888428 1189.942139,590.075928 
	C1173.285645,570.233154 1156.067017,550.863342 1139.302734,531.109741 
	C1120.682129,509.168732 1102.302246,487.023407 1083.797119,464.984253 
	C1074.968872,454.470032 1066.093262,443.995544 1057.055298,433.285217 
	C1057.996216,432.991089 1058.902588,432.712830 1059.805786,432.424530 
	C1072.148438,428.484863 1084.796021,425.299194 1096.773682,420.456573 
	C1128.321899,407.701447 1157.572388,391.072937 1181.502075,366.305511 
	C1188.553467,359.007294 1196.295044,352.118011 1202.052979,343.876465 
	C1219.317993,319.164246 1232.968018,292.556671 1237.870728,262.425598 
	C1240.184204,248.207840 1241.769653,233.748291 1242.095947,219.362274 
	C1242.487793,202.077560 1239.738037,185.084808 1235.695312,168.083466 
	C1231.075562,148.655304 1223.190918,130.789200 1212.897583,114.232956 
	C1197.554810,89.554695 1176.640625,69.688461 1153.235596,52.508919 
	C1148.948975,49.362446 1144.154175,46.745831 1140.403687,43.060520 
	C1127.100708,29.988598 1111.424683,20.808187 1094.328003,13.829910 
	C1083.594604,9.448937 1072.778809,5.269720 1062.000000,1.000003 
z"/>
<path fill="#E51837" opacity="1.000000" stroke="none" 
	d="
M1.000016,1617.000000 
	C1.000000,1078.421875 1.000000,539.843750 1.000000,1.000000 
	C277.032684,1.000000 553.065430,1.000000 829.363281,1.279073 
	C808.640564,16.094112 791.113159,34.291527 778.673279,56.325771 
	C766.943054,77.102905 756.595886,98.918839 752.567444,122.894859 
	C750.061279,137.810455 747.110596,152.753586 746.121582,167.800201 
	C744.166626,197.542603 746.926208,227.119064 755.726562,255.633087 
	C761.187622,273.327240 768.471313,290.537201 775.992432,307.496368 
	C784.412842,326.483368 796.913818,342.982483 811.003235,358.150909 
	C818.463684,366.182739 826.621094,373.572418 834.545044,381.167328 
	C848.718201,394.752106 864.850159,405.565521 882.478394,414.071960 
	C892.153076,418.740448 902.158691,422.722900 912.369568,427.169067 
	C901.574280,440.829071 890.691956,454.210876 880.240051,467.920837 
	C866.428406,486.037720 853.159668,504.569702 839.282471,522.635132 
	C822.068115,545.044861 804.436523,567.133545 787.050293,589.411804 
	C776.620178,602.776733 766.419739,616.321777 755.929932,629.639221 
	C735.464050,655.622009 714.806519,681.453857 694.344238,707.439453 
	C678.296692,727.818481 662.435913,748.344543 646.470154,768.788025 
	C625.790894,795.266968 604.987549,821.649780 584.431946,848.224243 
	C569.375488,867.689453 554.626526,887.392639 539.750488,906.997437 
	C525.977905,925.147949 512.237915,943.323242 498.445129,961.458435 
	C492.006683,969.923828 485.417633,978.274963 479.001984,986.757385 
	C467.667236,1001.743164 456.451782,1016.819214 445.108734,1031.798706 
	C439.193115,1039.610718 433.002563,1047.215576 427.130432,1055.059570 
	C417.669556,1067.697021 408.484924,1080.541870 398.972198,1093.139526 
	C386.958679,1109.048828 374.631836,1124.721802 362.628906,1140.639038 
	C351.842712,1154.942505 341.432739,1169.529785 330.637512,1183.826416 
	C317.312500,1201.473389 303.724609,1218.921631 290.316528,1236.506226 
	C274.996918,1256.597900 259.749390,1276.744629 244.471909,1296.868408 
	C235.033737,1309.300537 225.622452,1321.753052 216.154694,1334.162598 
	C204.765289,1349.091064 193.268784,1363.938110 181.932541,1378.906494 
	C173.315567,1390.284546 164.928894,1401.836792 156.345718,1413.240723 
	C143.556519,1430.233032 130.670563,1447.152466 117.851814,1464.122681 
	C106.727646,1478.849487 95.645798,1493.608398 84.534340,1508.344849 
	C66.325409,1532.494507 48.215023,1556.719727 29.848909,1580.749268 
	C20.472868,1593.016479 10.631195,1604.927856 1.000016,1617.000000 
z"/>
<path fill="#FFF9F6" opacity="1.000000" stroke="none" 
	d="
M1.000016,1617.468628 
	C10.631195,1604.927856 20.472868,1593.016479 29.848909,1580.749268 
	C48.215023,1556.719727 66.325409,1532.494507 84.534340,1508.344849 
	C95.645798,1493.608398 106.727646,1478.849487 117.851814,1464.122681 
	C130.670563,1447.152466 143.556519,1430.233032 156.345718,1413.240723 
	C164.928894,1401.836792 173.315567,1390.284546 181.932541,1378.906494 
	C193.268784,1363.938110 204.765289,1349.091064 216.154694,1334.162598 
	C225.622452,1321.753052 235.033737,1309.300537 244.471909,1296.868408 
	C259.749390,1276.744629 274.996918,1256.597900 290.316528,1236.506226 
	C303.724609,1218.921631 317.312500,1201.473389 330.637512,1183.826416 
	C341.432739,1169.529785 351.842712,1154.942505 362.628906,1140.639038 
	C374.631836,1124.721802 386.958679,1109.048828 398.972198,1093.139526 
	C408.484924,1080.541870 417.669556,1067.697021 427.130432,1055.059570 
	C433.002563,1047.215576 439.193115,1039.610718 445.108734,1031.798706 
	C456.451782,1016.819214 467.667236,1001.743164 479.001984,986.757385 
	C485.417633,978.274963 492.006683,969.923828 498.445129,961.458435 
	C512.237915,943.323242 525.977905,925.147949 539.750488,906.997437 
	C554.626526,887.392639 569.375488,867.689453 584.431946,848.224243 
	C604.987549,821.649780 625.790894,795.266968 646.470154,768.788025 
	C662.435913,748.344543 678.296692,727.818481 694.344238,707.439453 
	C714.806519,681.453857 735.464050,655.622009 755.929932,629.639221 
	C766.419739,616.321777 776.620178,602.776733 787.050293,589.411804 
	C804.436523,567.133545 822.068115,545.044861 839.282471,522.635132 
	C853.159668,504.569702 866.428406,486.037720 880.240051,467.920837 
	C890.691956,454.210876 901.574280,440.829071 912.369568,427.169067 
	C902.158691,422.722900 892.153076,418.740448 882.478394,414.071960 
	C864.850159,405.565521 848.718201,394.752106 834.545044,381.167328 
	C826.621094,373.572418 818.463684,366.182739 811.003235,358.150909 
	C796.913818,342.982483 784.412842,326.483368 775.992432,307.496368 
	C768.471313,290.537201 761.187622,273.327240 755.726562,255.633087 
	C746.926208,227.119064 744.166626,197.542603 746.121582,167.800201 
	C747.110596,152.753586 750.061279,137.810455 752.567444,122.894859 
	C756.595886,98.918839 766.943054,77.102905 778.673279,56.325771 
	C791.113159,34.291527 808.640564,16.094112 829.814148,1.279073 
	C907.020935,1.000000 984.041809,1.000000 1061.531372,1.000003 
	C1072.778809,5.269720 1083.594604,9.448937 1094.328003,13.829910 
	C1111.424683,20.808187 1127.100708,29.988598 1140.403687,43.060520 
	C1144.154175,46.745831 1148.948975,49.362446 1153.235596,52.508919 
	C1176.640625,69.688461 1197.554810,89.554695 1212.897583,114.232956 
	C1223.190918,130.789200 1231.075562,148.655304 1235.695312,168.083466 
	C1239.738037,185.084808 1242.487793,202.077560 1242.095947,219.362274 
	C1241.769653,233.748291 1240.184204,248.207840 1237.870728,262.425598 
	C1232.968018,292.556671 1219.317993,319.164246 1202.052979,343.876465 
	C1196.295044,352.118011 1188.553467,359.007294 1181.502075,366.305511 
	C1157.572388,391.072937 1128.321899,407.701447 1096.773682,420.456573 
	C1084.796021,425.299194 1072.148438,428.484863 1059.805786,432.424530 
	C1058.902588,432.712830 1057.996216,432.991089 1057.055298,433.285217 
	C1066.093262,443.995544 1074.968872,454.470032 1083.797119,464.984253 
	C1102.302246,487.023407 1120.682129,509.168732 1139.302734,531.109741 
	C1156.067017,550.863342 1173.285645,570.233154 1189.942139,590.075928 
	C1214.967651,619.888428 1239.568359,650.057068 1264.551270,679.905701 
	C1290.814209,711.283569 1317.228149,742.536133 1343.761963,773.685242 
	C1351.946533,783.293579 1360.858887,792.277954 1369.229614,801.732483 
	C1385.210815,819.782471 1400.962158,838.036255 1416.964111,856.067505 
	C1427.457642,867.891602 1438.225952,879.471680 1448.867310,891.164490 
	C1467.666504,911.821289 1486.403931,932.534668 1505.276123,953.124451 
	C1525.502197,975.191406 1545.781982,997.210083 1566.171387,1019.126099 
	C1586.326416,1040.790405 1606.404297,1062.534912 1626.964355,1083.811157 
	C1647.411987,1104.971191 1668.422241,1125.587280 1689.176392,1146.451294 
	C1709.577515,1166.960571 1729.885376,1187.563477 1750.390259,1207.968384 
	C1763.582520,1221.096436 1777.191040,1233.806030 1790.366577,1246.950439 
	C1803.902954,1260.454468 1816.931519,1274.470093 1830.554688,1287.883667 
	C1852.482056,1309.474243 1874.822998,1330.644287 1896.779907,1352.205322 
	C1910.416382,1365.596069 1923.591431,1379.455322 1937.110596,1392.967163 
	C1951.225464,1407.074463 1965.637939,1420.885620 1979.670776,1435.072998 
	C1991.132080,1446.660767 2002.211304,1458.625854 2013.487061,1470.397949 
	C2025.103271,1482.525757 2036.752075,1494.622437 2048.693359,1506.866333 
	C2049.000000,1687.666626 2049.000000,1868.333374 2049.000000,2049.000000 
	C2039.255737,2049.000000 2029.596558,2049.000000 2019.624023,2048.552246 
	C2018.905273,2036.311646 2018.470825,2024.520020 2018.099976,2012.726318 
	C2017.300171,1987.281128 2016.467163,1961.836792 2015.769165,1936.388672 
	C2014.879272,1903.952026 2014.095459,1871.512451 2013.291748,1839.073364 
	C2012.500366,1807.135010 2011.301392,1775.198853 2011.090210,1743.256226 
	C2010.873657,1710.474121 2011.674805,1677.685791 2011.952881,1644.899536 
	C2012.065186,1631.645874 2011.971313,1618.390381 2011.971313,1604.133911 
	C2001.486572,1604.133911 1990.874390,1604.185059 1980.262817,1604.124146 
	C1948.012451,1603.939087 1915.761108,1603.447388 1883.512329,1603.582642 
	C1857.729370,1603.690674 1831.949707,1604.562256 1806.167847,1605.048828 
	C1798.858521,1605.186768 1791.506226,1604.690552 1784.242676,1605.303101 
	C1764.552734,1606.963501 1744.844971,1608.628052 1725.246460,1611.101318 
	C1702.326904,1613.993774 1679.771118,1617.943115 1659.187988,1630.009766 
	C1642.890625,1639.563965 1632.959839,1653.160156 1629.544678,1671.027832 
	C1626.590576,1686.483276 1625.257935,1702.304688 1624.107544,1718.030273 
	C1623.249268,1729.761353 1623.603760,1741.601318 1623.815308,1753.385620 
	C1624.114014,1770.020874 1624.466919,1786.666870 1625.380981,1803.276001 
	C1626.194336,1818.053223 1627.640991,1832.802856 1629.103516,1847.535278 
	C1630.743652,1864.057861 1632.265259,1880.613403 1634.664917,1897.033813 
	C1637.277100,1914.909668 1640.451538,1932.726440 1644.085449,1950.424072 
	C1648.452271,1971.690430 1653.590698,1992.797729 1658.339233,2013.986450 
	C1660.951904,2025.644287 1663.450073,2037.328003 1666.000000,2049.000000 
	C1641.979126,2049.000000 1617.958130,2049.000000 1593.468750,2049.000000 
	C1589.576172,2033.939209 1586.228271,2018.860718 1582.703735,2003.823486 
	C1580.014771,1992.352417 1576.539917,1981.036987 1574.414673,1969.468628 
	C1570.817139,1949.885986 1567.914307,1930.172729 1564.908447,1910.485596 
	C1563.303467,1899.973145 1561.842407,1889.426025 1560.762207,1878.849121 
	C1558.973267,1861.332275 1557.030884,1843.806396 1556.083618,1826.234131 
	C1554.641968,1799.494141 1553.027222,1772.702393 1553.273071,1745.949097 
	C1553.535400,1717.385254 1553.383789,1688.552979 1560.326172,1660.567993 
	C1564.873657,1642.236572 1570.423584,1624.347900 1581.830322,1608.375000 
	C1598.051025,1585.661133 1619.443237,1570.929077 1645.028931,1561.240845 
	C1666.097168,1553.263184 1687.634521,1547.229004 1710.112793,1544.987549 
	C1731.263916,1542.878540 1752.399170,1540.477539 1773.597168,1539.010498 
	C1793.674316,1537.620850 1813.817627,1537.010742 1833.943237,1536.545288 
	C1856.401367,1536.025757 1878.871948,1535.961914 1901.337769,1535.871338 
	C1927.470337,1535.765991 1953.603882,1535.846680 1980.633057,1535.846680 
	C1973.650146,1528.292725 1967.253174,1521.035278 1960.498535,1514.127563 
	C1938.626343,1491.759521 1916.763550,1469.379028 1894.633057,1447.267822 
	C1869.100586,1421.757690 1843.269775,1396.546143 1817.604492,1371.168701 
	C1808.131348,1361.801880 1798.838989,1352.251465 1789.324707,1342.927124 
	C1772.331665,1326.273315 1755.115967,1309.845337 1738.220337,1293.093994 
	C1727.362671,1282.329224 1717.075195,1270.989746 1706.231201,1260.210693 
	C1695.020142,1249.066406 1683.210815,1238.520630 1672.081055,1227.298706 
	C1652.395142,1207.449951 1633.049194,1187.264526 1613.517944,1167.261841 
	C1591.318481,1144.526855 1568.812500,1122.084717 1546.914185,1099.063965 
	C1521.791626,1072.653564 1497.142212,1045.791626 1472.376221,1019.043640 
	C1452.599365,997.683899 1432.839233,976.306274 1413.287476,954.741028 
	C1395.732788,935.378662 1378.510010,915.715942 1361.070312,896.249023 
	C1345.754517,879.152954 1330.168213,862.296448 1315.017334,845.056396 
	C1298.548706,826.316956 1282.359985,807.329163 1266.201172,788.320496 
	C1238.928589,756.238037 1211.771362,724.057617 1184.574097,691.911072 
	C1166.519409,670.570801 1148.391968,649.291077 1130.476929,627.834167 
	C1123.349487,619.297668 1116.944702,610.156616 1109.791626,601.643005 
	C1097.281982,586.753784 1084.335938,572.231934 1071.776978,557.383362 
	C1053.405151,535.662109 1035.406006,513.623169 1016.872314,492.042267 
	C1005.946899,479.320618 994.295898,467.222107 982.099792,453.890869 
	C976.292480,461.065765 970.901733,467.488434 965.768433,474.110687 
	C946.410278,499.083832 927.125061,524.113586 907.832825,549.137756 
	C885.899292,577.588013 864.090149,606.134949 842.029541,634.486267 
	C827.627258,652.995483 812.796326,671.170471 798.299133,689.606567 
	C783.709106,708.160522 769.377136,726.917542 754.778381,745.464478 
	C741.609009,762.195557 728.072876,778.638977 714.983276,795.431213 
	C695.243042,820.755188 675.782166,846.296753 656.141663,871.698730 
	C643.115906,888.545532 629.838501,905.199402 616.936035,922.139404 
	C600.722168,943.427002 584.857849,964.980530 568.691711,986.304810 
	C552.811218,1007.252441 536.667603,1028.000610 520.781860,1048.944336 
	C510.740295,1062.183105 501.077515,1075.709229 491.029510,1088.943115 
	C480.775360,1102.448242 470.172729,1115.688477 459.885010,1129.168701 
	C452.826904,1138.416992 446.138153,1147.946655 439.120209,1157.226440 
	C428.391113,1171.413330 417.462494,1185.449219 406.729401,1199.633057 
	C399.112122,1209.699463 391.789612,1219.989380 384.136139,1230.027588 
	C372.029999,1245.905884 359.668976,1261.590210 347.582458,1277.483276 
	C338.122864,1289.921875 328.982727,1302.603027 319.577942,1315.083984 
	C309.973785,1327.829468 300.204437,1340.450439 290.535614,1353.147461 
	C277.940735,1369.686768 265.391052,1386.260376 252.789444,1402.794556 
	C240.996704,1418.267578 229.092728,1433.656372 217.366760,1449.179688 
	C207.848663,1461.780151 198.608383,1474.590576 189.089783,1487.190674 
	C175.253647,1505.505859 161.239120,1523.686279 147.383591,1541.987061 
	C142.768951,1548.082275 138.567642,1554.492676 133.899277,1560.544434 
	C125.161484,1571.871460 116.080414,1582.934937 107.398293,1594.303833 
	C95.604820,1609.746826 84.047707,1625.370361 72.397331,1640.922485 
	C66.561447,1648.712891 60.743473,1656.516602 54.235126,1665.227417 
	C59.538776,1664.730103 63.754669,1664.195435 67.987183,1663.961792 
	C86.924019,1662.916260 105.886169,1662.243286 124.799683,1660.885620 
	C143.884247,1659.515625 162.915787,1657.421631 181.982574,1655.784912 
	C199.058914,1654.319214 216.165787,1653.199707 233.233368,1651.643921 
	C252.786514,1649.861572 272.285156,1647.436279 291.855103,1645.895264 
	C313.742432,1644.171631 335.670044,1642.350342 357.603973,1641.977905 
	C386.708344,1641.483765 415.854645,1641.690430 444.804016,1645.871826 
	C469.946899,1649.503418 493.852875,1656.856567 515.383728,1670.416382 
	C538.489380,1684.967651 554.967224,1705.526855 566.567200,1730.176636 
	C574.710632,1747.481689 580.238403,1765.544678 582.855713,1784.443604 
	C585.639832,1804.546997 587.096008,1824.718140 587.196045,1845.082397 
	C587.332703,1872.924927 585.935913,1900.569946 582.336609,1928.179321 
	C579.475403,1950.127441 577.891418,1972.242554 575.020020,1994.189087 
	C572.651672,2012.290649 569.227539,2030.254150 566.135620,2048.639404 
	C543.312439,2049.000000 520.624878,2049.000000 497.323669,2048.594238 
	C499.562653,2029.125244 502.666168,2010.095703 505.206085,1990.991089 
	C508.556580,1965.789795 511.565125,1940.541626 514.535339,1915.291626 
	C517.589844,1889.325195 518.543274,1863.240356 517.940552,1837.117310 
	C517.412781,1814.245972 514.257385,1791.724487 507.462402,1769.814819 
	C503.495850,1757.024658 497.030670,1745.490479 486.675354,1736.982300 
	C476.169250,1728.350220 463.744415,1723.024780 450.376862,1720.095581 
	C425.872467,1714.726074 401.057678,1713.136475 376.056915,1714.098389 
	C352.629669,1714.999756 329.178772,1715.650269 305.796265,1717.255249 
	C279.617859,1719.052002 253.506958,1721.824097 227.361938,1724.117432 
	C216.431381,1725.076294 205.483124,1725.833740 194.552704,1726.794067 
	C181.131149,1727.973267 167.728622,1729.375977 154.301041,1730.476929 
	C145.240768,1731.219849 136.148483,1731.563477 127.075722,1732.164551 
	C107.823044,1733.439941 88.581261,1734.897339 69.319214,1736.005371 
	C62.101543,1736.420532 54.839977,1736.072632 47.598423,1736.072632 
	C47.425652,1737.996948 47.193058,1738.465576 47.170502,1738.943970 
	C45.871143,1766.500610 44.345139,1794.049683 43.388996,1821.618408 
	C42.720982,1840.879395 43.028473,1860.172241 42.553741,1879.442383 
	C41.869484,1907.217407 40.912537,1934.985962 39.994743,1962.754883 
	C39.044510,1991.504883 38.002090,2020.251709 37.000000,2049.000000 
	C25.011223,2049.000000 13.022448,2049.000000 1.000000,2049.000000 
	C1.000000,1905.312378 1.000000,1761.624878 1.000016,1617.468628 
M844.567627,287.947571 
	C850.223206,295.741852 855.358276,303.987976 861.646484,311.233154 
	C873.499573,324.890289 887.656494,335.939514 903.227356,345.168732 
	C921.242493,355.846741 940.063843,364.962219 961.037720,367.192413 
	C976.639587,368.851379 992.494995,368.470734 1008.234375,368.388184 
	C1022.437256,368.313690 1036.283813,365.272644 1049.802368,361.072266 
	C1069.090576,355.079132 1087.478638,346.915497 1104.525757,336.070618 
	C1118.182495,327.382690 1130.785645,317.320709 1141.174194,304.708191 
	C1158.939941,283.139252 1170.059692,258.737549 1173.597534,230.883575 
	C1176.695435,206.494873 1172.744873,183.316254 1160.806885,161.999435 
	C1150.345703,143.319672 1136.948242,127.001106 1118.984375,114.494881 
	C1104.634521,104.504822 1089.953125,95.666573 1073.875366,88.548462 
	C1050.350586,78.133377 1025.615967,76.240532 1000.705750,75.528542 
	C981.637817,74.983543 962.480896,75.889679 943.423279,77.094017 
	C923.046997,78.381676 902.741760,80.787117 882.403442,82.682480 
	C871.369385,83.710754 860.388062,86.322495 849.213562,83.498528 
	C848.073181,83.210327 845.922302,84.381950 845.176025,85.500427 
	C841.411499,91.142494 837.801392,96.901970 834.420776,102.783287 
	C819.532776,128.684525 813.702637,157.116516 813.422424,186.478592 
	C813.247131,204.850754 816.049622,223.145645 821.814392,240.941635 
	C827.182190,257.512604 834.158997,273.106323 844.567627,287.947571 
z"/>
<path fill="#E51837" opacity="1.000000" stroke="none" 
	d="
M1666.468506,2049.000000 
	C1663.450073,2037.328003 1660.951904,2025.644287 1658.339233,2013.986450 
	C1653.590698,1992.797729 1648.452271,1971.690430 1644.085449,1950.424072 
	C1640.451538,1932.726440 1637.277100,1914.909668 1634.664917,1897.033813 
	C1632.265259,1880.613403 1630.743652,1864.057861 1629.103516,1847.535278 
	C1627.640991,1832.802856 1626.194336,1818.053223 1625.380981,1803.276001 
	C1624.466919,1786.666870 1624.114014,1770.020874 1623.815308,1753.385620 
	C1623.603760,1741.601318 1623.249268,1729.761353 1624.107544,1718.030273 
	C1625.257935,1702.304688 1626.590576,1686.483276 1629.544678,1671.027832 
	C1632.959839,1653.160156 1642.890625,1639.563965 1659.187988,1630.009766 
	C1679.771118,1617.943115 1702.326904,1613.993774 1725.246460,1611.101318 
	C1744.844971,1608.628052 1764.552734,1606.963501 1784.242676,1605.303101 
	C1791.506226,1604.690552 1798.858521,1605.186768 1806.167847,1605.048828 
	C1831.949707,1604.562256 1857.729370,1603.690674 1883.512329,1603.582642 
	C1915.761108,1603.447388 1948.012451,1603.939087 1980.262817,1604.124146 
	C1990.874390,1604.185059 2001.486572,1604.133911 2011.971313,1604.133911 
	C2011.971313,1618.390381 2012.065186,1631.645874 2011.952881,1644.899536 
	C2011.674805,1677.685791 2010.873657,1710.474121 2011.090210,1743.256226 
	C2011.301392,1775.198853 2012.500366,1807.135010 2013.291748,1839.073364 
	C2014.095459,1871.512451 2014.879272,1903.952026 2015.769165,1936.388672 
	C2016.467163,1961.836792 2017.300171,1987.281128 2018.099976,2012.726318 
	C2018.470825,2024.520020 2018.905273,2036.311646 2019.155396,2048.552246 
	C1901.645752,2049.000000 1784.291504,2049.000000 1666.468506,2049.000000 
z"/>
<path fill="#E51837" opacity="1.000000" stroke="none" 
	d="
M37.468658,2049.000000 
	C38.002090,2020.251709 39.044510,1991.504883 39.994743,1962.754883 
	C40.912537,1934.985962 41.869484,1907.217407 42.553741,1879.442383 
	C43.028473,1860.172241 42.720982,1840.879395 43.388996,1821.618408 
	C44.345139,1794.049683 45.871143,1766.500610 47.170502,1738.943970 
	C47.193058,1738.465576 47.425652,1737.996948 47.598423,1736.072632 
	C54.839977,1736.072632 62.101543,1736.420532 69.319214,1736.005371 
	C88.581261,1734.897339 107.823044,1733.439941 127.075722,1732.164551 
	C136.148483,1731.563477 145.240768,1731.219849 154.301041,1730.476929 
	C167.728622,1729.375977 181.131149,1727.973267 194.552704,1726.794067 
	C205.483124,1725.833740 216.431381,1725.076294 227.361938,1724.117432 
	C253.506958,1721.824097 279.617859,1719.052002 305.796265,1717.255249 
	C329.178772,1715.650269 352.629669,1714.999756 376.056915,1714.098389 
	C401.057678,1713.136475 425.872467,1714.726074 450.376862,1720.095581 
	C463.744415,1723.024780 476.169250,1728.350220 486.675354,1736.982300 
	C497.030670,1745.490479 503.495850,1757.024658 507.462402,1769.814819 
	C514.257385,1791.724487 517.412781,1814.245972 517.940552,1837.117310 
	C518.543274,1863.240356 517.589844,1889.325195 514.535339,1915.291626 
	C511.565125,1940.541626 508.556580,1965.789795 505.206085,1990.991089 
	C502.666168,2010.095703 499.562653,2029.125244 496.854980,2048.594238 
	C343.979095,2049.000000 190.958206,2049.000000 37.468658,2049.000000 
z"/>
<path fill="#E51837" opacity="1.000000" stroke="none" 
	d="
M844.366211,287.646423 
	C834.158997,273.106323 827.182190,257.512604 821.814392,240.941635 
	C816.049622,223.145645 813.247131,204.850754 813.422424,186.478592 
	C813.702637,157.116516 819.532776,128.684525 834.420776,102.783287 
	C837.801392,96.901970 841.411499,91.142494 845.176025,85.500427 
	C845.922302,84.381950 848.073181,83.210327 849.213562,83.498528 
	C860.388062,86.322495 871.369385,83.710754 882.403442,82.682480 
	C902.741760,80.787117 923.046997,78.381676 943.423279,77.094017 
	C962.480896,75.889679 981.637817,74.983543 1000.705750,75.528542 
	C1025.615967,76.240532 1050.350586,78.133377 1073.875366,88.548462 
	C1089.953125,95.666573 1104.634521,104.504822 1118.984375,114.494881 
	C1136.948242,127.001106 1150.345703,143.319672 1160.806885,161.999435 
	C1172.744873,183.316254 1176.695435,206.494873 1173.597534,230.883575 
	C1170.059692,258.737549 1158.939941,283.139252 1141.174194,304.708191 
	C1130.785645,317.320709 1118.182495,327.382690 1104.525757,336.070618 
	C1087.478638,346.915497 1069.090576,355.079132 1049.802368,361.072266 
	C1036.283813,365.272644 1022.437256,368.313690 1008.234375,368.388184 
	C992.494995,368.470734 976.639587,368.851379 961.037720,367.192413 
	C940.063843,364.962219 921.242493,355.846741 903.227356,345.168732 
	C887.656494,335.939514 873.499573,324.890289 861.646484,311.233154 
	C855.358276,303.987976 850.223206,295.741852 844.366211,287.646423 
z"/>
</svg>