<svg version="1.1" id="Layer_1" xmlns="http://www.w3.org/2000/svg" xmlns:xlink="http://www.w3.org/1999/xlink" x="0px" y="0px"
	 width="100%" viewBox="0 0 2048 2048" enable-background="new 0 0 2048 2048" xml:space="preserve">
<path fill="#E51837" opacity="1.000000" stroke="none" 
	d="
M1.000000,1166.000000 
	C1.000000,777.705505 1.000000,389.410980 1.000000,1.058225 
	C683.559631,1.058225 1366.119263,1.058225 2049.000000,1.058225 
	C2049.000000,268.699310 2049.000000,536.398743 2048.678955,804.402832 
	C2046.792114,801.588623 2045.434937,798.342651 2043.625488,795.372253 
	C2034.028198,779.617249 2023.679077,764.281921 2014.811035,748.130981 
	C2004.251953,728.900452 1990.544678,712.942444 1972.451172,700.545837 
	C1950.589355,685.567627 1926.788818,675.786011 1900.222168,674.321960 
	C1873.752319,672.863220 1848.135498,677.652283 1823.964844,688.644958 
	C1792.814819,702.811829 1764.800659,722.417786 1735.699463,740.159241 
	C1721.427124,748.860291 1706.540405,756.884705 1691.134888,763.302307 
	C1675.919678,769.640625 1674.554810,769.066223 1666.700684,753.107971 
	C1661.239502,742.011780 1657.218384,729.990112 1654.154541,717.973633 
	C1646.696045,688.722107 1639.958252,659.280457 1633.330078,629.825378 
	C1627.297729,603.017944 1619.623413,576.712097 1608.973633,551.412842 
	C1596.764771,522.410156 1579.879028,496.155090 1560.310303,471.502472 
	C1535.446167,440.178741 1508.892822,410.358215 1481.670288,381.104980 
	C1471.587769,370.270325 1461.342285,359.586243 1451.333252,348.684631 
	C1440.417603,336.795410 1430.133911,324.293091 1418.776855,312.849915 
	C1401.760010,295.704163 1383.266113,280.245209 1363.560791,266.142303 
	C1328.462280,241.022690 1291.238525,220.345383 1250.067505,206.751755 
	C1221.814819,197.423447 1192.812378,191.905746 1163.500122,188.302658 
	C1138.783691,185.264496 1113.841187,183.255646 1088.840454,186.195282 
	C1078.783447,187.377823 1068.607544,187.637375 1058.592651,189.066208 
	C1048.404419,190.519760 1038.279053,192.600082 1028.249512,194.935379 
	C1012.423950,198.620193 996.434875,201.924377 981.011047,206.921005 
	C965.870361,211.825943 951.062073,218.027313 936.623962,224.765579 
	C916.141968,234.324585 896.043884,244.726242 875.993103,255.173370 
	C871.772583,257.372437 867.991394,259.068695 863.067749,259.120178 
	C859.312805,259.159393 854.884155,260.360779 851.976135,262.618103 
	C845.189575,267.886139 838.988708,273.947754 832.814819,279.959290 
	C799.185791,312.704376 767.070618,346.822723 740.146729,385.427917 
	C726.656616,404.770905 713.790833,424.553955 700.851135,444.274719 
	C688.461609,463.157043 676.765930,482.509613 663.929077,501.077362 
	C657.270813,510.708130 649.684875,520.090088 640.936707,527.787292 
	C629.128357,538.177124 615.958374,547.063843 603.078979,556.180664 
	C587.063599,567.517334 573.853699,581.637756 561.036011,596.315552 
	C544.545166,615.199585 534.037476,637.305176 525.479248,660.475769 
	C515.440247,687.655396 512.620300,716.165894 512.147583,744.796021 
	C511.815979,764.880859 512.809875,785.071045 514.631531,805.085022 
	C516.542847,826.084473 519.845154,846.976807 523.087830,867.830750 
	C527.349487,895.237305 532.203369,922.551514 536.575745,949.941650 
	C536.842712,951.614197 535.598877,954.131165 534.245361,955.360291 
	C526.127319,962.731689 517.588196,969.643555 509.549103,977.096497 
	C502.234924,983.877380 495.472534,991.249268 488.299408,998.187439 
	C470.882812,1015.033569 451.106018,1028.833618 431.091858,1042.335938 
	C405.850403,1059.364868 380.409912,1076.044067 351.145081,1085.556274 
	C332.340027,1091.668823 313.277039,1096.819946 293.395447,1098.047241 
	C281.439484,1098.785400 269.449768,1099.144531 257.530212,1100.260986 
	C243.457092,1101.579224 229.550644,1100.404297 215.903320,1097.464722 
	C200.654694,1094.180176 185.725693,1089.437134 170.524002,1085.903564 
	C147.167740,1080.474243 124.174789,1081.541138 102.381126,1092.346436 
	C91.224640,1097.877930 80.793785,1104.884766 69.592987,1110.312744 
	C42.311131,1123.533569 18.690296,1141.061768 1.000000,1166.000000 
z"/>
<path fill="#FFF9F6" opacity="1.000000" stroke="none" 
	d="
M1.000000,1166.468628 
	C18.690296,1141.061768 42.311131,1123.533569 69.592987,1110.312744 
	C80.793785,1104.884766 91.224640,1097.877930 102.381126,1092.346436 
	C124.174789,1081.541138 147.167740,1080.474243 170.524002,1085.903564 
	C185.725693,1089.437134 200.654694,1094.180176 215.903320,1097.464722 
	C229.550644,1100.404297 243.457092,1101.579224 257.530212,1100.260986 
	C269.449768,1099.144531 281.439484,1098.785400 293.395447,1098.047241 
	C313.277039,1096.819946 332.340027,1091.668823 351.145081,1085.556274 
	C380.409912,1076.044067 405.850403,1059.364868 431.091858,1042.335938 
	C451.106018,1028.833618 470.882812,1015.033569 488.299408,998.187439 
	C495.472534,991.249268 502.234924,983.877380 509.549103,977.096497 
	C517.588196,969.643555 526.127319,962.731689 534.245361,955.360291 
	C535.598877,954.131165 536.842712,951.614197 536.575745,949.941650 
	C532.203369,922.551514 527.349487,895.237305 523.087830,867.830750 
	C519.845154,846.976807 516.542847,826.084473 514.631531,805.085022 
	C512.809875,785.071045 511.815979,764.880859 512.147583,744.796021 
	C512.620300,716.165894 515.440247,687.655396 525.479248,660.475769 
	C534.037476,637.305176 544.545166,615.199585 561.036011,596.315552 
	C573.853699,581.637756 587.063599,567.517334 603.078979,556.180664 
	C615.958374,547.063843 629.128357,538.177124 640.936707,527.787292 
	C649.684875,520.090088 657.270813,510.708130 663.929077,501.077362 
	C676.765930,482.509613 688.461609,463.157043 700.851135,444.274719 
	C713.790833,424.553955 726.656616,404.770905 740.146729,385.427917 
	C767.070618,346.822723 799.185791,312.704376 832.814819,279.959290 
	C838.988708,273.947754 845.189575,267.886139 851.976135,262.618103 
	C854.884155,260.360779 859.312805,259.159393 863.067749,259.120178 
	C867.991394,259.068695 871.772583,257.372437 875.993103,255.173370 
	C896.043884,244.726242 916.141968,234.324585 936.623962,224.765579 
	C951.062073,218.027313 965.870361,211.825943 981.011047,206.921005 
	C996.434875,201.924377 1012.423950,198.620193 1028.249512,194.935379 
	C1038.279053,192.600082 1048.404419,190.519760 1058.592651,189.066208 
	C1068.607544,187.637375 1078.783447,187.377823 1088.840454,186.195282 
	C1113.841187,183.255646 1138.783691,185.264496 1163.500122,188.302658 
	C1192.812378,191.905746 1221.814819,197.423447 1250.067505,206.751755 
	C1291.238525,220.345383 1328.462280,241.022690 1363.560791,266.142303 
	C1383.266113,280.245209 1401.760010,295.704163 1418.776855,312.849915 
	C1430.133911,324.293091 1440.417603,336.795410 1451.333252,348.684631 
	C1461.342285,359.586243 1471.587769,370.270325 1481.670288,381.104980 
	C1508.892822,410.358215 1535.446167,440.178741 1560.310303,471.502472 
	C1579.879028,496.155090 1596.764771,522.410156 1608.973633,551.412842 
	C1619.623413,576.712097 1627.297729,603.017944 1633.330078,629.825378 
	C1639.958252,659.280457 1646.696045,688.722107 1654.154541,717.973633 
	C1657.218384,729.990112 1661.239502,742.011780 1666.700684,753.107971 
	C1674.554810,769.066223 1675.919678,769.640625 1691.134888,763.302307 
	C1706.540405,756.884705 1721.427124,748.860291 1735.699463,740.159241 
	C1764.800659,722.417786 1792.814819,702.811829 1823.964844,688.644958 
	C1848.135498,677.652283 1873.752319,672.863220 1900.222168,674.321960 
	C1926.788818,675.786011 1950.589355,685.567627 1972.451172,700.545837 
	C1990.544678,712.942444 2004.251953,728.900452 2014.811035,748.130981 
	C2023.679077,764.281921 2034.028198,779.617249 2043.625488,795.372253 
	C2045.434937,798.342651 2046.792114,801.588623 2048.678955,804.853699 
	C2049.000000,873.020874 2049.000000,941.041809 2048.659180,1009.638306 
	C2038.475098,1033.560791 2024.232910,1054.235596 2009.036987,1074.278931 
	C1996.480103,1090.841553 1978.092773,1100.391968 1961.495850,1111.858765 
	C1950.882812,1119.191406 1938.425903,1123.855225 1926.955933,1129.634766 
	C1928.799072,1133.760254 1931.187256,1138.667603 1933.213013,1143.720337 
	C1939.953735,1160.532837 1940.794556,1177.796387 1938.149780,1195.658447 
	C1935.928833,1210.659058 1934.408081,1225.836426 1928.077759,1239.707275 
	C1922.026367,1252.966797 1915.151489,1265.908569 1907.809326,1278.506714 
	C1897.728760,1295.803833 1885.361572,1311.534424 1871.565674,1326.024292 
	C1861.374878,1336.727783 1850.440918,1346.719238 1840.066650,1357.253052 
	C1822.184570,1375.410156 1803.556885,1392.707153 1783.316528,1408.239868 
	C1782.034546,1409.223633 1781.184448,1411.491699 1781.110596,1413.204590 
	C1780.765991,1421.176025 1781.554321,1429.269409 1780.488647,1437.122681 
	C1777.681885,1457.810425 1780.472168,1478.290771 1781.566528,1498.855469 
	C1782.273804,1512.147461 1783.231079,1525.488281 1782.805908,1538.766479 
	C1781.715942,1572.802368 1775.379761,1606.132202 1767.299561,1639.108398 
	C1761.055298,1664.592041 1753.643799,1689.842285 1742.001343,1713.402588 
	C1732.674194,1732.277466 1722.639038,1750.994263 1710.938965,1768.455078 
	C1697.120239,1789.077637 1679.476074,1806.760986 1660.694336,1823.018311 
	C1644.451172,1837.078247 1626.829102,1849.286499 1607.989746,1859.777100 
	C1591.072632,1869.197510 1573.539673,1877.166870 1555.081421,1882.803223 
	C1531.067871,1890.135864 1506.435791,1893.422852 1481.232910,1892.032227 
	C1462.593994,1891.003784 1444.747559,1886.838989 1427.653076,1879.465820 
	C1406.653687,1870.408203 1388.766968,1856.488281 1370.832153,1842.673462 
	C1361.737915,1835.668091 1352.954590,1828.226562 1343.570923,1821.636841 
	C1327.779785,1810.546997 1311.623779,1799.976929 1295.617432,1789.193848 
	C1291.503296,1786.422241 1287.468384,1783.517212 1283.226440,1780.955933 
	C1279.140259,1778.488525 1274.424072,1776.910156 1270.713379,1774.009155 
	C1264.062256,1768.809570 1258.400513,1762.275635 1251.508545,1757.470825 
	C1243.536621,1751.912964 1234.954956,1747.029785 1226.127319,1742.961304 
	C1218.837891,1739.601440 1215.659058,1741.090332 1210.632568,1747.067871 
	C1208.813110,1749.231567 1207.207275,1751.599121 1205.227783,1753.600586 
	C1189.078979,1769.927734 1173.056030,1786.386841 1156.608765,1802.409546 
	C1143.749512,1814.936401 1130.974121,1827.688843 1117.005859,1838.901367 
	C1101.094360,1851.673462 1084.028687,1863.033325 1067.232910,1874.672363 
	C1042.321167,1891.935303 1015.651733,1905.732544 985.762512,1911.915161 
	C975.830017,1913.969727 965.368835,1913.419922 955.159485,1914.194946 
	C937.554993,1915.531250 921.270569,1909.924316 905.180847,1904.177368 
	C883.828369,1896.550659 868.091370,1880.553711 851.043884,1866.477783 
	C838.765564,1856.339478 826.593689,1845.482788 812.727295,1837.997681 
	C792.777832,1827.228882 771.576416,1818.616333 750.453369,1810.232300 
	C730.846191,1802.450073 710.560791,1796.198975 692.890381,1784.342407 
	C666.458557,1766.606934 653.109741,1740.462769 646.788452,1710.115967 
	C645.486206,1703.864136 644.516052,1697.543213 643.228455,1690.333862 
	C641.347900,1693.330322 639.863770,1695.656372 638.417358,1698.005493 
	C623.937439,1721.523682 606.597961,1742.659546 585.928833,1761.021362 
	C562.744934,1781.617310 535.565063,1795.066772 506.297241,1804.258301 
	C472.496185,1814.873169 438.252899,1816.177002 403.342041,1808.822754 
	C372.923798,1802.414917 344.479492,1790.805786 317.316376,1776.681030 
	C296.369171,1765.788574 277.099518,1751.469482 257.779510,1737.698364 
	C232.548050,1719.713501 211.897232,1696.921875 192.329544,1672.998535 
	C167.565826,1642.722412 152.209000,1608.216309 143.470428,1570.399414 
	C139.251007,1552.139526 136.134247,1533.431274 129.807892,1515.904297 
	C122.902832,1496.773926 113.595009,1478.384521 103.998367,1460.384644 
	C92.587234,1438.981567 79.435478,1418.514038 67.626923,1397.312988 
	C56.185005,1376.770386 47.846092,1354.885010 41.521912,1332.218628 
	C40.778595,1329.554565 38.914509,1326.900146 36.889435,1324.946655 
	C25.038567,1313.514648 12.985146,1302.292725 1.000016,1291.000000 
	C1.000000,1249.645752 1.000000,1208.291504 1.000000,1166.468628 
M715.262268,541.414368 
	C725.157654,539.236511 735.000793,536.776611 744.958313,534.934631 
	C772.810242,529.782349 800.926758,526.977051 829.220154,525.634827 
	C871.063110,523.649719 912.795471,525.534546 954.437927,529.307495 
	C975.624756,531.227112 996.744202,534.112732 1017.800476,537.199890 
	C1052.028442,542.218079 1085.931396,548.987671 1119.023804,559.208374 
	C1137.428467,564.892700 1155.856934,570.687439 1173.773438,577.711304 
	C1191.528320,584.671753 1208.615967,593.323242 1226.064819,601.078735 
	C1247.607666,610.653931 1267.385864,623.346619 1286.757080,636.510498 
	C1307.962646,650.920959 1327.917847,666.997314 1345.729004,685.683594 
	C1358.542236,699.126282 1370.065796,713.396729 1379.822388,729.183350 
	C1389.854736,745.416321 1397.661865,762.508057 1402.668823,781.001648 
	C1407.829834,800.064514 1409.656738,819.245911 1406.698364,838.746765 
	C1401.811768,870.958618 1386.504761,898.717590 1368.924805,925.429688 
	C1362.711182,934.871277 1356.266968,944.161011 1349.835327,953.656921 
	C1350.209961,954.220581 1350.618286,954.947205 1351.131226,955.590332 
	C1367.166626,975.698486 1389.918701,985.319458 1412.843750,994.288757 
	C1421.727051,997.764282 1431.420044,999.342224 1440.861938,1001.179504 
	C1456.805176,1004.281799 1472.952148,1005.282288 1489.046265,1002.698364 
	C1506.949829,999.823914 1524.093872,994.719299 1540.693970,986.885193 
	C1569.508423,973.286743 1592.765381,953.390137 1612.414185,928.732849 
	C1625.464233,912.356384 1636.173462,894.533997 1643.985107,875.186035 
	C1649.933838,860.452209 1654.479614,845.152039 1659.742310,829.834106 
	C1656.220215,828.297119 1653.513184,827.098267 1650.792236,825.931519 
	C1637.224976,820.113708 1626.892212,810.660339 1618.568604,798.522095 
	C1607.379272,782.204956 1600.624634,763.935425 1595.473511,745.207642 
	C1588.512207,719.898621 1582.666870,694.268127 1576.883545,668.653381 
	C1569.857422,637.533630 1563.327881,606.381653 1550.145264,576.984375 
	C1541.709595,558.172852 1531.865601,540.259827 1519.372192,524.038086 
	C1504.349731,504.532562 1488.421143,485.703613 1472.412476,466.985657 
	C1460.206665,452.714203 1447.401245,438.945496 1434.619263,425.179138 
	C1413.326172,402.246338 1391.541626,379.763367 1370.526733,356.580933 
	C1353.897827,338.236755 1333.685913,324.558746 1313.613525,310.643250 
	C1296.799072,298.986450 1279.619629,287.772583 1260.434692,280.347321 
	C1245.135620,274.426086 1229.790405,268.206726 1213.933472,264.254578 
	C1195.788208,259.732086 1177.155884,256.619141 1158.549561,254.636505 
	C1138.084717,252.455856 1117.362305,250.868179 1096.836304,251.551071 
	C1071.592407,252.390930 1046.593872,257.170227 1022.273071,264.097778 
	C1005.381287,268.909241 988.641113,274.716370 972.529419,281.687592 
	C951.802734,290.655609 931.557068,300.821381 911.533203,311.291595 
	C901.437683,316.570435 891.582520,322.817932 882.876953,330.126251 
	C869.915527,341.007324 858.183350,353.341034 845.692078,364.799347 
	C840.386841,369.665741 836.724182,376.490295 829.036682,378.690125 
	C826.652710,379.372253 824.092773,380.956451 822.566345,382.882751 
	C808.015198,401.246094 793.023010,419.312073 779.449585,438.382996 
	C766.451843,456.645081 754.953918,475.977051 742.862122,494.880554 
	C733.104431,510.134888 723.444031,525.451416 713.290100,541.010437 
	C713.696899,541.219055 714.103699,541.427673 715.262268,541.414368 
M1145.392944,1368.105835 
	C1139.959839,1363.894165 1135.884521,1358.769653 1134.730347,1351.788818 
	C1133.348999,1343.434448 1131.065796,1335.063110 1131.074463,1326.701172 
	C1131.080688,1320.731445 1132.551147,1313.294800 1136.271362,1309.068726 
	C1148.094727,1295.637573 1166.893433,1293.853760 1180.880859,1304.407593 
	C1187.536865,1309.429688 1192.655640,1316.562500 1198.143555,1323.017334 
	C1199.913330,1325.098877 1201.179443,1325.456665 1203.545166,1324.406494 
	C1211.131714,1321.038574 1218.831665,1317.926880 1226.429810,1314.584229 
	C1245.437500,1306.222168 1264.294800,1297.505493 1283.438477,1289.469360 
	C1299.211914,1282.848022 1315.786987,1278.935669 1332.985352,1279.326538 
	C1348.184692,1279.671997 1363.010864,1282.604736 1377.011841,1288.826172 
	C1393.675537,1296.230957 1409.312622,1305.193970 1422.109131,1318.537598 
	C1423.275879,1319.754150 1425.904663,1320.541016 1427.553589,1320.174316 
	C1446.692749,1315.918823 1465.922852,1311.949585 1484.827637,1306.798706 
	C1502.907593,1301.872559 1520.900879,1296.362061 1538.444214,1289.803101 
	C1558.781128,1282.199829 1577.521729,1271.297974 1594.347046,1257.436768 
	C1603.064819,1250.254761 1611.843018,1243.042847 1619.748779,1235.012329 
	C1625.640991,1229.027344 1630.183472,1221.711914 1635.315796,1214.980469 
	C1647.061646,1199.575439 1652.901855,1181.770020 1654.767578,1162.864014 
	C1657.076050,1139.469604 1653.202759,1116.245972 1649.230713,1093.352295 
	C1644.088013,1063.711914 1637.872559,1034.277344 1635.937500,1004.170288 
	C1635.805542,1002.117126 1635.303711,1000.087708 1635.027466,998.379150 
	C1624.208496,1006.560486 1613.756104,1014.698059 1603.060791,1022.503052 
	C1581.785278,1038.029053 1558.000732,1048.748291 1533.252441,1057.167847 
	C1516.894531,1062.732910 1500.004639,1066.374512 1482.561035,1067.407715 
	C1460.714111,1068.701782 1438.911377,1069.354248 1417.538208,1064.015869 
	C1403.863159,1060.600220 1390.306152,1056.446533 1377.070068,1051.602295 
	C1358.582153,1044.836060 1341.286499,1035.639282 1326.142456,1022.794800 
	C1320.594482,1018.089172 1314.997070,1013.441833 1309.315552,1008.678650 
	C1307.595703,1010.911987 1305.961548,1013.214661 1304.145386,1015.363525 
	C1291.037964,1030.872070 1278.478638,1046.897339 1264.610352,1061.694946 
	C1248.015015,1079.402344 1230.973999,1096.817261 1212.883057,1112.966187 
	C1190.389038,1133.045410 1166.088379,1150.959473 1138.615112,1163.937744 
	C1123.770996,1170.950317 1108.976562,1178.265381 1093.592407,1183.892944 
	C1068.927124,1192.915527 1043.598389,1199.972168 1017.443665,1203.334351 
	C998.177490,1205.811035 978.872742,1208.066284 959.533508,1209.864136 
	C949.635559,1210.784424 939.555237,1209.838501 929.680542,1210.891235 
	C915.836487,1212.366821 902.148315,1215.258301 888.319702,1216.936523 
	C863.558594,1219.941895 838.764709,1222.719360 813.943054,1225.171631 
	C789.973206,1227.539551 766.024536,1226.333130 742.358704,1222.118042 
	C726.010498,1219.206177 709.781738,1215.440552 693.694092,1211.300903 
	C678.445435,1207.376831 663.438782,1202.506104 648.351013,1197.967285 
	C644.542419,1196.821655 640.824646,1195.371094 637.075684,1194.031006 
	C621.600586,1188.499023 606.051819,1183.161255 590.680176,1177.354980 
	C577.175964,1172.254028 563.798889,1166.796143 550.501038,1161.175659 
	C538.271301,1156.006470 526.101807,1150.661377 514.128357,1144.928955 
	C503.051910,1139.625854 492.212463,1133.815430 481.375092,1128.028931 
	C470.172363,1122.047607 457.515350,1118.520752 448.329437,1108.558105 
	C439.876373,1114.057373 431.486084,1119.738892 422.881226,1125.074341 
	C388.765381,1146.227905 351.084320,1157.104004 311.776367,1163.022705 
	C285.023499,1167.050903 258.023132,1166.881348 231.057571,1166.986572 
	C228.234711,1166.997559 225.381577,1166.834717 222.591324,1166.422241 
	C200.412216,1163.142578 178.278610,1159.530884 156.058609,1156.563599 
	C146.200699,1155.247070 136.072510,1154.483521 126.572777,1158.799927 
	C115.358757,1163.894897 110.233902,1174.289917 105.857590,1184.690552 
	C94.981987,1210.537109 92.061028,1237.962036 94.452751,1265.479858 
	C95.992363,1283.193604 100.907661,1300.687134 105.146667,1318.075439 
	C111.025269,1342.189331 122.281021,1364.118286 134.586746,1385.482788 
	C142.879715,1399.880493 151.813812,1413.910400 160.038071,1428.345947 
	C171.300400,1448.113647 182.364716,1468.045044 189.133270,1489.916992 
	C193.546509,1504.177979 197.579269,1518.571289 201.279633,1533.033936 
	C204.120026,1544.135376 205.408813,1555.675049 208.789246,1566.585571 
	C212.356064,1578.097778 217.155426,1589.291748 222.187683,1600.271362 
	C229.929672,1617.163208 240.760803,1632.170654 253.230408,1645.833740 
	C277.395660,1672.311768 305.701080,1693.722412 336.448578,1711.975586 
	C342.866943,1715.785645 349.187439,1720.022705 356.078156,1722.723267 
	C372.900879,1729.316284 389.792236,1735.948486 407.117615,1740.973267 
	C419.609680,1744.596069 432.836761,1747.406250 445.749298,1747.461548 
	C466.121429,1747.548828 485.947906,1742.617310 504.840210,1734.535645 
	C527.080811,1725.021362 547.523254,1713.119263 563.479614,1694.280884 
	C577.847656,1677.317749 589.816956,1658.817261 601.015442,1639.723267 
	C604.781250,1633.302612 608.845947,1627.057007 612.924683,1620.488892 
	C610.779480,1619.554199 609.164124,1618.673340 607.442322,1618.129272 
	C596.841492,1614.778320 586.275452,1611.296753 575.586060,1608.251099 
	C559.291321,1603.608032 543.077148,1598.458862 526.518372,1595.018555 
	C501.803253,1589.883911 476.770050,1586.302124 451.961304,1581.590332 
	C426.574097,1576.769043 401.713898,1569.843140 378.428802,1558.460083 
	C353.949097,1546.493042 329.906891,1533.634399 305.581024,1521.348511 
	C282.584351,1509.734131 259.477081,1498.470093 238.915939,1482.534668 
	C224.910263,1471.679932 211.824219,1459.973877 200.235123,1446.666260 
	C181.854172,1425.559692 167.640945,1402.209595 163.293625,1373.914917 
	C159.729050,1350.715088 161.550644,1328.153198 171.231873,1306.512573 
	C178.407806,1290.471924 187.998581,1276.109253 202.206223,1265.547119 
	C222.671158,1250.333008 245.726013,1244.525757 271.266937,1246.766235 
	C296.579437,1248.986816 318.352325,1259.190674 338.349640,1273.930786 
	C359.813080,1289.751831 376.675140,1310.297607 394.677795,1329.665039 
	C413.571320,1349.990845 430.334900,1372.480469 453.680084,1388.317017 
	C464.413879,1395.598267 475.369354,1402.550903 488.080566,1405.942993 
	C504.862457,1410.421387 521.912354,1411.908936 539.331177,1412.073242 
	C568.037415,1412.343506 594.627991,1404.348022 620.104065,1392.640015 
	C645.185181,1381.113647 669.182129,1367.447510 690.108215,1348.975220 
	C704.816895,1335.991333 720.047913,1323.599609 734.769714,1310.630127 
	C743.245483,1303.163208 752.412109,1296.656128 763.880920,1296.891724 
	C781.859619,1297.260986 803.677551,1318.667114 794.535095,1340.936157 
	C790.397217,1351.015137 789.335144,1359.918335 789.938477,1370.434082 
	C791.056213,1389.915405 788.159607,1409.283569 783.570679,1428.282715 
	C778.192200,1450.550293 772.497253,1472.741211 767.077209,1494.998901 
	C764.198242,1506.821411 759.526855,1517.546143 751.029297,1526.595825 
	C744.427063,1533.627197 738.335999,1541.170532 732.411255,1548.792236 
	C729.632141,1552.367432 726.894897,1556.412598 725.685303,1560.682861 
	C722.791504,1570.898315 720.958435,1581.408569 718.430481,1591.734619 
	C715.431091,1603.986450 712.152222,1616.169800 709.057068,1628.140625 
	C716.552917,1628.140625 723.670532,1628.288818 730.780151,1628.114258 
	C757.402405,1627.460938 783.491699,1632.357544 809.589172,1636.306152 
	C847.891968,1642.101562 885.962280,1649.416260 924.196228,1655.689453 
	C946.496826,1659.348389 968.986450,1659.253906 989.961182,1650.167236 
	C1008.187134,1642.271118 1025.514648,1632.268188 1043.095459,1622.925659 
	C1059.367920,1614.278198 1075.451172,1605.273926 1091.611450,1596.415771 
	C1092.328979,1596.022461 1093.141724,1595.648560 1093.645630,1595.045044 
	C1097.269775,1590.703857 1101.053101,1586.470093 1104.363403,1581.896484 
	C1117.821411,1563.302612 1131.867676,1545.071045 1144.196167,1525.748413 
	C1150.973022,1515.126953 1156.078003,1502.973022 1159.523804,1490.825562 
	C1162.844482,1479.119141 1163.919189,1466.568481 1164.441895,1454.323120 
	C1165.249146,1435.411133 1164.949707,1416.440552 1164.715210,1397.499878 
	C1164.589966,1387.382202 1161.408813,1378.572144 1151.554077,1373.471313 
	C1149.404907,1372.358887 1147.774780,1370.243896 1145.392944,1368.105835 
M577.584839,718.100342 
	C577.064331,729.717407 576.115295,741.333984 576.103455,752.951538 
	C576.067566,788.163818 580.701050,822.940613 586.671204,857.562073 
	C590.708191,880.972900 595.055054,904.332947 598.797485,927.790100 
	C599.823364,934.220093 601.182556,939.776794 606.296326,944.392456 
	C609.412842,947.205505 611.247620,951.432861 613.681396,955.009094 
	C624.447571,970.829590 634.922058,986.859863 646.077515,1002.401123 
	C657.427429,1018.213379 669.077026,1033.844849 681.320557,1048.968384 
	C688.621765,1057.986938 696.710144,1066.589600 705.529907,1074.105591 
	C718.823853,1085.434570 733.969849,1094.098267 749.367065,1102.495728 
	C777.929688,1118.073242 808.065918,1128.992065 839.671570,1136.021484 
	C856.042725,1139.662598 872.536255,1142.882568 889.103638,1145.463501 
	C899.073853,1147.016724 909.443420,1148.399292 919.367676,1147.348145 
	C938.994324,1145.269165 958.436035,1141.445557 977.955017,1138.348145 
	C985.176270,1137.202271 992.155640,1137.733643 999.014465,1140.608887 
	C1001.295776,1141.565308 1004.205078,1141.954346 1006.624329,1141.506592 
	C1029.677612,1137.239136 1052.529297,1132.264282 1074.426514,1123.487183 
	C1094.856934,1115.297729 1114.566162,1105.833984 1132.767944,1093.384888 
	C1154.957764,1078.208008 1175.096924,1060.575684 1194.596313,1042.136353 
	C1211.454102,1026.194946 1226.396606,1008.571472 1240.881226,990.528687 
	C1249.410278,979.904480 1257.841675,969.197571 1266.058350,958.332214 
	C1267.201050,956.821045 1267.201782,954.174194 1267.135986,952.071655 
	C1266.934448,945.623230 1265.841431,939.147278 1266.230347,932.751099 
	C1266.636597,926.069519 1269.850586,920.177734 1275.578979,916.368408 
	C1282.968384,911.454468 1290.774292,907.414246 1300.025269,907.142517 
	C1301.543091,907.097961 1303.612671,906.075684 1304.426270,904.843994 
	C1313.398193,891.260010 1322.898438,877.945129 1330.730469,863.717773 
	C1335.530029,854.999023 1338.786377,845.054932 1340.821045,835.263306 
	C1346.062622,810.038635 1336.734497,787.581787 1324.577271,766.439819 
	C1313.144897,746.558594 1297.303711,730.052490 1280.283691,714.776611 
	C1257.145874,694.009766 1231.786377,676.192871 1204.077026,662.297119 
	C1180.513428,650.480286 1156.273071,639.740112 1131.587646,630.515625 
	C1110.352539,622.580322 1088.300171,616.440735 1066.183716,611.357727 
	C1040.329102,605.415588 1014.110657,600.835205 987.868164,596.867615 
	C964.904602,593.395691 941.717834,591.281311 918.577820,589.123596 
	C885.528992,586.041870 852.385132,586.711304 819.344482,588.932617 
	C800.833069,590.177124 782.440186,593.353455 764.032898,595.937561 
	C737.274780,599.694092 711.395020,607.044495 685.946777,615.923523 
	C668.114868,622.145264 650.581177,625.406555 634.300903,613.682251 
	C599.240051,639.541565 581.260315,674.478821 577.584839,718.100342 
M1692.893433,923.324280 
	C1689.279663,929.669373 1685.665894,936.014465 1682.807251,941.033691 
	C1686.309570,947.317261 1690.621460,952.547363 1692.224854,958.506226 
	C1694.749756,967.888611 1695.684570,977.732788 1696.874878,987.432739 
	C1698.876953,1003.747925 1699.552368,1020.290833 1702.577148,1036.401611 
	C1708.380127,1067.310791 1714.390747,1098.109497 1716.872192,1129.554077 
	C1718.483521,1149.973389 1717.719360,1170.173340 1714.406616,1190.241943 
	C1710.045166,1216.662354 1699.161011,1240.447388 1682.905762,1261.682983 
	C1677.458252,1268.799805 1671.752075,1275.826904 1665.390869,1282.112427 
	C1654.286011,1293.084839 1643.340942,1304.453979 1630.947510,1313.831055 
	C1613.317139,1327.170654 1594.612061,1339.216797 1573.537109,1346.741455 
	C1551.333862,1354.668945 1529.099121,1362.524048 1506.726196,1369.953735 
	C1496.750366,1373.266479 1486.402954,1375.460449 1475.902832,1378.247314 
	C1482.553955,1386.940186 1491.720337,1390.659912 1500.776978,1394.210327 
	C1507.190430,1396.724609 1513.964233,1398.690674 1520.757202,1399.793457 
	C1538.817139,1402.726074 1557.004883,1401.464111 1575.055664,1399.616943 
	C1587.774414,1398.315308 1600.618774,1396.694092 1612.945557,1393.457642 
	C1633.169312,1388.147949 1653.141602,1381.780762 1672.985229,1375.156250 
	C1688.407104,1370.007690 1703.415649,1363.633911 1718.713379,1358.096191 
	C1729.603149,1354.154053 1740.243286,1349.026489 1752.371460,1349.867554 
	C1753.750488,1349.963135 1755.485962,1348.786621 1756.634521,1347.738159 
	C1767.932373,1337.425781 1779.187866,1327.065552 1790.357178,1316.614136 
	C1797.034302,1310.366211 1803.846924,1304.218628 1810.045532,1297.514648 
	C1819.641846,1287.135986 1829.099854,1276.592529 1838.017700,1265.631714 
	C1854.779663,1245.029785 1868.400391,1222.602905 1873.474365,1196.093628 
	C1875.406616,1185.997803 1876.333008,1175.206909 1870.592773,1166.006592 
	C1866.987427,1160.228149 1861.727539,1155.177856 1856.356812,1150.862793 
	C1841.200806,1138.686768 1825.224731,1127.515137 1810.285034,1115.090210 
	C1794.359253,1101.845215 1782.393677,1085.371826 1781.498901,1063.958618 
	C1780.836304,1048.102295 1782.319214,1032.071289 1784.016968,1016.243591 
	C1784.693970,1009.930603 1787.196411,1002.860962 1791.178467,998.047241 
	C1800.311890,987.006653 1813.366211,985.501587 1826.722290,987.862183 
	C1830.378784,988.508484 1834.289062,990.793152 1836.939087,993.461792 
	C1843.920288,1000.492188 1848.689819,1008.839844 1847.787231,1019.299561 
	C1847.392456,1023.875061 1848.391357,1027.327026 1852.242188,1030.517822 
	C1855.169800,1032.943726 1857.238892,1036.766968 1858.849243,1040.346558 
	C1862.255127,1047.917480 1865.015015,1055.776978 1868.277466,1063.416626 
	C1868.887817,1064.845947 1870.485352,1066.654419 1871.832886,1066.846680 
	C1889.023682,1069.299072 1905.775635,1067.782715 1920.976562,1058.795532 
	C1945.782593,1044.129883 1958.152466,1020.739258 1963.897705,993.636841 
	C1968.854858,970.252380 1972.654297,946.611755 1976.525635,923.012207 
	C1978.485840,911.063416 1980.164795,898.988525 1980.749390,886.911560 
	C1981.807617,865.052124 1979.851440,843.333008 1974.889648,821.965454 
	C1969.673584,799.502930 1961.522461,778.491272 1945.119873,761.471375 
	C1930.439209,746.238098 1912.167358,740.008179 1891.560425,740.133179 
	C1869.235107,740.268555 1849.495117,749.642456 1830.236938,759.450195 
	C1818.285767,765.536621 1807.461670,773.805847 1795.969849,780.830566 
	C1774.307617,794.072205 1754.236450,810.054810 1730.155640,819.173462 
	C1728.840210,819.671570 1727.314575,821.151245 1726.982178,822.453491 
	C1725.138306,829.678406 1723.936768,837.073792 1721.946411,844.253174 
	C1718.401978,857.038025 1715.106201,869.953735 1710.494141,882.364136 
	C1705.410400,896.043335 1698.961792,909.215210 1692.893433,923.324280 
M1157.595825,1621.104980 
	C1146.816284,1635.535400 1136.036621,1649.965698 1124.871948,1664.911621 
	C1127.557251,1664.911621 1129.534424,1665.004883 1131.500610,1664.896240 
	C1143.098755,1664.255981 1154.694824,1663.575195 1166.290771,1662.895142 
	C1175.584961,1662.350098 1184.957153,1662.364502 1194.153687,1661.101929 
	C1209.422852,1659.005859 1220.744385,1665.420776 1229.776978,1676.657959 
	C1232.204102,1679.677734 1234.625366,1681.085571 1238.112549,1681.985962 
	C1245.331787,1683.850220 1252.590088,1685.732178 1259.572510,1688.310181 
	C1275.048340,1694.024048 1287.921509,1704.184082 1301.295410,1713.474854 
	C1303.121948,1714.743652 1305.488403,1715.722778 1307.681519,1715.902832 
	C1340.757324,1718.617554 1373.868774,1718.068481 1406.988159,1716.799316 
	C1418.635864,1716.352905 1428.541382,1712.075073 1437.177734,1704.316650 
	C1446.434326,1696.001221 1453.038940,1685.557617 1457.672729,1674.491699 
	C1465.089600,1656.779541 1471.350342,1638.493286 1476.768311,1620.058228 
	C1482.626343,1600.125977 1491.069702,1581.921509 1504.643921,1566.057617 
	C1517.057373,1551.550537 1533.424927,1542.629517 1549.364868,1532.998657 
	C1555.874390,1529.065674 1562.715942,1525.422974 1568.467407,1520.541870 
	C1587.899414,1504.049683 1597.501831,1479.795166 1615.339355,1461.085571 
	C1586.162842,1465.947266 1557.799683,1469.210449 1529.049072,1467.424438 
	C1513.734619,1466.472900 1498.571411,1464.554321 1484.250244,1458.905640 
	C1475.808472,1455.575928 1467.686035,1451.308228 1459.727539,1446.906250 
	C1437.328613,1434.517700 1420.146729,1416.256348 1403.975708,1396.845947 
	C1394.744995,1385.766357 1385.685425,1374.446167 1375.511230,1364.271851 
	C1356.803223,1345.563354 1334.388184,1341.852783 1309.839600,1350.964355 
	C1300.842529,1354.303711 1292.138550,1358.433716 1283.304810,1362.211792 
	C1265.601440,1369.783325 1247.923828,1377.416138 1230.171265,1384.870361 
	C1227.794800,1385.868164 1226.867188,1386.977295 1227.007080,1389.594360 
	C1227.494751,1398.714722 1228.194214,1407.857178 1227.998291,1416.973755 
	C1227.570190,1436.913208 1226.821167,1456.850342 1225.868042,1476.772461 
	C1224.937378,1496.227173 1220.583618,1515.214233 1213.419800,1533.104858 
	C1200.427612,1565.550293 1179.274536,1593.148682 1157.595825,1621.104980 
M1713.953491,1490.381714 
	C1713.953491,1470.728638 1713.953491,1451.075684 1713.953491,1430.906982 
	C1710.022217,1432.565552 1706.742432,1433.949341 1703.569336,1435.287964 
	C1705.813721,1439.963745 1708.386353,1444.133057 1709.877808,1448.658813 
	C1713.998779,1461.163574 1707.175537,1470.663086 1699.938843,1479.450073 
	C1696.463379,1483.670044 1691.701294,1487.471924 1686.731201,1489.697144 
	C1672.897217,1495.890625 1661.344727,1504.671021 1652.281494,1516.725952 
	C1642.400879,1529.868164 1632.878174,1543.283936 1622.818481,1556.285767 
	C1611.896973,1570.401978 1598.659058,1581.990967 1582.481079,1589.784668 
	C1570.067993,1595.764282 1558.691895,1603.195435 1549.149048,1613.080322 
	C1545.675903,1616.677856 1542.632690,1621.240601 1540.970215,1625.922852 
	C1537.375244,1636.047485 1535.072510,1646.622437 1531.755615,1656.855713 
	C1521.292847,1689.134399 1507.320068,1719.464111 1485.527344,1746.074341 
	C1467.797729,1767.723389 1445.699707,1779.651489 1418.111084,1782.183716 
	C1412.654541,1782.684448 1407.241699,1783.662109 1401.269531,1784.495117 
	C1413.845337,1794.030151 1425.483521,1803.794556 1438.086670,1812.093628 
	C1447.137085,1818.053223 1457.019897,1823.659302 1467.336182,1826.597778 
	C1489.287842,1832.850342 1511.338501,1828.938354 1532.558350,1822.156006 
	C1545.608276,1817.984741 1558.082520,1811.883057 1570.576294,1806.129395 
	C1592.588989,1795.992676 1611.364014,1781.102417 1628.975830,1764.738525 
	C1643.433105,1751.305664 1655.963379,1736.129639 1665.523438,1718.852661 
	C1673.619385,1704.221313 1681.667358,1689.411621 1687.886475,1673.937256 
	C1693.921631,1658.920776 1698.033203,1643.072876 1702.218872,1627.384521 
	C1709.293579,1600.867065 1713.876221,1573.798950 1715.736816,1546.461670 
	C1716.984131,1528.136230 1717.097778,1509.609741 1713.953491,1490.381714 
M355.555298,1378.947754 
	C352.189270,1375.255005 348.787506,1371.594238 345.463470,1367.864014 
	C331.507629,1352.203369 316.627411,1337.534546 299.995056,1324.677368 
	C288.246796,1315.595703 275.073639,1311.066528 260.233704,1310.997925 
	C253.375320,1310.966187 247.628189,1313.143311 242.615662,1317.811890 
	C233.293869,1326.494263 229.462128,1337.481689 228.487640,1349.838257 
	C227.110565,1367.300049 229.903625,1383.676636 240.877869,1397.892090 
	C258.847473,1421.169189 282.371521,1437.596802 307.961945,1451.230591 
	C324.820526,1460.212158 342.284302,1468.058960 359.130920,1477.061523 
	C378.641388,1487.488037 398.022736,1498.012207 418.881073,1505.694092 
	C436.313660,1512.114502 454.266510,1516.028564 472.477692,1519.042114 
	C484.618164,1521.051270 496.971161,1522.003418 508.961090,1524.644775 
	C529.704834,1529.214966 550.203552,1534.884644 570.873291,1539.806885 
	C594.540161,1545.442871 617.524414,1553.119629 640.092896,1562.123047 
	C642.051819,1562.904541 643.999084,1563.715332 645.805786,1564.453003 
	C656.802979,1548.008057 667.234497,1531.822388 678.296997,1516.080200 
	C685.255676,1506.177979 692.900391,1496.719116 700.752625,1487.500366 
	C704.566101,1483.023193 707.175354,1478.373657 708.093628,1472.637695 
	C708.459534,1470.351807 709.116821,1468.109497 709.691711,1465.860352 
	C713.024597,1452.821289 716.530273,1439.823486 719.642578,1426.732178 
	C721.009521,1420.982544 721.585144,1415.044556 722.558960,1408.948975 
	C721.516235,1409.109497 720.943359,1409.035645 720.579956,1409.277222 
	C712.005920,1414.974121 703.549194,1420.852905 694.880920,1426.401367 
	C670.820251,1441.802612 644.891663,1453.487671 618.078735,1462.973145 
	C577.278198,1477.407104 535.358887,1480.350342 492.671631,1472.996948 
	C474.312195,1469.834351 456.599609,1464.595337 440.758636,1454.857056 
	C427.084595,1446.450928 414.108124,1436.836182 401.296814,1427.130615 
	C394.448822,1421.942871 388.258667,1415.753540 382.382233,1409.447144 
	C373.316742,1399.718506 364.775360,1389.501587 355.555298,1378.947754 
M1111.634888,1760.135376 
	C1120.946533,1750.315674 1130.258179,1740.496094 1140.159546,1730.054565 
	C1128.976929,1730.593018 1118.862671,1731.166626 1108.741211,1731.543457 
	C1098.291870,1731.932617 1087.446899,1734.034790 1077.465942,1731.999390 
	C1058.932617,1728.220337 1044.157104,1717.982666 1036.695068,1699.435669 
	C1031.149048,1702.077759 1025.459961,1704.776489 1019.780457,1707.495239 
	C991.699646,1720.937378 961.913635,1726.819336 931.148010,1723.575562 
	C902.098145,1720.512939 873.297485,1715.015869 844.427734,1710.339844 
	C826.051270,1707.363159 807.799500,1703.595093 789.397339,1700.805786 
	C773.640625,1698.417480 757.787048,1696.437866 741.904541,1695.192261 
	C731.430298,1694.370850 720.828979,1695.170410 709.196594,1695.251709 
	C711.632935,1702.640381 713.203552,1708.591919 715.536316,1714.228149 
	C720.263123,1725.648071 730.454224,1730.795288 741.056213,1735.122803 
	C763.810120,1744.410278 786.485779,1753.922852 809.488831,1762.556030 
	C826.276062,1768.856323 842.269470,1776.796387 856.692139,1787.057617 
	C873.991577,1799.365601 889.828735,1813.717773 906.453613,1826.991089 
	C912.156128,1831.543945 917.935730,1836.258179 924.353516,1839.608643 
	C942.829590,1849.254395 962.512878,1851.010864 982.391602,1845.094971 
	C1003.077454,1838.938721 1021.902649,1828.479736 1039.935913,1816.839844 
	C1065.427124,1800.386108 1088.994507,1781.392090 1111.634888,1760.135376 
M625.246216,1086.234497 
	C606.713867,1061.111694 588.181580,1035.988892 569.282349,1010.368774 
	C546.162781,1025.295776 531.724915,1050.602783 507.756042,1066.330322 
	C563.188965,1098.027832 621.349487,1120.286377 681.136414,1138.749756 
	C680.748901,1137.798706 680.126343,1137.300659 679.510559,1136.794312 
	C669.137634,1128.267944 658.377991,1120.161621 648.513733,1111.082520 
	C640.361145,1103.578735 633.266785,1094.925415 625.246216,1086.234497 
z"/>
<path fill="#E51837" opacity="1.000000" stroke="none" 
	d="
M1.000016,1291.468628 
	C12.985146,1302.292725 25.038567,1313.514648 36.889435,1324.946655 
	C38.914509,1326.900146 40.778595,1329.554565 41.521912,1332.218628 
	C47.846092,1354.885010 56.185005,1376.770386 67.626923,1397.312988 
	C79.435478,1418.514038 92.587234,1438.981567 103.998367,1460.384644 
	C113.595009,1478.384521 122.902832,1496.773926 129.807892,1515.904297 
	C136.134247,1533.431274 139.251007,1552.139526 143.470428,1570.399414 
	C152.209000,1608.216309 167.565826,1642.722412 192.329544,1672.998535 
	C211.897232,1696.921875 232.548050,1719.713501 257.779510,1737.698364 
	C277.099518,1751.469482 296.369171,1765.788574 317.316376,1776.681030 
	C344.479492,1790.805786 372.923798,1802.414917 403.342041,1808.822754 
	C438.252899,1816.177002 472.496185,1814.873169 506.297241,1804.258301 
	C535.565063,1795.066772 562.744934,1781.617310 585.928833,1761.021362 
	C606.597961,1742.659546 623.937439,1721.523682 638.417358,1698.005493 
	C639.863770,1695.656372 641.347900,1693.330322 643.228455,1690.333862 
	C644.516052,1697.543213 645.486206,1703.864136 646.788452,1710.115967 
	C653.109741,1740.462769 666.458557,1766.606934 692.890381,1784.342407 
	C710.560791,1796.198975 730.846191,1802.450073 750.453369,1810.232300 
	C771.576416,1818.616333 792.777832,1827.228882 812.727295,1837.997681 
	C826.593689,1845.482788 838.765564,1856.339478 851.043884,1866.477783 
	C868.091370,1880.553711 883.828369,1896.550659 905.180847,1904.177368 
	C921.270569,1909.924316 937.554993,1915.531250 955.159485,1914.194946 
	C965.368835,1913.419922 975.830017,1913.969727 985.762512,1911.915161 
	C1015.651733,1905.732544 1042.321167,1891.935303 1067.232910,1874.672363 
	C1084.028687,1863.033325 1101.094360,1851.673462 1117.005859,1838.901367 
	C1130.974121,1827.688843 1143.749512,1814.936401 1156.608765,1802.409546 
	C1173.056030,1786.386841 1189.078979,1769.927734 1205.227783,1753.600586 
	C1207.207275,1751.599121 1208.813110,1749.231567 1210.632568,1747.067871 
	C1215.659058,1741.090332 1218.837891,1739.601440 1226.127319,1742.961304 
	C1234.954956,1747.029785 1243.536621,1751.912964 1251.508545,1757.470825 
	C1258.400513,1762.275635 1264.062256,1768.809570 1270.713379,1774.009155 
	C1274.424072,1776.910156 1279.140259,1778.488525 1283.226440,1780.955933 
	C1287.468384,1783.517212 1291.503296,1786.422241 1295.617432,1789.193848 
	C1311.623779,1799.976929 1327.779785,1810.546997 1343.570923,1821.636841 
	C1352.954590,1828.226562 1361.737915,1835.668091 1370.832153,1842.673462 
	C1388.766968,1856.488281 1406.653687,1870.408203 1427.653076,1879.465820 
	C1444.747559,1886.838989 1462.593994,1891.003784 1481.232910,1892.032227 
	C1506.435791,1893.422852 1531.067871,1890.135864 1555.081421,1882.803223 
	C1573.539673,1877.166870 1591.072632,1869.197510 1607.989746,1859.777100 
	C1626.829102,1849.286499 1644.451172,1837.078247 1660.694336,1823.018311 
	C1679.476074,1806.760986 1697.120239,1789.077637 1710.938965,1768.455078 
	C1722.639038,1750.994263 1732.674194,1732.277466 1742.001343,1713.402588 
	C1753.643799,1689.842285 1761.055298,1664.592041 1767.299561,1639.108398 
	C1775.379761,1606.132202 1781.715942,1572.802368 1782.805908,1538.766479 
	C1783.231079,1525.488281 1782.273804,1512.147461 1781.566528,1498.855469 
	C1780.472168,1478.290771 1777.681885,1457.810425 1780.488647,1437.122681 
	C1781.554321,1429.269409 1780.765991,1421.176025 1781.110596,1413.204590 
	C1781.184448,1411.491699 1782.034546,1409.223633 1783.316528,1408.239868 
	C1803.556885,1392.707153 1822.184570,1375.410156 1840.066650,1357.253052 
	C1850.440918,1346.719238 1861.374878,1336.727783 1871.565674,1326.024292 
	C1885.361572,1311.534424 1897.728760,1295.803833 1907.809326,1278.506714 
	C1915.151489,1265.908569 1922.026367,1252.966797 1928.077759,1239.707275 
	C1934.408081,1225.836426 1935.928833,1210.659058 1938.149780,1195.658447 
	C1940.794556,1177.796387 1939.953735,1160.532837 1933.213013,1143.720337 
	C1931.187256,1138.667603 1928.799072,1133.760254 1926.955933,1129.634766 
	C1938.425903,1123.855225 1950.882812,1119.191406 1961.495850,1111.858765 
	C1978.092773,1100.391968 1996.480103,1090.841553 2009.036987,1074.278931 
	C2024.232910,1054.235596 2038.475098,1033.560791 2048.659180,1010.106995 
	C2049.000000,1356.293945 2049.000000,1702.587891 2049.000000,2048.940918 
	C1366.450317,2048.940918 683.900574,2048.940918 1.000000,2048.940918 
	C1.000000,1796.645874 1.000000,1544.291504 1.000016,1291.468628 
z"/>
<path fill="#E51837" opacity="1.000000" stroke="none" 
	d="
M1145.649170,1368.348267 
	C1147.774780,1370.243896 1149.404907,1372.358887 1151.554077,1373.471313 
	C1161.408813,1378.572144 1164.589966,1387.382202 1164.715210,1397.499878 
	C1164.949707,1416.440552 1165.249146,1435.411133 1164.441895,1454.323120 
	C1163.919189,1466.568481 1162.844482,1479.119141 1159.523804,1490.825562 
	C1156.078003,1502.973022 1150.973022,1515.126953 1144.196167,1525.748413 
	C1131.867676,1545.071045 1117.821411,1563.302612 1104.363403,1581.896484 
	C1101.053101,1586.470093 1097.269775,1590.703857 1093.645630,1595.045044 
	C1093.141724,1595.648560 1092.328979,1596.022461 1091.611450,1596.415771 
	C1075.451172,1605.273926 1059.367920,1614.278198 1043.095459,1622.925659 
	C1025.514648,1632.268188 1008.187134,1642.271118 989.961182,1650.167236 
	C968.986450,1659.253906 946.496826,1659.348389 924.196228,1655.689453 
	C885.962280,1649.416260 847.891968,1642.101562 809.589172,1636.306152 
	C783.491699,1632.357544 757.402405,1627.460938 730.780151,1628.114258 
	C723.670532,1628.288818 716.552917,1628.140625 709.057068,1628.140625 
	C712.152222,1616.169800 715.431091,1603.986450 718.430481,1591.734619 
	C720.958435,1581.408569 722.791504,1570.898315 725.685303,1560.682861 
	C726.894897,1556.412598 729.632141,1552.367432 732.411255,1548.792236 
	C738.335999,1541.170532 744.427063,1533.627197 751.029297,1526.595825 
	C759.526855,1517.546143 764.198242,1506.821411 767.077209,1494.998901 
	C772.497253,1472.741211 778.192200,1450.550293 783.570679,1428.282715 
	C788.159607,1409.283569 791.056213,1389.915405 789.938477,1370.434082 
	C789.335144,1359.918335 790.397217,1351.015137 794.535095,1340.936157 
	C803.677551,1318.667114 781.859619,1297.260986 763.880920,1296.891724 
	C752.412109,1296.656128 743.245483,1303.163208 734.769714,1310.630127 
	C720.047913,1323.599609 704.816895,1335.991333 690.108215,1348.975220 
	C669.182129,1367.447510 645.185181,1381.113647 620.104065,1392.640015 
	C594.627991,1404.348022 568.037415,1412.343506 539.331177,1412.073242 
	C521.912354,1411.908936 504.862457,1410.421387 488.080566,1405.942993 
	C475.369354,1402.550903 464.413879,1395.598267 453.680084,1388.317017 
	C430.334900,1372.480469 413.571320,1349.990845 394.677795,1329.665039 
	C376.675140,1310.297607 359.813080,1289.751831 338.349640,1273.930786 
	C318.352325,1259.190674 296.579437,1248.986816 271.266937,1246.766235 
	C245.726013,1244.525757 222.671158,1250.333008 202.206223,1265.547119 
	C187.998581,1276.109253 178.407806,1290.471924 171.231873,1306.512573 
	C161.550644,1328.153198 159.729050,1350.715088 163.293625,1373.914917 
	C167.640945,1402.209595 181.854172,1425.559692 200.235123,1446.666260 
	C211.824219,1459.973877 224.910263,1471.679932 238.915939,1482.534668 
	C259.477081,1498.470093 282.584351,1509.734131 305.581024,1521.348511 
	C329.906891,1533.634399 353.949097,1546.493042 378.428802,1558.460083 
	C401.713898,1569.843140 426.574097,1576.769043 451.961304,1581.590332 
	C476.770050,1586.302124 501.803253,1589.883911 526.518372,1595.018555 
	C543.077148,1598.458862 559.291321,1603.608032 575.586060,1608.251099 
	C586.275452,1611.296753 596.841492,1614.778320 607.442322,1618.129272 
	C609.164124,1618.673340 610.779480,1619.554199 612.924683,1620.488892 
	C608.845947,1627.057007 604.781250,1633.302612 601.015442,1639.723267 
	C589.816956,1658.817261 577.847656,1677.317749 563.479614,1694.280884 
	C547.523254,1713.119263 527.080811,1725.021362 504.840210,1734.535645 
	C485.947906,1742.617310 466.121429,1747.548828 445.749298,1747.461548 
	C432.836761,1747.406250 419.609680,1744.596069 407.117615,1740.973267 
	C389.792236,1735.948486 372.900879,1729.316284 356.078156,1722.723267 
	C349.187439,1720.022705 342.866943,1715.785645 336.448578,1711.975586 
	C305.701080,1693.722412 277.395660,1672.311768 253.230408,1645.833740 
	C240.760803,1632.170654 229.929672,1617.163208 222.187683,1600.271362 
	C217.155426,1589.291748 212.356064,1578.097778 208.789246,1566.585571 
	C205.408813,1555.675049 204.120026,1544.135376 201.279633,1533.033936 
	C197.579269,1518.571289 193.546509,1504.177979 189.133270,1489.916992 
	C182.364716,1468.045044 171.300400,1448.113647 160.038071,1428.345947 
	C151.813812,1413.910400 142.879715,1399.880493 134.586746,1385.482788 
	C122.281021,1364.118286 111.025269,1342.189331 105.146667,1318.075439 
	C100.907661,1300.687134 95.992363,1283.193604 94.452751,1265.479858 
	C92.061028,1237.962036 94.981987,1210.537109 105.857590,1184.690552 
	C110.233902,1174.289917 115.358757,1163.894897 126.572777,1158.799927 
	C136.072510,1154.483521 146.200699,1155.247070 156.058609,1156.563599 
	C178.278610,1159.530884 200.412216,1163.142578 222.591324,1166.422241 
	C225.381577,1166.834717 228.234711,1166.997559 231.057571,1166.986572 
	C258.023132,1166.881348 285.023499,1167.050903 311.776367,1163.022705 
	C351.084320,1157.104004 388.765381,1146.227905 422.881226,1125.074341 
	C431.486084,1119.738892 439.876373,1114.057373 448.329437,1108.558105 
	C457.515350,1118.520752 470.172363,1122.047607 481.375092,1128.028931 
	C492.212463,1133.815430 503.051910,1139.625854 514.128357,1144.928955 
	C526.101807,1150.661377 538.271301,1156.006470 550.501038,1161.175659 
	C563.798889,1166.796143 577.175964,1172.254028 590.680176,1177.354980 
	C606.051819,1183.161255 621.600586,1188.499023 637.075684,1194.031006 
	C640.824646,1195.371094 644.542419,1196.821655 648.351013,1197.967285 
	C663.438782,1202.506104 678.445435,1207.376831 693.694092,1211.300903 
	C709.781738,1215.440552 726.010498,1219.206177 742.358704,1222.118042 
	C766.024536,1226.333130 789.973206,1227.539551 813.943054,1225.171631 
	C838.764709,1222.719360 863.558594,1219.941895 888.319702,1216.936523 
	C902.148315,1215.258301 915.836487,1212.366821 929.680542,1210.891235 
	C939.555237,1209.838501 949.635559,1210.784424 959.533508,1209.864136 
	C978.872742,1208.066284 998.177490,1205.811035 1017.443665,1203.334351 
	C1043.598389,1199.972168 1068.927124,1192.915527 1093.592407,1183.892944 
	C1108.976562,1178.265381 1123.770996,1170.950317 1138.615112,1163.937744 
	C1166.088379,1150.959473 1190.389038,1133.045410 1212.883057,1112.966187 
	C1230.973999,1096.817261 1248.015015,1079.402344 1264.610352,1061.694946 
	C1278.478638,1046.897339 1291.037964,1030.872070 1304.145386,1015.363525 
	C1305.961548,1013.214661 1307.595703,1010.911987 1309.315552,1008.678650 
	C1314.997070,1013.441833 1320.594482,1018.089172 1326.142456,1022.794800 
	C1341.286499,1035.639282 1358.582153,1044.836060 1377.070068,1051.602295 
	C1390.306152,1056.446533 1403.863159,1060.600220 1417.538208,1064.015869 
	C1438.911377,1069.354248 1460.714111,1068.701782 1482.561035,1067.407715 
	C1500.004639,1066.374512 1516.894531,1062.732910 1533.252441,1057.167847 
	C1558.000732,1048.748291 1581.785278,1038.029053 1603.060791,1022.503052 
	C1613.756104,1014.698059 1624.208496,1006.560486 1635.027466,998.379150 
	C1635.303711,1000.087708 1635.805542,1002.117126 1635.937500,1004.170288 
	C1637.872559,1034.277344 1644.088013,1063.711914 1649.230713,1093.352295 
	C1653.202759,1116.245972 1657.076050,1139.469604 1654.767578,1162.864014 
	C1652.901855,1181.770020 1647.061646,1199.575439 1635.315796,1214.980469 
	C1630.183472,1221.711914 1625.640991,1229.027344 1619.748779,1235.012329 
	C1611.843018,1243.042847 1603.064819,1250.254761 1594.347046,1257.436768 
	C1577.521729,1271.297974 1558.781128,1282.199829 1538.444214,1289.803101 
	C1520.900879,1296.362061 1502.907593,1301.872559 1484.827637,1306.798706 
	C1465.922852,1311.949585 1446.692749,1315.918823 1427.553589,1320.174316 
	C1425.904663,1320.541016 1423.275879,1319.754150 1422.109131,1318.537598 
	C1409.312622,1305.193970 1393.675537,1296.230957 1377.011841,1288.826172 
	C1363.010864,1282.604736 1348.184692,1279.671997 1332.985352,1279.326538 
	C1315.786987,1278.935669 1299.211914,1282.848022 1283.438477,1289.469360 
	C1264.294800,1297.505493 1245.437500,1306.222168 1226.429810,1314.584229 
	C1218.831665,1317.926880 1211.131714,1321.038574 1203.545166,1324.406494 
	C1201.179443,1325.456665 1199.913330,1325.098877 1198.143555,1323.017334 
	C1192.655640,1316.562500 1187.536865,1309.429688 1180.880859,1304.407593 
	C1166.893433,1293.853760 1148.094727,1295.637573 1136.271362,1309.068726 
	C1132.551147,1313.294800 1131.080688,1320.731445 1131.074463,1326.701172 
	C1131.065796,1335.063110 1133.348999,1343.434448 1134.730347,1351.788818 
	C1135.884521,1358.769653 1139.959839,1363.894165 1145.649170,1368.348267 
z"/>
<path fill="#E51837" opacity="1.000000" stroke="none" 
	d="
M577.629761,717.644287 
	C581.260315,674.478821 599.240051,639.541565 634.300903,613.682251 
	C650.581177,625.406555 668.114868,622.145264 685.946777,615.923523 
	C711.395020,607.044495 737.274780,599.694092 764.032898,595.937561 
	C782.440186,593.353455 800.833069,590.177124 819.344482,588.932617 
	C852.385132,586.711304 885.528992,586.041870 918.577820,589.123596 
	C941.717834,591.281311 964.904602,593.395691 987.868164,596.867615 
	C1014.110657,600.835205 1040.329102,605.415588 1066.183716,611.357727 
	C1088.300171,616.440735 1110.352539,622.580322 1131.587646,630.515625 
	C1156.273071,639.740112 1180.513428,650.480286 1204.077026,662.297119 
	C1231.786377,676.192871 1257.145874,694.009766 1280.283691,714.776611 
	C1297.303711,730.052490 1313.144897,746.558594 1324.577271,766.439819 
	C1336.734497,787.581787 1346.062622,810.038635 1340.821045,835.263306 
	C1338.786377,845.054932 1335.530029,854.999023 1330.730469,863.717773 
	C1322.898438,877.945129 1313.398193,891.260010 1304.426270,904.843994 
	C1303.612671,906.075684 1301.543091,907.097961 1300.025269,907.142517 
	C1290.774292,907.414246 1282.968384,911.454468 1275.578979,916.368408 
	C1269.850586,920.177734 1266.636597,926.069519 1266.230347,932.751099 
	C1265.841431,939.147278 1266.934448,945.623230 1267.135986,952.071655 
	C1267.201782,954.174194 1267.201050,956.821045 1266.058350,958.332214 
	C1257.841675,969.197571 1249.410278,979.904480 1240.881226,990.528687 
	C1226.396606,1008.571472 1211.454102,1026.194946 1194.596313,1042.136353 
	C1175.096924,1060.575684 1154.957764,1078.208008 1132.767944,1093.384888 
	C1114.566162,1105.833984 1094.856934,1115.297729 1074.426514,1123.487183 
	C1052.529297,1132.264282 1029.677612,1137.239136 1006.624329,1141.506592 
	C1004.205078,1141.954346 1001.295776,1141.565308 999.014465,1140.608887 
	C992.155640,1137.733643 985.176270,1137.202271 977.955017,1138.348145 
	C958.436035,1141.445557 938.994324,1145.269165 919.367676,1147.348145 
	C909.443420,1148.399292 899.073853,1147.016724 889.103638,1145.463501 
	C872.536255,1142.882568 856.042725,1139.662598 839.671570,1136.021484 
	C808.065918,1128.992065 777.929688,1118.073242 749.367065,1102.495728 
	C733.969849,1094.098267 718.823853,1085.434570 705.529907,1074.105591 
	C696.710144,1066.589600 688.621765,1057.986938 681.320557,1048.968384 
	C669.077026,1033.844849 657.427429,1018.213379 646.077515,1002.401123 
	C634.922058,986.859863 624.447571,970.829590 613.681396,955.009094 
	C611.247620,951.432861 609.412842,947.205505 606.296326,944.392456 
	C601.182556,939.776794 599.823364,934.220093 598.797485,927.790100 
	C595.055054,904.332947 590.708191,880.972900 586.671204,857.562073 
	C580.701050,822.940613 576.067566,788.163818 576.103455,752.951538 
	C576.115295,741.333984 577.064331,729.717407 577.629761,717.644287 
z"/>
<path fill="#E51837" opacity="1.000000" stroke="none" 
	d="
M713.740417,540.740356 
	C723.444031,525.451416 733.104431,510.134888 742.862122,494.880554 
	C754.953918,475.977051 766.451843,456.645081 779.449585,438.382996 
	C793.023010,419.312073 808.015198,401.246094 822.566345,382.882751 
	C824.092773,380.956451 826.652710,379.372253 829.036682,378.690125 
	C836.724182,376.490295 840.386841,369.665741 845.692078,364.799347 
	C858.183350,353.341034 869.915527,341.007324 882.876953,330.126251 
	C891.582520,322.817932 901.437683,316.570435 911.533203,311.291595 
	C931.557068,300.821381 951.802734,290.655609 972.529419,281.687592 
	C988.641113,274.716370 1005.381287,268.909241 1022.273071,264.097778 
	C1046.593872,257.170227 1071.592407,252.390930 1096.836304,251.551071 
	C1117.362305,250.868179 1138.084717,252.455856 1158.549561,254.636505 
	C1177.155884,256.619141 1195.788208,259.732086 1213.933472,264.254578 
	C1229.790405,268.206726 1245.135620,274.426086 1260.434692,280.347321 
	C1279.619629,287.772583 1296.799072,298.986450 1313.613525,310.643250 
	C1333.685913,324.558746 1353.897827,338.236755 1370.526733,356.580933 
	C1391.541626,379.763367 1413.326172,402.246338 1434.619263,425.179138 
	C1447.401245,438.945496 1460.206665,452.714203 1472.412476,466.985657 
	C1488.421143,485.703613 1504.349731,504.532562 1519.372192,524.038086 
	C1531.865601,540.259827 1541.709595,558.172852 1550.145264,576.984375 
	C1563.327881,606.381653 1569.857422,637.533630 1576.883545,668.653381 
	C1582.666870,694.268127 1588.512207,719.898621 1595.473511,745.207642 
	C1600.624634,763.935425 1607.379272,782.204956 1618.568604,798.522095 
	C1626.892212,810.660339 1637.224976,820.113708 1650.792236,825.931519 
	C1653.513184,827.098267 1656.220215,828.297119 1659.742310,829.834106 
	C1654.479614,845.152039 1649.933838,860.452209 1643.985107,875.186035 
	C1636.173462,894.533997 1625.464233,912.356384 1612.414185,928.732849 
	C1592.765381,953.390137 1569.508423,973.286743 1540.693970,986.885193 
	C1524.093872,994.719299 1506.949829,999.823914 1489.046265,1002.698364 
	C1472.952148,1005.282288 1456.805176,1004.281799 1440.861938,1001.179504 
	C1431.420044,999.342224 1421.727051,997.764282 1412.843750,994.288757 
	C1389.918701,985.319458 1367.166626,975.698486 1351.131226,955.590332 
	C1350.618286,954.947205 1350.209961,954.220581 1349.835327,953.656921 
	C1356.266968,944.161011 1362.711182,934.871277 1368.924805,925.429688 
	C1386.504761,898.717590 1401.811768,870.958618 1406.698364,838.746765 
	C1409.656738,819.245911 1407.829834,800.064514 1402.668823,781.001648 
	C1397.661865,762.508057 1389.854736,745.416321 1379.822388,729.183350 
	C1370.065796,713.396729 1358.542236,699.126282 1345.729004,685.683594 
	C1327.917847,666.997314 1307.962646,650.920959 1286.757080,636.510498 
	C1267.385864,623.346619 1247.607666,610.653931 1226.064819,601.078735 
	C1208.615967,593.323242 1191.528320,584.671753 1173.773438,577.711304 
	C1155.856934,570.687439 1137.428467,564.892700 1119.023804,559.208374 
	C1085.931396,548.987671 1052.028442,542.218079 1017.800476,537.199890 
	C996.744202,534.112732 975.624756,531.227112 954.437927,529.307495 
	C912.795471,525.534546 871.063110,523.649719 829.220154,525.634827 
	C800.926758,526.977051 772.810242,529.782349 744.958313,534.934631 
	C735.000793,536.776611 725.157654,539.236511 714.700134,541.296021 
	C714.005493,541.031860 713.872925,540.886108 713.740417,540.740356 
z"/>
<path fill="#E51938" opacity="1.000000" stroke="none" 
	d="
M1693.000610,922.966187 
	C1698.961792,909.215210 1705.410400,896.043335 1710.494141,882.364136 
	C1715.106201,869.953735 1718.401978,857.038025 1721.946411,844.253174 
	C1723.936768,837.073792 1725.138306,829.678406 1726.982178,822.453491 
	C1727.314575,821.151245 1728.840210,819.671570 1730.155640,819.173462 
	C1754.236450,810.054810 1774.307617,794.072205 1795.969849,780.830566 
	C1807.461670,773.805847 1818.285767,765.536621 1830.236938,759.450195 
	C1849.495117,749.642456 1869.235107,740.268555 1891.560425,740.133179 
	C1912.167358,740.008179 1930.439209,746.238098 1945.119873,761.471375 
	C1961.522461,778.491272 1969.673584,799.502930 1974.889648,821.965454 
	C1979.851440,843.333008 1981.807617,865.052124 1980.749390,886.911560 
	C1980.164795,898.988525 1978.485840,911.063416 1976.525635,923.012207 
	C1972.654297,946.611755 1968.854858,970.252380 1963.897705,993.636841 
	C1958.152466,1020.739258 1945.782593,1044.129883 1920.976562,1058.795532 
	C1905.775635,1067.782715 1889.023682,1069.299072 1871.832886,1066.846680 
	C1870.485352,1066.654419 1868.887817,1064.845947 1868.277466,1063.416626 
	C1865.015015,1055.776978 1862.255127,1047.917480 1858.849243,1040.346558 
	C1857.238892,1036.766968 1855.169800,1032.943726 1852.242188,1030.517822 
	C1848.391357,1027.327026 1847.392456,1023.875061 1847.787231,1019.299561 
	C1848.689819,1008.839844 1843.920288,1000.492188 1836.939087,993.461792 
	C1834.289062,990.793152 1830.378784,988.508484 1826.722290,987.862183 
	C1813.366211,985.501587 1800.311890,987.006653 1791.178467,998.047241 
	C1787.196411,1002.860962 1784.693970,1009.930603 1784.016968,1016.243591 
	C1782.319214,1032.071289 1780.836304,1048.102295 1781.498901,1063.958618 
	C1782.393677,1085.371826 1794.359253,1101.845215 1810.285034,1115.090210 
	C1825.224731,1127.515137 1841.200806,1138.686768 1856.356812,1150.862793 
	C1861.727539,1155.177856 1866.987427,1160.228149 1870.592773,1166.006592 
	C1876.333008,1175.206909 1875.406616,1185.997803 1873.474365,1196.093628 
	C1868.400391,1222.602905 1854.779663,1245.029785 1838.017700,1265.631714 
	C1829.099854,1276.592529 1819.641846,1287.135986 1810.045532,1297.514648 
	C1803.846924,1304.218628 1797.034302,1310.366211 1790.357178,1316.614136 
	C1779.187866,1327.065552 1767.932373,1337.425781 1756.634521,1347.738159 
	C1755.485962,1348.786621 1753.750488,1349.963135 1752.371460,1349.867554 
	C1740.243286,1349.026489 1729.603149,1354.154053 1718.713379,1358.096191 
	C1703.415649,1363.633911 1688.407104,1370.007690 1672.985229,1375.156250 
	C1653.141602,1381.780762 1633.169312,1388.147949 1612.945557,1393.457642 
	C1600.618774,1396.694092 1587.774414,1398.315308 1575.055664,1399.616943 
	C1557.004883,1401.464111 1538.817139,1402.726074 1520.757202,1399.793457 
	C1513.964233,1398.690674 1507.190430,1396.724609 1500.776978,1394.210327 
	C1491.720337,1390.659912 1482.553955,1386.940186 1475.902832,1378.247314 
	C1486.402954,1375.460449 1496.750366,1373.266479 1506.726196,1369.953735 
	C1529.099121,1362.524048 1551.333862,1354.668945 1573.537109,1346.741455 
	C1594.612061,1339.216797 1613.317139,1327.170654 1630.947510,1313.831055 
	C1643.340942,1304.453979 1654.286011,1293.084839 1665.390869,1282.112427 
	C1671.752075,1275.826904 1677.458252,1268.799805 1682.905762,1261.682983 
	C1699.161011,1240.447388 1710.045166,1216.662354 1714.406616,1190.241943 
	C1717.719360,1170.173340 1718.483521,1149.973389 1716.872192,1129.554077 
	C1714.390747,1098.109497 1708.380127,1067.310791 1702.577148,1036.401611 
	C1699.552368,1020.290833 1698.876953,1003.747925 1696.874878,987.432739 
	C1695.684570,977.732788 1694.749756,967.888611 1692.224854,958.506226 
	C1690.621460,952.547363 1686.309570,947.317261 1682.807251,941.033691 
	C1685.665894,936.014465 1689.279663,929.669373 1693.000610,922.966187 
z"/>
<path fill="#E51937" opacity="1.000000" stroke="none" 
	d="
M1157.818237,1620.827271 
	C1179.274536,1593.148682 1200.427612,1565.550293 1213.419800,1533.104858 
	C1220.583618,1515.214233 1224.937378,1496.227173 1225.868042,1476.772461 
	C1226.821167,1456.850342 1227.570190,1436.913208 1227.998291,1416.973755 
	C1228.194214,1407.857178 1227.494751,1398.714722 1227.007080,1389.594360 
	C1226.867188,1386.977295 1227.794800,1385.868164 1230.171265,1384.870361 
	C1247.923828,1377.416138 1265.601440,1369.783325 1283.304810,1362.211792 
	C1292.138550,1358.433716 1300.842529,1354.303711 1309.839600,1350.964355 
	C1334.388184,1341.852783 1356.803223,1345.563354 1375.511230,1364.271851 
	C1385.685425,1374.446167 1394.744995,1385.766357 1403.975708,1396.845947 
	C1420.146729,1416.256348 1437.328613,1434.517700 1459.727539,1446.906250 
	C1467.686035,1451.308228 1475.808472,1455.575928 1484.250244,1458.905640 
	C1498.571411,1464.554321 1513.734619,1466.472900 1529.049072,1467.424438 
	C1557.799683,1469.210449 1586.162842,1465.947266 1615.339355,1461.085571 
	C1597.501831,1479.795166 1587.899414,1504.049683 1568.467407,1520.541870 
	C1562.715942,1525.422974 1555.874390,1529.065674 1549.364868,1532.998657 
	C1533.424927,1542.629517 1517.057373,1551.550537 1504.643921,1566.057617 
	C1491.069702,1581.921509 1482.626343,1600.125977 1476.768311,1620.058228 
	C1471.350342,1638.493286 1465.089600,1656.779541 1457.672729,1674.491699 
	C1453.038940,1685.557617 1446.434326,1696.001221 1437.177734,1704.316650 
	C1428.541382,1712.075073 1418.635864,1716.352905 1406.988159,1716.799316 
	C1373.868774,1718.068481 1340.757324,1718.617554 1307.681519,1715.902832 
	C1305.488403,1715.722778 1303.121948,1714.743652 1301.295410,1713.474854 
	C1287.921509,1704.184082 1275.048340,1694.024048 1259.572510,1688.310181 
	C1252.590088,1685.732178 1245.331787,1683.850220 1238.112549,1681.985962 
	C1234.625366,1681.085571 1232.204102,1679.677734 1229.776978,1676.657959 
	C1220.744385,1665.420776 1209.422852,1659.005859 1194.153687,1661.101929 
	C1184.957153,1662.364502 1175.584961,1662.350098 1166.290771,1662.895142 
	C1154.694824,1663.575195 1143.098755,1664.255981 1131.500610,1664.896240 
	C1129.534424,1665.004883 1127.557251,1664.911621 1124.871948,1664.911621 
	C1136.036621,1649.965698 1146.816284,1635.535400 1157.818237,1620.827271 
z"/>
<path fill="#E51938" opacity="1.000000" stroke="none" 
	d="
M1713.982422,1490.843750 
	C1717.097778,1509.609741 1716.984131,1528.136230 1715.736816,1546.461670 
	C1713.876221,1573.798950 1709.293579,1600.867065 1702.218872,1627.384521 
	C1698.033203,1643.072876 1693.921631,1658.920776 1687.886475,1673.937256 
	C1681.667358,1689.411621 1673.619385,1704.221313 1665.523438,1718.852661 
	C1655.963379,1736.129639 1643.433105,1751.305664 1628.975830,1764.738525 
	C1611.364014,1781.102417 1592.588989,1795.992676 1570.576294,1806.129395 
	C1558.082520,1811.883057 1545.608276,1817.984741 1532.558350,1822.156006 
	C1511.338501,1828.938354 1489.287842,1832.850342 1467.336182,1826.597778 
	C1457.019897,1823.659302 1447.137085,1818.053223 1438.086670,1812.093628 
	C1425.483521,1803.794556 1413.845337,1794.030151 1401.269531,1784.495117 
	C1407.241699,1783.662109 1412.654541,1782.684448 1418.111084,1782.183716 
	C1445.699707,1779.651489 1467.797729,1767.723389 1485.527344,1746.074341 
	C1507.320068,1719.464111 1521.292847,1689.134399 1531.755615,1656.855713 
	C1535.072510,1646.622437 1537.375244,1636.047485 1540.970215,1625.922852 
	C1542.632690,1621.240601 1545.675903,1616.677856 1549.149048,1613.080322 
	C1558.691895,1603.195435 1570.067993,1595.764282 1582.481079,1589.784668 
	C1598.659058,1581.990967 1611.896973,1570.401978 1622.818481,1556.285767 
	C1632.878174,1543.283936 1642.400879,1529.868164 1652.281494,1516.725952 
	C1661.344727,1504.671021 1672.897217,1495.890625 1686.731201,1489.697144 
	C1691.701294,1487.471924 1696.463379,1483.670044 1699.938843,1479.450073 
	C1707.175537,1470.663086 1713.998779,1461.163574 1709.877808,1448.658813 
	C1708.386353,1444.133057 1705.813721,1439.963745 1703.569336,1435.287964 
	C1706.742432,1433.949341 1710.022217,1432.565552 1713.953491,1430.906982 
	C1713.953491,1451.075684 1713.953491,1470.728638 1713.982422,1490.843750 
z"/>
<path fill="#E51938" opacity="1.000000" stroke="none" 
	d="
M355.783478,1379.219727 
	C364.775360,1389.501587 373.316742,1399.718506 382.382233,1409.447144 
	C388.258667,1415.753540 394.448822,1421.942871 401.296814,1427.130615 
	C414.108124,1436.836182 427.084595,1446.450928 440.758636,1454.857056 
	C456.599609,1464.595337 474.312195,1469.834351 492.671631,1472.996948 
	C535.358887,1480.350342 577.278198,1477.407104 618.078735,1462.973145 
	C644.891663,1453.487671 670.820251,1441.802612 694.880920,1426.401367 
	C703.549194,1420.852905 712.005920,1414.974121 720.579956,1409.277222 
	C720.943359,1409.035645 721.516235,1409.109497 722.558960,1408.948975 
	C721.585144,1415.044556 721.009521,1420.982544 719.642578,1426.732178 
	C716.530273,1439.823486 713.024597,1452.821289 709.691711,1465.860352 
	C709.116821,1468.109497 708.459534,1470.351807 708.093628,1472.637695 
	C707.175354,1478.373657 704.566101,1483.023193 700.752625,1487.500366 
	C692.900391,1496.719116 685.255676,1506.177979 678.296997,1516.080200 
	C667.234497,1531.822388 656.802979,1548.008057 645.805786,1564.453003 
	C643.999084,1563.715332 642.051819,1562.904541 640.092896,1562.123047 
	C617.524414,1553.119629 594.540161,1545.442871 570.873291,1539.806885 
	C550.203552,1534.884644 529.704834,1529.214966 508.961090,1524.644775 
	C496.971161,1522.003418 484.618164,1521.051270 472.477692,1519.042114 
	C454.266510,1516.028564 436.313660,1512.114502 418.881073,1505.694092 
	C398.022736,1498.012207 378.641388,1487.488037 359.130920,1477.061523 
	C342.284302,1468.058960 324.820526,1460.212158 307.961945,1451.230591 
	C282.371521,1437.596802 258.847473,1421.169189 240.877869,1397.892090 
	C229.903625,1383.676636 227.110565,1367.300049 228.487640,1349.838257 
	C229.462128,1337.481689 233.293869,1326.494263 242.615662,1317.811890 
	C247.628189,1313.143311 253.375320,1310.966187 260.233704,1310.997925 
	C275.073639,1311.066528 288.246796,1315.595703 299.995056,1324.677368 
	C316.627411,1337.534546 331.507629,1352.203369 345.463470,1367.864014 
	C348.787506,1371.594238 352.189270,1375.255005 355.783478,1379.219727 
z"/>
<path fill="#E51938" opacity="1.000000" stroke="none" 
	d="
M1111.375732,1760.377441 
	C1088.994507,1781.392090 1065.427124,1800.386108 1039.935913,1816.839844 
	C1021.902649,1828.479736 1003.077454,1838.938721 982.391602,1845.094971 
	C962.512878,1851.010864 942.829590,1849.254395 924.353516,1839.608643 
	C917.935730,1836.258179 912.156128,1831.543945 906.453613,1826.991089 
	C889.828735,1813.717773 873.991577,1799.365601 856.692139,1787.057617 
	C842.269470,1776.796387 826.276062,1768.856323 809.488831,1762.556030 
	C786.485779,1753.922852 763.810120,1744.410278 741.056213,1735.122803 
	C730.454224,1730.795288 720.263123,1725.648071 715.536316,1714.228149 
	C713.203552,1708.591919 711.632935,1702.640381 709.196594,1695.251709 
	C720.828979,1695.170410 731.430298,1694.370850 741.904541,1695.192261 
	C757.787048,1696.437866 773.640625,1698.417480 789.397339,1700.805786 
	C807.799500,1703.595093 826.051270,1707.363159 844.427734,1710.339844 
	C873.297485,1715.015869 902.098145,1720.512939 931.148010,1723.575562 
	C961.913635,1726.819336 991.699646,1720.937378 1019.780457,1707.495239 
	C1025.459961,1704.776489 1031.149048,1702.077759 1036.695068,1699.435669 
	C1044.157104,1717.982666 1058.932617,1728.220337 1077.465942,1731.999390 
	C1087.446899,1734.034790 1098.291870,1731.932617 1108.741211,1731.543457 
	C1118.862671,1731.166626 1128.976929,1730.593018 1140.159546,1730.054565 
	C1130.258179,1740.496094 1120.946533,1750.315674 1111.375732,1760.377441 
z"/>
<path fill="#E51A39" opacity="1.000000" stroke="none" 
	d="
M625.474854,1086.507935 
	C633.266785,1094.925415 640.361145,1103.578735 648.513733,1111.082520 
	C658.377991,1120.161621 669.137634,1128.267944 679.510559,1136.794312 
	C680.126343,1137.300659 680.748901,1137.798706 681.136414,1138.749756 
	C621.349487,1120.286377 563.188965,1098.027832 507.756042,1066.330322 
	C531.724915,1050.602783 546.162781,1025.295776 569.282349,1010.368774 
	C588.181580,1035.988892 606.713867,1061.111694 625.474854,1086.507935 
z"/>
<path fill="#E51837" opacity="1.000000" stroke="none" 
	d="
M714.324219,541.406982 
	C714.103699,541.427673 713.696899,541.219055 713.515259,540.875366 
	C713.872925,540.886108 714.005493,541.031860 714.324219,541.406982 
z"/>
</svg>