<svg version="1.1" id="Layer_1" xmlns="http://www.w3.org/2000/svg" xmlns:xlink="http://www.w3.org/1999/xlink" x="0px" y="0px"
	 width="100%" viewBox="0 0 2048 2048" enable-background="new 0 0 2048 2048" xml:space="preserve">
<path fill="#E51837" opacity="1.000000" stroke="none" 
	d="
M896.000000,2049.000000 
	C597.694519,2049.000000 299.389069,2049.000000 1.041797,2049.000000 
	C1.041797,1366.424927 1.041797,683.849915 1.041797,1.000000 
	C435.034882,1.000000 869.069824,1.000000 1303.597290,1.434365 
	C1304.419678,7.348085 1305.207153,12.845959 1304.986328,18.303043 
	C1304.488281,30.611048 1303.959717,42.953117 1302.543945,55.177143 
	C1301.481079,64.354248 1300.387573,73.949043 1296.846680,82.316414 
	C1291.885864,94.038696 1284.595825,104.769699 1278.378052,115.966850 
	C1265.873291,138.485703 1253.429321,160.873169 1246.247681,186.021057 
	C1237.993286,214.925659 1234.073730,244.215469 1233.180054,274.095459 
	C1232.158569,308.242615 1235.766724,341.842133 1245.015747,374.755188 
	C1250.200684,393.206024 1257.399536,410.929352 1266.897949,427.551697 
	C1275.053833,441.824738 1283.984619,455.668488 1292.956421,469.452301 
	C1295.161133,472.839355 1294.620605,474.753906 1292.431519,477.610840 
	C1278.284790,496.073425 1264.277588,514.643250 1250.282104,533.221252 
	C1233.366089,555.676086 1216.750366,578.361694 1199.566284,600.608948 
	C1173.661865,634.146118 1153.616577,670.982727 1137.556152,710.013611 
	C1131.119141,725.657654 1125.718262,741.771973 1120.656372,757.926147 
	C1114.995361,775.992920 1109.199097,794.128967 1105.360352,812.628845 
	C1099.656006,840.120911 1095.331909,867.913879 1090.978027,895.666260 
	C1088.277832,912.878052 1083.802246,929.429626 1072.968140,943.207642 
	C1053.437500,968.045349 1030.705078,989.792419 1005.433960,1008.761780 
	C984.947266,1024.139771 963.644653,1038.300903 940.955383,1050.321411 
	C928.614197,1056.859497 916.373230,1062.946411 902.262573,1065.471680 
	C891.615295,1067.377197 880.531982,1070.992188 875.425537,1082.359741 
	C870.748474,1092.771606 870.000183,1103.529297 874.536621,1114.349609 
	C884.587646,1138.323853 891.239075,1163.353149 897.221008,1188.565918 
	C899.639832,1198.760864 898.063416,1208.851929 895.525513,1219.204224 
	C874.085449,1211.396118 853.326233,1203.382202 832.260681,1196.276855 
	C804.643921,1186.961548 776.317505,1180.417969 747.332397,1176.968872 
	C727.855042,1174.651245 708.390930,1170.890869 688.876648,1170.582642 
	C668.539795,1170.261475 648.150269,1173.316040 627.782898,1174.883057 
	C606.228149,1176.541504 596.768433,1195.328369 602.275269,1213.640869 
	C605.962585,1225.902954 613.800781,1237.341431 631.144714,1236.090698 
	C640.582214,1235.410034 649.973267,1233.887451 659.415588,1233.517944 
	C674.492065,1232.927979 689.615051,1232.404541 704.677673,1232.959106 
	C715.433838,1233.354980 726.163513,1235.311768 736.832703,1237.023315 
	C752.077942,1239.468750 767.477478,1241.456787 782.405945,1245.239380 
	C799.268311,1249.511719 815.793091,1255.233276 832.260132,1260.916992 
	C849.834351,1266.982788 867.175537,1273.725220 884.593750,1280.238037 
	C885.544800,1280.593628 886.269653,1281.553833 887.099854,1282.232544 
	C878.444641,1282.807007 870.349121,1281.987305 862.256531,1282.014648 
	C848.952332,1282.059692 835.625549,1282.269043 822.353394,1283.116455 
	C806.752014,1284.112549 790.981140,1284.691406 775.670898,1287.535522 
	C745.478943,1293.144287 715.225891,1298.974731 685.605774,1306.965698 
	C652.456238,1315.908936 619.767517,1326.728516 587.269470,1337.872681 
	C553.605652,1349.416626 521.195251,1364.104248 490.423279,1382.075806 
	C481.903198,1387.051880 474.008118,1393.757080 474.355865,1405.038696 
	C474.712891,1416.619995 477.089661,1428.146729 488.143921,1434.364258 
	C499.936127,1440.996826 512.175964,1440.176514 524.421265,1433.950684 
	C543.339600,1424.332031 562.192688,1414.407349 581.783020,1406.334351 
	C604.624756,1396.921387 628.083557,1388.920410 651.547546,1381.128296 
	C672.328247,1374.227173 693.340271,1367.908936 714.515808,1362.344238 
	C732.956970,1357.498169 751.651978,1353.366821 770.450989,1350.205322 
	C788.598450,1347.153442 807.018433,1345.711548 825.328186,1343.645996 
	C828.629089,1343.273682 831.974426,1343.250610 835.301819,1343.169312 
	C838.423523,1343.092896 841.548523,1343.152832 844.672119,1343.152832 
	C814.420837,1355.964355 785.979980,1371.431030 758.709351,1389.140991 
	C726.426880,1410.105591 695.289124,1432.587769 665.980591,1457.597900 
	C654.345154,1467.526733 642.080078,1476.714844 630.178833,1486.335693 
	C621.387634,1493.442139 612.665222,1500.636353 604.013000,1507.911255 
	C591.400391,1518.515747 578.774780,1529.109131 566.359436,1539.941895 
	C559.737915,1545.719482 556.991821,1553.548462 556.332336,1562.152832 
	C555.467651,1573.433838 561.558167,1586.020020 569.664673,1589.998291 
	C582.618652,1596.355713 595.147583,1594.894287 606.405945,1586.600464 
	C618.442993,1577.733276 629.853210,1567.999512 641.355347,1558.425781 
	C655.648010,1546.529297 669.481506,1534.067505 684.005188,1522.465576 
	C705.688293,1505.144531 727.769165,1488.319946 749.739319,1471.359985 
	C772.301025,1453.943115 796.270142,1438.639771 821.031860,1424.582886 
	C829.118713,1419.992065 837.405762,1415.682129 845.879089,1411.859497 
	C860.197815,1405.400146 874.737793,1399.431030 889.599670,1393.078491 
	C890.298706,1395.773193 890.697937,1397.023682 890.943542,1398.303467 
	C893.572449,1412.002197 895.640198,1425.835693 898.925903,1439.374023 
	C902.912659,1455.801270 908.237000,1471.900024 912.416931,1488.285034 
	C919.129150,1514.596680 931.813660,1538.003296 946.548096,1560.461426 
	C951.069031,1567.352295 955.961853,1573.999268 960.621887,1580.668579 
	C960.074768,1581.452637 959.868286,1581.947266 959.501831,1582.244873 
	C942.325134,1596.199219 928.386963,1613.027344 915.129578,1630.653198 
	C897.845215,1653.633301 886.485229,1679.283325 878.645386,1706.642456 
	C874.345337,1721.648438 870.663330,1736.839722 867.018616,1752.023315 
	C860.818604,1777.852661 853.870667,1803.472900 850.145325,1829.905518 
	C846.229431,1857.690063 846.005432,1885.368164 849.695801,1913.001709 
	C853.191467,1939.177734 857.106628,1965.369385 862.615051,1991.174683 
	C865.374023,2004.099609 871.000610,2016.779541 877.402100,2028.432007 
	C881.732422,2036.314697 889.673767,2042.213745 896.000000,2049.000000 
z"/>
<path fill="#E51837" opacity="1.000000" stroke="none" 
	d="
M2049.000000,221.000000 
	C2049.000000,601.359192 2049.000000,981.718323 2048.640625,1362.593018 
	C2043.793335,1360.585815 2039.225464,1358.194580 2034.831177,1355.518188 
	C2012.233276,1341.754883 1988.898682,1329.445557 1964.561157,1319.011719 
	C1930.322632,1304.332886 1895.552002,1291.250854 1859.330444,1282.242920 
	C1837.118652,1276.718994 1815.135010,1270.183350 1792.776611,1265.366333 
	C1758.071411,1257.889038 1723.237915,1250.890503 1688.260010,1244.837402 
	C1663.737671,1240.593628 1638.944702,1237.625488 1614.160034,1235.275513 
	C1593.449463,1233.311890 1572.633179,1234.297852 1552.052124,1237.995605 
	C1533.108398,1241.399536 1517.887329,1250.275269 1509.673584,1268.357788 
	C1505.154785,1278.305786 1501.296021,1289.173584 1508.584106,1299.218140 
	C1512.636719,1304.803345 1518.523071,1309.438843 1524.406128,1313.222168 
	C1532.432129,1318.383545 1541.142944,1317.069336 1548.943604,1312.092896 
	C1552.507324,1309.819458 1555.050537,1305.998047 1558.475708,1303.439819 
	C1561.406860,1301.250244 1564.899414,1298.442871 1568.207520,1298.356445 
	C1585.474121,1297.906128 1602.834229,1297.261230 1620.021729,1298.551270 
	C1640.028198,1300.052734 1659.920898,1303.271729 1679.802612,1306.161377 
	C1691.785889,1307.903076 1703.699829,1310.214966 1715.564697,1312.659546 
	C1741.090210,1317.918823 1766.602783,1323.254028 1792.045654,1328.896118 
	C1810.162354,1332.913696 1828.279175,1337.036377 1846.168091,1341.943115 
	C1861.355957,1346.109131 1876.413574,1350.936768 1891.176758,1356.419556 
	C1912.162720,1364.213013 1933.243652,1371.978394 1953.509521,1381.418457 
	C1973.650635,1390.800415 1993.381958,1401.356567 2012.249756,1413.077026 
	C2025.410400,1421.252197 2036.812500,1432.258301 2049.000000,1442.000000 
	C2049.000000,1468.359131 2049.000000,1494.718384 2048.647949,1521.496826 
	C2039.091553,1517.302612 2030.030884,1512.370605 2020.654175,1508.138428 
	C1997.189453,1497.547852 1973.858276,1486.581299 1949.964844,1477.039307 
	C1915.743408,1463.372681 1881.252441,1450.323242 1846.519531,1438.017700 
	C1826.039307,1430.761841 1804.879883,1425.416626 1784.006348,1419.279053 
	C1770.938354,1415.436646 1757.933838,1411.314819 1744.722534,1408.037598 
	C1723.608276,1402.800049 1702.386963,1397.970825 1681.132568,1393.327637 
	C1664.084595,1389.603516 1646.981567,1386.057373 1629.791260,1383.077148 
	C1610.301514,1379.697998 1590.759888,1376.369629 1571.108765,1374.232788 
	C1546.313232,1371.536499 1521.413696,1369.469727 1496.504150,1368.253296 
	C1475.869019,1367.245483 1455.282837,1369.254272 1434.901978,1373.049438 
	C1421.074707,1375.624268 1408.070923,1379.704346 1398.078247,1390.307495 
	C1389.786865,1399.105469 1388.005493,1409.333618 1392.873901,1419.737183 
	C1398.701172,1432.189819 1415.263916,1439.778564 1430.251343,1436.643799 
	C1436.428345,1435.351685 1442.448242,1433.284912 1448.640137,1432.092896 
	C1471.175049,1427.754761 1494.018555,1427.132080 1516.749512,1428.929321 
	C1543.265747,1431.026001 1569.899780,1433.272217 1596.058594,1437.867676 
	C1636.616455,1444.992554 1676.875610,1453.882324 1717.140259,1462.583618 
	C1736.277100,1466.719238 1755.278320,1471.650757 1774.090332,1477.088501 
	C1818.477295,1489.918579 1862.151611,1504.883667 1905.117432,1521.929932 
	C1948.088623,1538.978638 1989.940674,1558.470581 2031.363403,1578.928345 
	C2037.290161,1581.855347 2043.123413,1584.971436 2049.000000,1588.000000 
	C2049.000000,1741.624390 2049.000000,1895.248901 2049.000000,2049.000000 
	C1690.640869,2049.000000 1332.281616,2049.000000 973.479858,2048.573486 
	C972.502686,2040.272583 970.353271,2033.157471 964.269592,2027.573242 
	C955.089111,2019.146606 946.372009,2010.188599 936.886047,2002.129639 
	C929.267029,1995.656738 924.632996,1987.930542 922.844055,1978.240234 
	C919.708679,1961.256958 916.096924,1944.351074 913.407288,1927.298706 
	C909.966125,1905.481689 906.263428,1883.704834 907.797913,1861.356323 
	C909.136475,1841.862671 912.590942,1822.773193 916.872314,1803.826172 
	C921.780396,1782.105835 927.322815,1760.524658 932.845886,1738.948608 
	C938.712219,1716.031494 945.732666,1693.540649 959.013794,1673.563354 
	C972.335632,1653.524902 987.073730,1634.924927 1006.428284,1620.056763 
	C1028.280884,1603.269409 1033.798218,1581.158081 1018.238953,1555.893433 
	C1011.452393,1544.873535 1004.354065,1534.026733 996.971436,1523.396973 
	C983.255737,1503.648560 973.755188,1482.013672 967.291504,1458.971313 
	C960.017273,1433.039185 953.344421,1406.941040 950.093933,1380.158203 
	C948.235535,1364.845581 946.615540,1349.421875 946.336975,1334.021973 
	C946.030518,1317.078613 946.858582,1300.064087 948.173889,1283.156860 
	C949.370728,1267.771851 951.911438,1252.492554 953.792358,1237.158447 
	C954.162903,1234.137817 955.627319,1233.733643 958.507019,1233.752075 
	C962.740967,1233.779175 967.305420,1233.603394 971.145020,1232.060425 
	C977.277039,1229.596313 983.214050,1226.365479 988.723938,1222.693970 
	C999.518860,1215.500977 1009.805908,1207.547119 1020.581116,1200.322754 
	C1053.073608,1178.537598 1082.287720,1153.304443 1103.869141,1120.293335 
	C1111.511841,1108.602905 1114.703613,1095.830811 1106.144287,1082.810913 
	C1104.426147,1080.197388 1102.320312,1077.838867 1100.282104,1075.220093 
	C1113.364868,1071.321777 1126.356201,1067.843750 1140.008301,1068.213989 
	C1145.687378,1068.368042 1150.403687,1070.090454 1154.023682,1075.206909 
	C1163.849731,1089.095093 1176.677979,1099.826904 1190.558838,1109.595825 
	C1198.893188,1115.461304 1206.977417,1121.891602 1211.124878,1132.120239 
	C1213.132446,1137.071289 1216.815063,1141.587036 1220.539429,1145.547363 
	C1228.318848,1153.819580 1238.364258,1153.514282 1248.479492,1151.435913 
	C1263.644531,1148.320312 1272.682251,1134.929810 1269.386719,1119.827271 
	C1266.989380,1108.840454 1261.824707,1098.995117 1255.325928,1089.769287 
	C1246.518066,1077.265137 1234.038574,1068.815552 1222.639648,1059.136719 
	C1215.327148,1052.927612 1207.151733,1047.276367 1201.370605,1039.818848 
	C1190.070679,1025.242798 1175.763428,1015.392578 1158.626709,1010.069214 
	C1141.562134,1004.768127 1124.030640,1007.416870 1106.777222,1010.397400 
	C1101.656982,1011.281982 1096.677368,1012.980652 1091.633423,1014.306274 
	C1091.421997,1013.932922 1091.210571,1013.559509 1090.999023,1013.186157 
	C1094.632812,1009.381836 1098.247925,1005.559509 1101.903687,1001.776367 
	C1115.619141,987.583252 1127.436646,971.998047 1136.884155,954.625610 
	C1137.536621,953.425720 1139.505493,952.198975 1140.831299,952.231934 
	C1147.941650,952.408752 1153.355957,948.752625 1159.194824,945.423096 
	C1170.568481,938.937500 1182.343262,933.155457 1193.630737,927.249939 
	C1198.299805,935.336426 1201.939087,942.675171 1206.527466,949.362732 
	C1215.114136,961.877441 1226.294678,971.059570 1241.147339,975.811646 
	C1250.922485,978.939209 1260.681030,979.280884 1270.700806,979.099731 
	C1272.709229,979.063354 1275.881226,980.497681 1276.596680,982.107239 
	C1280.965454,991.936646 1284.531006,1002.122131 1288.871094,1011.965515 
	C1291.585815,1018.122742 1294.361572,1024.577148 1298.594727,1029.662109 
	C1304.403198,1036.639526 1313.158325,1039.502686 1321.995850,1038.691162 
	C1333.816284,1037.605835 1351.997559,1019.815247 1348.380127,1003.333252 
	C1343.468018,980.953247 1335.609619,960.007935 1322.991943,940.937195 
	C1314.841919,928.619202 1304.618042,918.829529 1288.902466,917.445923 
	C1282.968018,916.923523 1276.964600,916.878906 1271.003174,917.029968 
	C1258.276245,917.352417 1254.826904,915.190735 1250.599121,903.264893 
	C1249.547852,900.299805 1248.838989,897.211121 1248.018188,894.166992 
	C1241.048950,868.318359 1222.820312,853.355713 1194.489136,862.588379 
	C1185.996216,865.356140 1177.710083,868.791260 1169.432129,872.172668 
	C1164.706909,874.102844 1160.189453,876.541443 1154.697876,879.173157 
	C1155.577393,873.951538 1156.097046,869.525269 1157.087036,865.206787 
	C1163.506592,837.199951 1169.567993,809.099426 1176.644043,781.257690 
	C1183.999634,752.316162 1197.125610,725.484802 1209.437988,698.462402 
	C1220.584839,673.998108 1236.315552,652.148865 1251.983643,630.449158 
	C1266.388672,610.498779 1282.296753,591.635132 1296.743164,571.713074 
	C1311.879883,550.839355 1326.688721,529.785156 1343.423828,510.091095 
	C1350.556763,501.696869 1359.813843,494.787903 1363.952881,483.931702 
	C1364.298950,483.024323 1366.343506,482.409943 1367.660034,482.279816 
	C1391.266724,479.946533 1414.137207,474.134857 1436.959473,467.978973 
	C1464.110718,460.655396 1489.399536,448.791199 1514.083618,435.761200 
	C1534.951172,424.745728 1555.224976,412.570099 1575.466553,400.416473 
	C1590.149780,391.600250 1604.633301,382.386780 1618.685303,372.602997 
	C1632.190186,363.200287 1645.453125,353.343842 1658.034546,342.751068 
	C1670.509766,332.247437 1684.535767,322.726288 1689.658081,305.784393 
	C1689.728760,305.550385 1690.177490,305.430664 1689.934082,305.585205 
	C1703.191040,307.649902 1715.972168,309.725922 1728.781738,311.610107 
	C1740.244629,313.296173 1751.592407,313.565308 1762.735596,309.261688 
	C1765.874146,308.049500 1769.555176,308.198181 1772.998535,307.826691 
	C1783.368774,306.707886 1794.340210,305.828949 1799.961670,295.610931 
	C1803.278198,289.582581 1805.607788,282.165192 1805.671509,275.347168 
	C1805.890259,251.909760 1805.186768,228.450531 1804.264648,205.022034 
	C1803.880371,195.255310 1802.468994,185.474670 1800.800171,175.825684 
	C1798.345459,161.631973 1795.686768,147.440872 1792.243164,133.463455 
	C1790.259766,125.412544 1785.277100,119.426743 1776.018066,118.054459 
	C1772.377686,117.514915 1768.796753,115.597916 1765.525269,113.721481 
	C1754.419556,107.351303 1743.417114,100.795395 1732.515381,94.082909 
	C1731.264404,93.312592 1730.032837,90.965340 1730.261108,89.593773 
	C1731.540527,81.909294 1732.844971,74.181244 1734.931885,66.688377 
	C1740.059204,48.279720 1745.670654,30.006414 1750.955444,11.640716 
	C1751.950195,8.183926 1752.334229,4.551420 1753.000000,1.000003 
	C1796.692505,1.000000 1840.385010,1.000000 1884.680664,1.435816 
	C1885.157349,17.312670 1884.965820,32.753525 1884.922485,48.194798 
	C1884.877197,64.342995 1884.460815,80.516579 1885.244751,96.628563 
	C1885.591064,103.747589 1884.396118,108.012939 1877.608643,111.460297 
	C1866.678955,117.011436 1856.214355,123.545692 1845.868164,130.157654 
	C1836.541382,136.118179 1826.593262,141.681702 1818.820068,149.347763 
	C1809.794312,158.249329 1804.479248,174.714676 1814.090576,186.662369 
	C1814.922119,187.695938 1815.070312,189.458557 1815.137451,190.901062 
	C1816.483276,219.790573 1817.539185,248.696030 1819.190918,277.567535 
	C1819.794922,288.123474 1821.806641,298.899536 1832.561523,304.314087 
	C1843.079468,309.609375 1854.156616,310.369415 1865.300049,305.474884 
	C1866.807373,304.812775 1868.872803,304.854553 1870.538452,305.218262 
	C1877.523560,306.743591 1884.009521,305.385864 1890.518433,302.793762 
	C1892.737915,301.909760 1895.719849,301.614197 1897.958496,302.313812 
	C1916.022827,307.959045 1932.380005,316.896698 1945.628174,330.470367 
	C1963.108765,348.380432 1991.208740,341.192688 2001.389404,321.412689 
	C2005.456787,313.509857 2007.556396,304.620056 2011.091187,296.411804 
	C2018.574463,279.034027 2026.030273,261.623962 2034.269287,244.600677 
	C2038.285889,236.301315 2044.035156,228.840439 2049.000000,221.000000 
M1471.278198,896.758179 
	C1456.234741,907.488525 1443.487183,920.717590 1432.519897,935.352661 
	C1410.244019,965.078186 1395.026733,998.114136 1390.589478,1035.343506 
	C1389.180664,1047.163574 1388.006470,1059.457275 1389.724487,1071.091187 
	C1391.839722,1085.415894 1396.877197,1099.342041 1401.089966,1113.308105 
	C1402.848999,1119.139526 1404.687256,1125.443726 1408.311157,1130.121826 
	C1418.688965,1143.518799 1432.769043,1151.625732 1449.618652,1153.909790 
	C1479.936035,1158.019653 1510.036133,1155.388184 1539.985840,1149.971313 
	C1557.977661,1146.717163 1576.126221,1144.193848 1593.963745,1140.253418 
	C1619.392334,1134.635864 1644.880493,1128.962891 1669.821777,1121.557373 
	C1693.630737,1114.488403 1717.055054,1105.872314 1740.098511,1096.573486 
	C1753.579956,1091.133179 1766.773193,1083.962402 1776.106323,1072.131836 
	C1787.741943,1057.382568 1790.685181,1044.845703 1780.710571,1027.537231 
	C1774.403809,1016.593628 1767.971802,1005.720459 1761.462646,994.895813 
	C1754.012695,982.506226 1746.418091,970.203735 1738.881226,957.866516 
	C1730.144653,943.565491 1718.571655,931.651489 1707.353149,919.337158 
	C1695.165894,905.959534 1680.595337,895.832703 1665.451416,886.615906 
	C1649.973999,877.195984 1633.086548,870.711975 1615.286133,866.468811 
	C1592.560303,861.051636 1569.685425,860.346191 1546.876587,864.053040 
	C1519.338501,868.528503 1494.642578,880.410828 1471.278198,896.758179 
M1898.121460,1786.384644 
	C1912.334961,1802.010864 1926.072144,1818.109619 1940.938599,1833.087769 
	C1949.997192,1842.214355 1964.268555,1846.426147 1976.231201,1836.781616 
	C1985.527466,1829.286621 1994.037964,1820.735840 1990.832520,1807.306519 
	C1989.282471,1800.813110 1986.658081,1794.077026 1982.748535,1788.751587 
	C1975.002808,1778.201416 1966.402710,1768.203613 1957.462524,1758.624390 
	C1946.917480,1747.325684 1935.892822,1736.439941 1924.601318,1725.882935 
	C1914.659424,1716.587769 1904.110840,1707.936523 1893.742188,1699.104248 
	C1884.260986,1691.027710 1874.937744,1682.728149 1865.046997,1675.179321 
	C1851.830078,1665.092041 1838.125854,1655.643799 1824.643311,1645.904175 
	C1808.733154,1634.410645 1793.062134,1622.568970 1776.872803,1611.483765 
	C1759.040771,1599.273804 1740.930298,1587.442505 1722.588989,1576.011353 
	C1701.584229,1562.920166 1680.595093,1549.705933 1658.843262,1537.942749 
	C1641.047974,1528.319214 1622.320801,1520.332153 1603.688599,1512.363159 
	C1575.703613,1500.394043 1546.593872,1493.487915 1515.858154,1495.511841 
	C1507.347168,1496.072388 1498.983521,1497.110962 1491.561401,1501.999023 
	C1480.835083,1509.063110 1473.751831,1522.762207 1475.896484,1532.792847 
	C1479.003784,1547.325928 1493.267700,1558.596802 1508.197510,1558.173584 
	C1512.838989,1558.041870 1517.484619,1557.141357 1522.103882,1557.301147 
	C1538.124268,1557.855103 1553.867065,1560.252808 1568.839844,1566.238525 
	C1584.261841,1572.403931 1600.008667,1577.981689 1614.812012,1585.412842 
	C1633.647339,1594.868042 1651.864014,1605.613403 1669.998047,1616.390503 
	C1685.997925,1625.899414 1701.864136,1635.714478 1717.173218,1646.286499 
	C1744.251587,1664.986206 1770.962524,1684.224731 1797.629272,1703.511353 
	C1812.578369,1714.323120 1827.577637,1725.145752 1841.751587,1736.929199 
	C1860.786255,1752.753540 1879.045288,1769.511230 1898.121460,1786.384644 
z"/>
<path fill="#FFF9F6" opacity="1.000000" stroke="none" 
	d="
M1752.531372,1.000003 
	C1752.334229,4.551420 1751.950195,8.183926 1750.955444,11.640716 
	C1745.670654,30.006414 1740.059204,48.279720 1734.931885,66.688377 
	C1732.844971,74.181244 1731.540527,81.909294 1730.261108,89.593773 
	C1730.032837,90.965340 1731.264404,93.312592 1732.515381,94.082909 
	C1743.417114,100.795395 1754.419556,107.351303 1765.525269,113.721481 
	C1768.796753,115.597916 1772.377686,117.514915 1776.018066,118.054459 
	C1785.277100,119.426743 1790.259766,125.412544 1792.243164,133.463455 
	C1795.686768,147.440872 1798.345459,161.631973 1800.800171,175.825684 
	C1802.468994,185.474670 1803.880371,195.255310 1804.264648,205.022034 
	C1805.186768,228.450531 1805.890259,251.909760 1805.671509,275.347168 
	C1805.607788,282.165192 1803.278198,289.582581 1799.961670,295.610931 
	C1794.340210,305.828949 1783.368774,306.707886 1772.998535,307.826691 
	C1769.555176,308.198181 1765.874146,308.049500 1762.735596,309.261688 
	C1751.592407,313.565308 1740.244629,313.296173 1728.781738,311.610107 
	C1715.972168,309.725922 1703.191040,307.649902 1689.934082,305.585205 
	C1690.177490,305.430664 1689.728760,305.550385 1689.658081,305.784393 
	C1684.535767,322.726288 1670.509766,332.247437 1658.034546,342.751068 
	C1645.453125,353.343842 1632.190186,363.200287 1618.685303,372.602997 
	C1604.633301,382.386780 1590.149780,391.600250 1575.466553,400.416473 
	C1555.224976,412.570099 1534.951172,424.745728 1514.083618,435.761200 
	C1489.399536,448.791199 1464.110718,460.655396 1436.959473,467.978973 
	C1414.137207,474.134857 1391.266724,479.946533 1367.660034,482.279816 
	C1366.343506,482.409943 1364.298950,483.024323 1363.952881,483.931702 
	C1359.813843,494.787903 1350.556763,501.696869 1343.423828,510.091095 
	C1326.688721,529.785156 1311.879883,550.839355 1296.743164,571.713074 
	C1282.296753,591.635132 1266.388672,610.498779 1251.983643,630.449158 
	C1236.315552,652.148865 1220.584839,673.998108 1209.437988,698.462402 
	C1197.125610,725.484802 1183.999634,752.316162 1176.644043,781.257690 
	C1169.567993,809.099426 1163.506592,837.199951 1157.087036,865.206787 
	C1156.097046,869.525269 1155.577393,873.951538 1154.697876,879.173157 
	C1160.189453,876.541443 1164.706909,874.102844 1169.432129,872.172668 
	C1177.710083,868.791260 1185.996216,865.356140 1194.489136,862.588379 
	C1222.820312,853.355713 1241.048950,868.318359 1248.018188,894.166992 
	C1248.838989,897.211121 1249.547852,900.299805 1250.599121,903.264893 
	C1254.826904,915.190735 1258.276245,917.352417 1271.003174,917.029968 
	C1276.964600,916.878906 1282.968018,916.923523 1288.902466,917.445923 
	C1304.618042,918.829529 1314.841919,928.619202 1322.991943,940.937195 
	C1335.609619,960.007935 1343.468018,980.953247 1348.380127,1003.333252 
	C1351.997559,1019.815247 1333.816284,1037.605835 1321.995850,1038.691162 
	C1313.158325,1039.502686 1304.403198,1036.639526 1298.594727,1029.662109 
	C1294.361572,1024.577148 1291.585815,1018.122742 1288.871094,1011.965515 
	C1284.531006,1002.122131 1280.965454,991.936646 1276.596680,982.107239 
	C1275.881226,980.497681 1272.709229,979.063354 1270.700806,979.099731 
	C1260.681030,979.280884 1250.922485,978.939209 1241.147339,975.811646 
	C1226.294678,971.059570 1215.114136,961.877441 1206.527466,949.362732 
	C1201.939087,942.675171 1198.299805,935.336426 1193.630737,927.249939 
	C1182.343262,933.155457 1170.568481,938.937500 1159.194824,945.423096 
	C1153.355957,948.752625 1147.941650,952.408752 1140.831299,952.231934 
	C1139.505493,952.198975 1137.536621,953.425720 1136.884155,954.625610 
	C1127.436646,971.998047 1115.619141,987.583252 1101.903687,1001.776367 
	C1098.247925,1005.559509 1094.632812,1009.381836 1090.999023,1013.186157 
	C1091.210571,1013.559509 1091.421997,1013.932922 1091.633423,1014.306274 
	C1096.677368,1012.980652 1101.656982,1011.281982 1106.777222,1010.397400 
	C1124.030640,1007.416870 1141.562134,1004.768127 1158.626709,1010.069214 
	C1175.763428,1015.392578 1190.070679,1025.242798 1201.370605,1039.818848 
	C1207.151733,1047.276367 1215.327148,1052.927612 1222.639648,1059.136719 
	C1234.038574,1068.815552 1246.518066,1077.265137 1255.325928,1089.769287 
	C1261.824707,1098.995117 1266.989380,1108.840454 1269.386719,1119.827271 
	C1272.682251,1134.929810 1263.644531,1148.320312 1248.479492,1151.435913 
	C1238.364258,1153.514282 1228.318848,1153.819580 1220.539429,1145.547363 
	C1216.815063,1141.587036 1213.132446,1137.071289 1211.124878,1132.120239 
	C1206.977417,1121.891602 1198.893188,1115.461304 1190.558838,1109.595825 
	C1176.677979,1099.826904 1163.849731,1089.095093 1154.023682,1075.206909 
	C1150.403687,1070.090454 1145.687378,1068.368042 1140.008301,1068.213989 
	C1126.356201,1067.843750 1113.364868,1071.321777 1100.282104,1075.220093 
	C1102.320312,1077.838867 1104.426147,1080.197388 1106.144287,1082.810913 
	C1114.703613,1095.830811 1111.511841,1108.602905 1103.869141,1120.293335 
	C1082.287720,1153.304443 1053.073608,1178.537598 1020.581116,1200.322754 
	C1009.805908,1207.547119 999.518860,1215.500977 988.723938,1222.693970 
	C983.214050,1226.365479 977.277039,1229.596313 971.145020,1232.060425 
	C967.305420,1233.603394 962.740967,1233.779175 958.507019,1233.752075 
	C955.627319,1233.733643 954.162903,1234.137817 953.792358,1237.158447 
	C951.911438,1252.492554 949.370728,1267.771851 948.173889,1283.156860 
	C946.858582,1300.064087 946.030518,1317.078613 946.336975,1334.021973 
	C946.615540,1349.421875 948.235535,1364.845581 950.093933,1380.158203 
	C953.344421,1406.941040 960.017273,1433.039185 967.291504,1458.971313 
	C973.755188,1482.013672 983.255737,1503.648560 996.971436,1523.396973 
	C1004.354065,1534.026733 1011.452393,1544.873535 1018.238953,1555.893433 
	C1033.798218,1581.158081 1028.280884,1603.269409 1006.428284,1620.056763 
	C987.073730,1634.924927 972.335632,1653.524902 959.013794,1673.563354 
	C945.732666,1693.540649 938.712219,1716.031494 932.845886,1738.948608 
	C927.322815,1760.524658 921.780396,1782.105835 916.872314,1803.826172 
	C912.590942,1822.773193 909.136475,1841.862671 907.797913,1861.356323 
	C906.263428,1883.704834 909.966125,1905.481689 913.407288,1927.298706 
	C916.096924,1944.351074 919.708679,1961.256958 922.844055,1978.240234 
	C924.632996,1987.930542 929.267029,1995.656738 936.886047,2002.129639 
	C946.372009,2010.188599 955.089111,2019.146606 964.269592,2027.573242 
	C970.353271,2033.157471 972.502686,2040.272583 973.018616,2048.573486 
	C947.645752,2049.000000 922.291565,2049.000000 896.468628,2049.000000 
	C889.673767,2042.213745 881.732422,2036.314697 877.402100,2028.432007 
	C871.000610,2016.779541 865.374023,2004.099609 862.615051,1991.174683 
	C857.106628,1965.369385 853.191467,1939.177734 849.695801,1913.001709 
	C846.005432,1885.368164 846.229431,1857.690063 850.145325,1829.905518 
	C853.870667,1803.472900 860.818604,1777.852661 867.018616,1752.023315 
	C870.663330,1736.839722 874.345337,1721.648438 878.645386,1706.642456 
	C886.485229,1679.283325 897.845215,1653.633301 915.129578,1630.653198 
	C928.386963,1613.027344 942.325134,1596.199219 959.501831,1582.244873 
	C959.868286,1581.947266 960.074768,1581.452637 960.621887,1580.668579 
	C955.961853,1573.999268 951.069031,1567.352295 946.548096,1560.461426 
	C931.813660,1538.003296 919.129150,1514.596680 912.416931,1488.285034 
	C908.237000,1471.900024 902.912659,1455.801270 898.925903,1439.374023 
	C895.640198,1425.835693 893.572449,1412.002197 890.943542,1398.303467 
	C890.697937,1397.023682 890.298706,1395.773193 889.599670,1393.078491 
	C874.737793,1399.431030 860.197815,1405.400146 845.879089,1411.859497 
	C837.405762,1415.682129 829.118713,1419.992065 821.031860,1424.582886 
	C796.270142,1438.639771 772.301025,1453.943115 749.739319,1471.359985 
	C727.769165,1488.319946 705.688293,1505.144531 684.005188,1522.465576 
	C669.481506,1534.067505 655.648010,1546.529297 641.355347,1558.425781 
	C629.853210,1567.999512 618.442993,1577.733276 606.405945,1586.600464 
	C595.147583,1594.894287 582.618652,1596.355713 569.664673,1589.998291 
	C561.558167,1586.020020 555.467651,1573.433838 556.332336,1562.152832 
	C556.991821,1553.548462 559.737915,1545.719482 566.359436,1539.941895 
	C578.774780,1529.109131 591.400391,1518.515747 604.013000,1507.911255 
	C612.665222,1500.636353 621.387634,1493.442139 630.178833,1486.335693 
	C642.080078,1476.714844 654.345154,1467.526733 665.980591,1457.597900 
	C695.289124,1432.587769 726.426880,1410.105591 758.709351,1389.140991 
	C785.979980,1371.431030 814.420837,1355.964355 844.672119,1343.152832 
	C841.548523,1343.152832 838.423523,1343.092896 835.301819,1343.169312 
	C831.974426,1343.250610 828.629089,1343.273682 825.328186,1343.645996 
	C807.018433,1345.711548 788.598450,1347.153442 770.450989,1350.205322 
	C751.651978,1353.366821 732.956970,1357.498169 714.515808,1362.344238 
	C693.340271,1367.908936 672.328247,1374.227173 651.547546,1381.128296 
	C628.083557,1388.920410 604.624756,1396.921387 581.783020,1406.334351 
	C562.192688,1414.407349 543.339600,1424.332031 524.421265,1433.950684 
	C512.175964,1440.176514 499.936127,1440.996826 488.143921,1434.364258 
	C477.089661,1428.146729 474.712891,1416.619995 474.355865,1405.038696 
	C474.008118,1393.757080 481.903198,1387.051880 490.423279,1382.075806 
	C521.195251,1364.104248 553.605652,1349.416626 587.269470,1337.872681 
	C619.767517,1326.728516 652.456238,1315.908936 685.605774,1306.965698 
	C715.225891,1298.974731 745.478943,1293.144287 775.670898,1287.535522 
	C790.981140,1284.691406 806.752014,1284.112549 822.353394,1283.116455 
	C835.625549,1282.269043 848.952332,1282.059692 862.256531,1282.014648 
	C870.349121,1281.987305 878.444641,1282.807007 887.099854,1282.232544 
	C886.269653,1281.553833 885.544800,1280.593628 884.593750,1280.238037 
	C867.175537,1273.725220 849.834351,1266.982788 832.260132,1260.916992 
	C815.793091,1255.233276 799.268311,1249.511719 782.405945,1245.239380 
	C767.477478,1241.456787 752.077942,1239.468750 736.832703,1237.023315 
	C726.163513,1235.311768 715.433838,1233.354980 704.677673,1232.959106 
	C689.615051,1232.404541 674.492065,1232.927979 659.415588,1233.517944 
	C649.973267,1233.887451 640.582214,1235.410034 631.144714,1236.090698 
	C613.800781,1237.341431 605.962585,1225.902954 602.275269,1213.640869 
	C596.768433,1195.328369 606.228149,1176.541504 627.782898,1174.883057 
	C648.150269,1173.316040 668.539795,1170.261475 688.876648,1170.582642 
	C708.390930,1170.890869 727.855042,1174.651245 747.332397,1176.968872 
	C776.317505,1180.417969 804.643921,1186.961548 832.260681,1196.276855 
	C853.326233,1203.382202 874.085449,1211.396118 895.525513,1219.204224 
	C898.063416,1208.851929 899.639832,1198.760864 897.221008,1188.565918 
	C891.239075,1163.353149 884.587646,1138.323853 874.536621,1114.349609 
	C870.000183,1103.529297 870.748474,1092.771606 875.425537,1082.359741 
	C880.531982,1070.992188 891.615295,1067.377197 902.262573,1065.471680 
	C916.373230,1062.946411 928.614197,1056.859497 940.955383,1050.321411 
	C963.644653,1038.300903 984.947266,1024.139771 1005.433960,1008.761780 
	C1030.705078,989.792419 1053.437500,968.045349 1072.968140,943.207642 
	C1083.802246,929.429626 1088.277832,912.878052 1090.978027,895.666260 
	C1095.331909,867.913879 1099.656006,840.120911 1105.360352,812.628845 
	C1109.199097,794.128967 1114.995361,775.992920 1120.656372,757.926147 
	C1125.718262,741.771973 1131.119141,725.657654 1137.556152,710.013611 
	C1153.616577,670.982727 1173.661865,634.146118 1199.566284,600.608948 
	C1216.750366,578.361694 1233.366089,555.676086 1250.282104,533.221252 
	C1264.277588,514.643250 1278.284790,496.073425 1292.431519,477.610840 
	C1294.620605,474.753906 1295.161133,472.839355 1292.956421,469.452301 
	C1283.984619,455.668488 1275.053833,441.824738 1266.897949,427.551697 
	C1257.399536,410.929352 1250.200684,393.206024 1245.015747,374.755188 
	C1235.766724,341.842133 1232.158569,308.242615 1233.180054,274.095459 
	C1234.073730,244.215469 1237.993286,214.925659 1246.247681,186.021057 
	C1253.429321,160.873169 1265.873291,138.485703 1278.378052,115.966850 
	C1284.595825,104.769699 1291.885864,94.038696 1296.846680,82.316414 
	C1300.387573,73.949043 1301.481079,64.354248 1302.543945,55.177143 
	C1303.959717,42.953117 1304.488281,30.611048 1304.986328,18.303043 
	C1305.207153,12.845959 1304.419678,7.348085 1304.044922,1.434365 
	C1355.354248,1.000000 1406.708496,1.000000 1458.555420,1.396396 
	C1457.117554,11.857993 1453.472900,21.956190 1453.665771,31.980532 
	C1453.942871,46.375717 1447.792358,56.459412 1437.059204,64.089844 
	C1426.431519,71.645279 1415.309448,67.367722 1404.792236,62.767719 
	C1399.663696,60.524651 1394.343140,56.866009 1393.908325,51.183289 
	C1392.992188,39.211227 1383.710938,34.775681 1376.034546,28.709015 
	C1372.885742,26.220541 1369.563232,23.951902 1365.918823,21.290525 
	C1365.560059,25.985247 1365.273804,29.790077 1364.977539,33.594120 
	C1363.892578,47.524906 1363.036499,61.478363 1361.663452,75.380730 
	C1359.555420,96.725449 1349.277222,114.729393 1338.159668,132.485519 
	C1331.860352,142.546448 1326.715088,153.330078 1321.436890,163.074295 
	C1328.138062,168.041138 1334.094360,172.760223 1340.358643,177.027130 
	C1349.578613,183.307159 1354.787842,192.116714 1357.059204,202.734406 
	C1361.997070,225.817947 1354.757812,245.440079 1339.205566,262.368469 
	C1335.069824,266.870270 1330.420288,271.042755 1325.468872,274.622528 
	C1315.701538,281.684021 1305.052734,281.623077 1294.087280,276.566406 
	C1293.932251,278.063904 1293.681274,279.045929 1293.753906,280.003418 
	C1294.920776,295.408752 1295.375977,310.918701 1297.559814,326.180664 
	C1299.385010,338.936127 1302.252686,351.740082 1306.423340,363.918213 
	C1313.540894,384.701141 1323.886963,404.002167 1336.349243,422.212830 
	C1340.428223,428.173370 1343.962036,432.727814 1351.964233,430.353027 
	C1354.143677,429.706207 1356.604614,430.063507 1358.920044,429.810181 
	C1402.108398,425.085052 1442.989014,412.509277 1481.118530,391.884338 
	C1508.312500,377.174591 1535.218018,361.777985 1561.254272,345.127380 
	C1583.780396,330.721619 1604.946411,314.180695 1626.595459,298.421112 
	C1629.926880,295.995880 1632.515747,292.575378 1635.638672,289.832123 
	C1639.730713,286.237244 1643.726807,282.403748 1648.301880,279.528595 
	C1652.009399,277.198639 1656.510864,276.132019 1660.311768,274.641663 
	C1661.724731,262.273102 1662.300049,250.099899 1659.312744,237.972687 
	C1658.576782,234.985123 1657.748291,233.468185 1654.578491,232.729080 
	C1632.307739,227.536011 1614.382568,216.132431 1603.466919,195.437820 
	C1598.979492,186.930054 1595.226685,178.037247 1591.014038,169.380646 
	C1589.428101,166.121552 1587.944824,162.645142 1585.633667,159.933624 
	C1571.243652,143.051178 1553.055664,130.607895 1535.346313,117.643890 
	C1522.866211,108.507881 1512.148438,97.817810 1504.269287,84.403488 
	C1503.381348,82.891945 1502.123413,81.414307 1500.686035,80.437241 
	C1485.917603,70.398384 1480.919067,55.964237 1483.498413,39.127056 
	C1485.441895,26.440712 1487.828857,13.899201 1487.000000,1.000000 
	C1507.020874,1.000000 1527.041870,1.000000 1547.380371,1.448047 
	C1547.674194,10.377357 1548.231567,18.912230 1547.455444,27.324051 
	C1546.748779,34.981098 1545.937622,42.144451 1552.977661,47.456398 
	C1553.232300,47.648567 1553.390015,47.977070 1553.572754,48.255325 
	C1561.102051,59.719818 1570.953979,68.746849 1582.616821,75.853386 
	C1603.067139,88.314354 1620.195312,104.693993 1634.750000,123.351624 
	C1641.848633,132.451431 1646.179443,143.894470 1650.792847,154.691406 
	C1654.570435,163.532013 1659.270264,170.351471 1669.476196,171.906662 
	C1672.738647,172.403824 1675.944580,173.512482 1679.067627,174.642029 
	C1691.977051,179.310852 1703.769775,185.398987 1710.382324,198.481415 
	C1715.633789,208.871338 1718.224609,219.977219 1720.032227,231.335419 
	C1721.327393,239.473679 1722.496094,247.632095 1723.712769,255.725815 
	C1726.693848,255.917084 1728.851929,256.019409 1731.003174,256.203339 
	C1733.324463,256.401825 1735.634033,256.759613 1737.957764,256.901672 
	C1743.644897,257.249329 1744.883423,256.228821 1745.036255,250.680405 
	C1745.146362,246.688461 1745.023804,242.682312 1744.829834,238.691040 
	C1743.805542,217.626511 1744.008911,196.514389 1740.244019,175.581970 
	C1739.126709,169.369690 1736.793213,166.256927 1731.527100,163.599533 
	C1719.983276,157.774292 1709.081177,150.589539 1697.303101,145.335983 
	C1678.136719,136.786774 1666.618530,120.658951 1667.032349,99.652496 
	C1667.414062,80.272446 1670.939331,61.354733 1676.426514,42.757408 
	C1680.513428,28.905849 1684.158203,14.923871 1688.000000,0.999999 
	C1709.354248,1.000000 1730.708496,1.000000 1752.531372,1.000003 
M1001.217285,1137.885864 
	C995.487427,1138.752319 989.768311,1139.698364 984.025574,1140.468262 
	C972.686157,1141.988281 961.967102,1149.921509 949.098022,1142.363281 
	C951.725830,1152.850342 953.967407,1161.796265 956.381592,1171.430664 
	C971.515503,1160.630859 986.234802,1150.135498 1000.928040,1139.603638 
	C1001.404053,1139.262451 1001.613953,1138.550171 1002.199829,1137.952026 
	C1002.304810,1137.871704 1002.429382,1137.805542 1002.503662,1137.703003 
	C1002.527649,1137.669678 1002.419983,1137.541260 1002.372620,1137.456299 
	C1002.267273,1137.677124 1002.161865,1137.897827 1001.217285,1137.885864 
M1321.612915,233.030563 
	C1324.877930,228.448090 1325.674683,223.294250 1325.078613,217.838867 
	C1324.345215,211.124268 1319.360352,207.499100 1312.808228,208.873978 
	C1306.352661,210.228638 1301.458130,216.537796 1301.908691,223.071976 
	C1302.032837,224.872269 1302.563477,226.640823 1302.776123,228.439468 
	C1303.303955,232.903656 1305.103394,236.632034 1309.702148,237.787231 
	C1314.234863,238.925827 1318.240234,237.497482 1321.612915,233.030563 
z"/>
<path fill="#E51938" opacity="1.000000" stroke="none" 
	d="
M1486.531372,1.000000 
	C1487.828857,13.899201 1485.441895,26.440712 1483.498413,39.127056 
	C1480.919067,55.964237 1485.917603,70.398384 1500.686035,80.437241 
	C1502.123413,81.414307 1503.381348,82.891945 1504.269287,84.403488 
	C1512.148438,97.817810 1522.866211,108.507881 1535.346313,117.643890 
	C1553.055664,130.607895 1571.243652,143.051178 1585.633667,159.933624 
	C1587.944824,162.645142 1589.428101,166.121552 1591.014038,169.380646 
	C1595.226685,178.037247 1598.979492,186.930054 1603.466919,195.437820 
	C1614.382568,216.132431 1632.307739,227.536011 1654.578491,232.729080 
	C1657.748291,233.468185 1658.576782,234.985123 1659.312744,237.972687 
	C1662.300049,250.099899 1661.724731,262.273102 1660.311768,274.641663 
	C1656.510864,276.132019 1652.009399,277.198639 1648.301880,279.528595 
	C1643.726807,282.403748 1639.730713,286.237244 1635.638672,289.832123 
	C1632.515747,292.575378 1629.926880,295.995880 1626.595459,298.421112 
	C1604.946411,314.180695 1583.780396,330.721619 1561.254272,345.127380 
	C1535.218018,361.777985 1508.312500,377.174591 1481.118530,391.884338 
	C1442.989014,412.509277 1402.108398,425.085052 1358.920044,429.810181 
	C1356.604614,430.063507 1354.143677,429.706207 1351.964233,430.353027 
	C1343.962036,432.727814 1340.428223,428.173370 1336.349243,422.212830 
	C1323.886963,404.002167 1313.540894,384.701141 1306.423340,363.918213 
	C1302.252686,351.740082 1299.385010,338.936127 1297.559814,326.180664 
	C1295.375977,310.918701 1294.920776,295.408752 1293.753906,280.003418 
	C1293.681274,279.045929 1293.932251,278.063904 1294.087280,276.566406 
	C1305.052734,281.623077 1315.701538,281.684021 1325.468872,274.622528 
	C1330.420288,271.042755 1335.069824,266.870270 1339.205566,262.368469 
	C1354.757812,245.440079 1361.997070,225.817947 1357.059204,202.734406 
	C1354.787842,192.116714 1349.578613,183.307159 1340.358643,177.027130 
	C1334.094360,172.760223 1328.138062,168.041138 1321.436890,163.074295 
	C1326.715088,153.330078 1331.860352,142.546448 1338.159668,132.485519 
	C1349.277222,114.729393 1359.555420,96.725449 1361.663452,75.380730 
	C1363.036499,61.478363 1363.892578,47.524906 1364.977539,33.594120 
	C1365.273804,29.790077 1365.560059,25.985247 1365.918823,21.290525 
	C1369.563232,23.951902 1372.885742,26.220541 1376.034546,28.709015 
	C1383.710938,34.775681 1392.992188,39.211227 1393.908325,51.183289 
	C1394.343140,56.866009 1399.663696,60.524651 1404.792236,62.767719 
	C1415.309448,67.367722 1426.431519,71.645279 1437.059204,64.089844 
	C1447.792358,56.459412 1453.942871,46.375717 1453.665771,31.980532 
	C1453.472900,21.956190 1457.117554,11.857993 1459.024048,1.396396 
	C1468.020874,1.000000 1477.041870,1.000000 1486.531372,1.000000 
M1500.099365,173.587433 
	C1497.448608,158.383789 1491.192627,144.987732 1479.347778,134.842148 
	C1475.807617,131.809891 1471.236694,128.884460 1466.786011,128.200089 
	C1446.613403,125.098244 1428.313721,130.612961 1411.718262,142.179016 
	C1410.515869,143.017029 1409.606445,144.283142 1408.586670,145.374268 
	C1395.542114,159.329483 1393.649902,176.431931 1395.059814,194.325638 
	C1396.973511,218.614059 1413.238159,237.945419 1436.415771,242.607056 
	C1446.564941,244.648331 1456.786865,245.752563 1467.152710,240.979462 
	C1481.733276,234.265625 1490.171387,222.632706 1495.809937,208.607544 
	C1500.173340,197.753769 1502.750122,186.349060 1500.099365,173.587433 
z"/>
<path fill="#FFF9F6" opacity="1.000000" stroke="none" 
	d="
M2049.000000,220.531342 
	C2044.035156,228.840439 2038.285889,236.301315 2034.269287,244.600677 
	C2026.030273,261.623962 2018.574463,279.034027 2011.091187,296.411804 
	C2007.556396,304.620056 2005.456787,313.509857 2001.389404,321.412689 
	C1991.208740,341.192688 1963.108765,348.380432 1945.628174,330.470367 
	C1932.380005,316.896698 1916.022827,307.959045 1897.958496,302.313812 
	C1895.719849,301.614197 1892.737915,301.909760 1890.518433,302.793762 
	C1884.009521,305.385864 1877.523560,306.743591 1870.538452,305.218262 
	C1868.872803,304.854553 1866.807373,304.812775 1865.300049,305.474884 
	C1854.156616,310.369415 1843.079468,309.609375 1832.561523,304.314087 
	C1821.806641,298.899536 1819.794922,288.123474 1819.190918,277.567535 
	C1817.539185,248.696030 1816.483276,219.790573 1815.137451,190.901062 
	C1815.070312,189.458557 1814.922119,187.695938 1814.090576,186.662369 
	C1804.479248,174.714676 1809.794312,158.249329 1818.820068,149.347763 
	C1826.593262,141.681702 1836.541382,136.118179 1845.868164,130.157654 
	C1856.214355,123.545692 1866.678955,117.011436 1877.608643,111.460297 
	C1884.396118,108.012939 1885.591064,103.747589 1885.244751,96.628563 
	C1884.460815,80.516579 1884.877197,64.342995 1884.922485,48.194798 
	C1884.965820,32.753525 1885.157349,17.312670 1885.141846,1.435816 
	C1904.687622,1.000000 1924.375122,1.000000 1944.587158,1.426098 
	C1945.308228,7.333144 1945.666870,12.814068 1945.667603,18.295044 
	C1945.669189,29.257362 1945.346680,40.220203 1945.389160,51.181931 
	C1945.463989,70.482170 1944.941772,89.829117 1946.124390,109.067070 
	C1947.126953,125.377312 1936.872437,135.845184 1928.867188,147.505554 
	C1925.313843,152.681442 1919.795166,156.508484 1915.163208,160.942139 
	C1915.047729,161.052689 1914.866211,161.091080 1914.723511,161.176468 
	C1903.454956,167.917862 1892.233521,174.740479 1880.883057,181.341019 
	C1878.366699,182.804367 1877.552002,184.395691 1877.689453,187.283783 
	C1878.354004,201.246201 1878.728394,215.222153 1879.298584,229.189499 
	C1879.526611,234.774216 1879.993652,240.349167 1880.360107,246.057144 
	C1910.985962,243.001953 1936.867188,254.832397 1961.586182,270.066833 
	C1962.052734,269.546600 1962.361572,269.338776 1962.478394,269.052643 
	C1970.964355,248.266022 1979.622681,227.568863 1991.590698,208.443253 
	C1992.250610,207.388718 1991.814941,205.362274 1991.373413,203.949402 
	C1986.824097,189.388962 1981.297974,175.063736 1977.861206,160.251358 
	C1975.718506,151.016388 1973.002686,143.610489 1963.692993,139.976471 
	C1962.177612,139.384933 1960.876831,138.213715 1959.520874,137.248550 
	C1953.425171,132.909744 1949.600098,126.970909 1950.015991,119.524864 
	C1950.379517,113.014893 1951.131714,106.105034 1953.690186,100.233841 
	C1957.985474,90.377495 1963.445435,80.953262 1969.136230,71.795189 
	C1983.881226,48.066532 1999.019043,24.581984 2014.000000,1.000014 
	C2025.607056,1.000000 2037.213989,1.000000 2049.000000,1.000000 
	C2049.000000,17.687136 2049.000000,34.374908 2048.738770,51.744091 
	C2037.507324,69.684792 2026.484741,86.911644 2015.681763,104.275146 
	C2014.950439,105.450562 2015.221802,108.195267 2016.132446,109.291687 
	C2021.560669,115.826828 2025.374146,123.061279 2027.314331,131.347519 
	C2029.169922,139.272659 2031.254028,147.144089 2033.208740,155.046265 
	C2036.263184,167.394241 2040.488770,179.192322 2049.000000,189.000000 
	C2049.000000,199.354233 2049.000000,209.708450 2049.000000,220.531342 
z"/>
<path fill="#FFF9F6" opacity="1.000000" stroke="none" 
	d="
M2049.000000,1587.531372 
	C2043.123413,1584.971436 2037.290161,1581.855347 2031.363403,1578.928345 
	C1989.940674,1558.470581 1948.088623,1538.978638 1905.117432,1521.929932 
	C1862.151611,1504.883667 1818.477295,1489.918579 1774.090332,1477.088501 
	C1755.278320,1471.650757 1736.277100,1466.719238 1717.140259,1462.583618 
	C1676.875610,1453.882324 1636.616455,1444.992554 1596.058594,1437.867676 
	C1569.899780,1433.272217 1543.265747,1431.026001 1516.749512,1428.929321 
	C1494.018555,1427.132080 1471.175049,1427.754761 1448.640137,1432.092896 
	C1442.448242,1433.284912 1436.428345,1435.351685 1430.251343,1436.643799 
	C1415.263916,1439.778564 1398.701172,1432.189819 1392.873901,1419.737183 
	C1388.005493,1409.333618 1389.786865,1399.105469 1398.078247,1390.307495 
	C1408.070923,1379.704346 1421.074707,1375.624268 1434.901978,1373.049438 
	C1455.282837,1369.254272 1475.869019,1367.245483 1496.504150,1368.253296 
	C1521.413696,1369.469727 1546.313232,1371.536499 1571.108765,1374.232788 
	C1590.759888,1376.369629 1610.301514,1379.697998 1629.791260,1383.077148 
	C1646.981567,1386.057373 1664.084595,1389.603516 1681.132568,1393.327637 
	C1702.386963,1397.970825 1723.608276,1402.800049 1744.722534,1408.037598 
	C1757.933838,1411.314819 1770.938354,1415.436646 1784.006348,1419.279053 
	C1804.879883,1425.416626 1826.039307,1430.761841 1846.519531,1438.017700 
	C1881.252441,1450.323242 1915.743408,1463.372681 1949.964844,1477.039307 
	C1973.858276,1486.581299 1997.189453,1497.547852 2020.654175,1508.138428 
	C2030.030884,1512.370605 2039.091553,1517.302612 2048.647949,1521.958008 
	C2049.000000,1543.687622 2049.000000,1565.375122 2049.000000,1587.531372 
z"/>
<path fill="#FFF9F6" opacity="1.000000" stroke="none" 
	d="
M2049.000000,1441.531250 
	C2036.812500,1432.258301 2025.410400,1421.252197 2012.249756,1413.077026 
	C1993.381958,1401.356567 1973.650635,1390.800415 1953.509521,1381.418457 
	C1933.243652,1371.978394 1912.162720,1364.213013 1891.176758,1356.419556 
	C1876.413574,1350.936768 1861.355957,1346.109131 1846.168091,1341.943115 
	C1828.279175,1337.036377 1810.162354,1332.913696 1792.045654,1328.896118 
	C1766.602783,1323.254028 1741.090210,1317.918823 1715.564697,1312.659546 
	C1703.699829,1310.214966 1691.785889,1307.903076 1679.802612,1306.161377 
	C1659.920898,1303.271729 1640.028198,1300.052734 1620.021729,1298.551270 
	C1602.834229,1297.261230 1585.474121,1297.906128 1568.207520,1298.356445 
	C1564.899414,1298.442871 1561.406860,1301.250244 1558.475708,1303.439819 
	C1555.050537,1305.998047 1552.507324,1309.819458 1548.943604,1312.092896 
	C1541.142944,1317.069336 1532.432129,1318.383545 1524.406128,1313.222168 
	C1518.523071,1309.438843 1512.636719,1304.803345 1508.584106,1299.218140 
	C1501.296021,1289.173584 1505.154785,1278.305786 1509.673584,1268.357788 
	C1517.887329,1250.275269 1533.108398,1241.399536 1552.052124,1237.995605 
	C1572.633179,1234.297852 1593.449463,1233.311890 1614.160034,1235.275513 
	C1638.944702,1237.625488 1663.737671,1240.593628 1688.260010,1244.837402 
	C1723.237915,1250.890503 1758.071411,1257.889038 1792.776611,1265.366333 
	C1815.135010,1270.183350 1837.118652,1276.718994 1859.330444,1282.242920 
	C1895.552002,1291.250854 1930.322632,1304.332886 1964.561157,1319.011719 
	C1988.898682,1329.445557 2012.233276,1341.754883 2034.831177,1355.518188 
	C2039.225464,1358.194580 2043.793335,1360.585815 2048.640625,1363.054199 
	C2049.000000,1389.020874 2049.000000,1415.041870 2049.000000,1441.531250 
z"/>
<path fill="#E51938" opacity="1.000000" stroke="none" 
	d="
M1687.531372,0.999999 
	C1684.158203,14.923871 1680.513428,28.905849 1676.426514,42.757408 
	C1670.939331,61.354733 1667.414062,80.272446 1667.032349,99.652496 
	C1666.618530,120.658951 1678.136719,136.786774 1697.303101,145.335983 
	C1709.081177,150.589539 1719.983276,157.774292 1731.527100,163.599533 
	C1736.793213,166.256927 1739.126709,169.369690 1740.244019,175.581970 
	C1744.008911,196.514389 1743.805542,217.626511 1744.829834,238.691040 
	C1745.023804,242.682312 1745.146362,246.688461 1745.036255,250.680405 
	C1744.883423,256.228821 1743.644897,257.249329 1737.957764,256.901672 
	C1735.634033,256.759613 1733.324463,256.401825 1731.003174,256.203339 
	C1728.851929,256.019409 1726.693848,255.917084 1723.712769,255.725815 
	C1722.496094,247.632095 1721.327393,239.473679 1720.032227,231.335419 
	C1718.224609,219.977219 1715.633789,208.871338 1710.382324,198.481415 
	C1703.769775,185.398987 1691.977051,179.310852 1679.067627,174.642029 
	C1675.944580,173.512482 1672.738647,172.403824 1669.476196,171.906662 
	C1659.270264,170.351471 1654.570435,163.532013 1650.792847,154.691406 
	C1646.179443,143.894470 1641.848633,132.451431 1634.750000,123.351624 
	C1620.195312,104.693993 1603.067139,88.314354 1582.616821,75.853386 
	C1570.953979,68.746849 1561.102051,59.719818 1553.572754,48.255325 
	C1553.390015,47.977070 1553.232300,47.648567 1552.977661,47.456398 
	C1545.937622,42.144451 1546.748779,34.981098 1547.455444,27.324051 
	C1548.231567,18.912230 1547.674194,10.377357 1547.848877,1.448047 
	C1594.354248,1.000000 1640.708496,1.000000 1687.531372,0.999999 
z"/>
<path fill="#E51A39" opacity="1.000000" stroke="none" 
	d="
M2013.531372,1.000014 
	C1999.019043,24.581984 1983.881226,48.066532 1969.136230,71.795189 
	C1963.445435,80.953262 1957.985474,90.377495 1953.690186,100.233841 
	C1951.131714,106.105034 1950.379517,113.014893 1950.015991,119.524864 
	C1949.600098,126.970909 1953.425171,132.909744 1959.520874,137.248550 
	C1960.876831,138.213715 1962.177612,139.384933 1963.692993,139.976471 
	C1973.002686,143.610489 1975.718506,151.016388 1977.861206,160.251358 
	C1981.297974,175.063736 1986.824097,189.388962 1991.373413,203.949402 
	C1991.814941,205.362274 1992.250610,207.388718 1991.590698,208.443253 
	C1979.622681,227.568863 1970.964355,248.266022 1962.478394,269.052643 
	C1962.361572,269.338776 1962.052734,269.546600 1961.586182,270.066833 
	C1936.867188,254.832397 1910.985962,243.001953 1880.360107,246.057144 
	C1879.993652,240.349167 1879.526611,234.774216 1879.298584,229.189499 
	C1878.728394,215.222153 1878.354004,201.246201 1877.689453,187.283783 
	C1877.552002,184.395691 1878.366699,182.804367 1880.883057,181.341019 
	C1892.233521,174.740479 1903.454956,167.917862 1914.723511,161.176468 
	C1914.866211,161.091080 1915.047729,161.052689 1915.163208,160.942139 
	C1919.795166,156.508484 1925.313843,152.681442 1928.867188,147.505554 
	C1936.872437,135.845184 1947.126953,125.377312 1946.124390,109.067070 
	C1944.941772,89.829117 1945.463989,70.482170 1945.389160,51.181931 
	C1945.346680,40.220203 1945.669189,29.257362 1945.667603,18.295044 
	C1945.666870,12.814068 1945.308228,7.333144 1945.055664,1.426098 
	C1967.687622,1.000000 1990.375122,1.000000 2013.531372,1.000014 
z"/>
<path fill="#E51B39" opacity="1.000000" stroke="none" 
	d="
M2049.000000,188.531342 
	C2040.488770,179.192322 2036.263184,167.394241 2033.208740,155.046265 
	C2031.254028,147.144089 2029.169922,139.272659 2027.314331,131.347519 
	C2025.374146,123.061279 2021.560669,115.826828 2016.132446,109.291687 
	C2015.221802,108.195267 2014.950439,105.450562 2015.681763,104.275146 
	C2026.484741,86.911644 2037.507324,69.684792 2048.738770,52.212749 
	C2049.000000,97.354225 2049.000000,142.708450 2049.000000,188.531342 
z"/>
<path fill="#FFF9F6" opacity="1.000000" stroke="none" 
	d="
M1471.559448,896.534790 
	C1494.642578,880.410828 1519.338501,868.528503 1546.876587,864.053040 
	C1569.685425,860.346191 1592.560303,861.051636 1615.286133,866.468811 
	C1633.086548,870.711975 1649.973999,877.195984 1665.451416,886.615906 
	C1680.595337,895.832703 1695.165894,905.959534 1707.353149,919.337158 
	C1718.571655,931.651489 1730.144653,943.565491 1738.881226,957.866516 
	C1746.418091,970.203735 1754.012695,982.506226 1761.462646,994.895813 
	C1767.971802,1005.720459 1774.403809,1016.593628 1780.710571,1027.537231 
	C1790.685181,1044.845703 1787.741943,1057.382568 1776.106323,1072.131836 
	C1766.773193,1083.962402 1753.579956,1091.133179 1740.098511,1096.573486 
	C1717.055054,1105.872314 1693.630737,1114.488403 1669.821777,1121.557373 
	C1644.880493,1128.962891 1619.392334,1134.635864 1593.963745,1140.253418 
	C1576.126221,1144.193848 1557.977661,1146.717163 1539.985840,1149.971313 
	C1510.036133,1155.388184 1479.936035,1158.019653 1449.618652,1153.909790 
	C1432.769043,1151.625732 1418.688965,1143.518799 1408.311157,1130.121826 
	C1404.687256,1125.443726 1402.848999,1119.139526 1401.089966,1113.308105 
	C1396.877197,1099.342041 1391.839722,1085.415894 1389.724487,1071.091187 
	C1388.006470,1059.457275 1389.180664,1047.163574 1390.589478,1035.343506 
	C1395.026733,998.114136 1410.244019,965.078186 1432.519897,935.352661 
	C1443.487183,920.717590 1456.234741,907.488525 1471.559448,896.534790 
M1715.653809,1037.072754 
	C1707.811035,1023.768066 1699.936401,1010.481995 1692.132568,997.154480 
	C1678.849243,974.469421 1661.270752,956.134399 1638.368774,942.915894 
	C1623.407104,934.280334 1607.881958,927.384766 1590.559204,925.512573 
	C1583.314209,924.729614 1575.983154,924.743958 1569.209595,924.420532 
	C1572.999146,933.811646 1577.903809,942.128479 1579.664795,951.064758 
	C1584.527832,975.743042 1579.296753,998.642151 1563.763550,1018.734558 
	C1551.006714,1035.235840 1534.676636,1046.209595 1513.950562,1050.418701 
	C1507.150757,1051.799561 1500.493042,1054.033936 1493.931274,1056.336548 
	C1492.050293,1056.996704 1489.640869,1059.071655 1489.335449,1060.822632 
	C1487.489624,1071.404785 1486.183960,1082.081055 1484.630493,1093.206787 
	C1491.947876,1092.606567 1499.563721,1092.355835 1507.063354,1091.288940 
	C1522.846191,1089.043579 1538.644775,1086.770386 1554.296753,1083.776123 
	C1576.471069,1079.534180 1598.627930,1075.088989 1620.585083,1069.859985 
	C1637.212158,1065.900269 1653.630859,1060.943237 1669.928223,1055.757202 
	C1684.622803,1051.081055 1699.036865,1045.519653 1713.535156,1040.240234 
	C1714.514893,1039.883545 1715.162598,1038.614746 1715.653809,1037.072754 
z"/>
<path fill="#FFF9F6" opacity="1.000000" stroke="none" 
	d="
M1897.879395,1786.126465 
	C1879.045288,1769.511230 1860.786255,1752.753540 1841.751587,1736.929199 
	C1827.577637,1725.145752 1812.578369,1714.323120 1797.629272,1703.511353 
	C1770.962524,1684.224731 1744.251587,1664.986206 1717.173218,1646.286499 
	C1701.864136,1635.714478 1685.997925,1625.899414 1669.998047,1616.390503 
	C1651.864014,1605.613403 1633.647339,1594.868042 1614.812012,1585.412842 
	C1600.008667,1577.981689 1584.261841,1572.403931 1568.839844,1566.238525 
	C1553.867065,1560.252808 1538.124268,1557.855103 1522.103882,1557.301147 
	C1517.484619,1557.141357 1512.838989,1558.041870 1508.197510,1558.173584 
	C1493.267700,1558.596802 1479.003784,1547.325928 1475.896484,1532.792847 
	C1473.751831,1522.762207 1480.835083,1509.063110 1491.561401,1501.999023 
	C1498.983521,1497.110962 1507.347168,1496.072388 1515.858154,1495.511841 
	C1546.593872,1493.487915 1575.703613,1500.394043 1603.688599,1512.363159 
	C1622.320801,1520.332153 1641.047974,1528.319214 1658.843262,1537.942749 
	C1680.595093,1549.705933 1701.584229,1562.920166 1722.588989,1576.011353 
	C1740.930298,1587.442505 1759.040771,1599.273804 1776.872803,1611.483765 
	C1793.062134,1622.568970 1808.733154,1634.410645 1824.643311,1645.904175 
	C1838.125854,1655.643799 1851.830078,1665.092041 1865.046997,1675.179321 
	C1874.937744,1682.728149 1884.260986,1691.027710 1893.742188,1699.104248 
	C1904.110840,1707.936523 1914.659424,1716.587769 1924.601318,1725.882935 
	C1935.892822,1736.439941 1946.917480,1747.325684 1957.462524,1758.624390 
	C1966.402710,1768.203613 1975.002808,1778.201416 1982.748535,1788.751587 
	C1986.658081,1794.077026 1989.282471,1800.813110 1990.832520,1807.306519 
	C1994.037964,1820.735840 1985.527466,1829.286621 1976.231201,1836.781616 
	C1964.268555,1846.426147 1949.997192,1842.214355 1940.938599,1833.087769 
	C1926.072144,1818.109619 1912.334961,1802.010864 1897.879395,1786.126465 
z"/>
<path fill="#E6203D" opacity="1.000000" stroke="none" 
	d="
M1001.947876,1138.010864 
	C1001.613953,1138.550171 1001.404053,1139.262451 1000.928040,1139.603638 
	C986.234802,1150.135498 971.515503,1160.630859 956.381592,1171.430664 
	C953.967407,1161.796265 951.725830,1152.850342 949.098022,1142.363281 
	C961.967102,1149.921509 972.686157,1141.988281 984.025574,1140.468262 
	C989.768311,1139.698364 995.487427,1138.752319 1001.612671,1137.972412 
	C1002.007996,1138.058838 1001.947876,1138.010864 1001.947876,1138.010864 
z"/>
<path fill="#E51C3A" opacity="1.000000" stroke="none" 
	d="
M1321.385986,233.329773 
	C1318.240234,237.497482 1314.234863,238.925827 1309.702148,237.787231 
	C1305.103394,236.632034 1303.303955,232.903656 1302.776123,228.439468 
	C1302.563477,226.640823 1302.032837,224.872269 1301.908691,223.071976 
	C1301.458130,216.537796 1306.352661,210.228638 1312.808228,208.873978 
	C1319.360352,207.499100 1324.345215,211.124268 1325.078613,217.838867 
	C1325.674683,223.294250 1324.877930,228.448090 1321.385986,233.329773 
z"/>
<path fill="#E6203D" opacity="1.000000" stroke="none" 
	d="
M1002.032227,1138.088745 
	C1002.161865,1137.897827 1002.267273,1137.677124 1002.372620,1137.456299 
	C1002.419983,1137.541260 1002.527649,1137.669678 1002.503662,1137.703003 
	C1002.429382,1137.805542 1002.304810,1137.871704 1002.073853,1137.981445 
	C1001.947876,1138.010864 1002.007996,1138.058838 1002.032227,1138.088745 
z"/>
<path fill="#FFF8F6" opacity="1.000000" stroke="none" 
	d="
M1500.157593,174.019379 
	C1502.750122,186.349060 1500.173340,197.753769 1495.809937,208.607544 
	C1490.171387,222.632706 1481.733276,234.265625 1467.152710,240.979462 
	C1456.786865,245.752563 1446.564941,244.648331 1436.415771,242.607056 
	C1413.238159,237.945419 1396.973511,218.614059 1395.059814,194.325638 
	C1393.649902,176.431931 1395.542114,159.329483 1408.586670,145.374268 
	C1409.606445,144.283142 1410.515869,143.017029 1411.718262,142.179016 
	C1428.313721,130.612961 1446.613403,125.098244 1466.786011,128.200089 
	C1471.236694,128.884460 1475.807617,131.809891 1479.347778,134.842148 
	C1491.192627,144.987732 1497.448608,158.383789 1500.157593,174.019379 
M1446.941040,207.956894 
	C1457.372681,208.217972 1465.950439,201.388626 1467.977905,191.208115 
	C1470.147949,180.311203 1462.235596,170.704636 1451.166016,170.796814 
	C1441.903809,170.873932 1433.319946,178.481171 1431.884766,187.884460 
	C1430.510132,196.891861 1435.805908,204.324005 1446.941040,207.956894 
z"/>
<path fill="#E51938" opacity="1.000000" stroke="none" 
	d="
M1715.809204,1037.421387 
	C1715.162598,1038.614746 1714.514893,1039.883545 1713.535156,1040.240234 
	C1699.036865,1045.519653 1684.622803,1051.081055 1669.928223,1055.757202 
	C1653.630859,1060.943237 1637.212158,1065.900269 1620.585083,1069.859985 
	C1598.627930,1075.088989 1576.471069,1079.534180 1554.296753,1083.776123 
	C1538.644775,1086.770386 1522.846191,1089.043579 1507.063354,1091.288940 
	C1499.563721,1092.355835 1491.947876,1092.606567 1484.630493,1093.206787 
	C1486.183960,1082.081055 1487.489624,1071.404785 1489.335449,1060.822632 
	C1489.640869,1059.071655 1492.050293,1056.996704 1493.931274,1056.336548 
	C1500.493042,1054.033936 1507.150757,1051.799561 1513.950562,1050.418701 
	C1534.676636,1046.209595 1551.006714,1035.235840 1563.763550,1018.734558 
	C1579.296753,998.642151 1584.527832,975.743042 1579.664795,951.064758 
	C1577.903809,942.128479 1572.999146,933.811646 1569.209595,924.420532 
	C1575.983154,924.743958 1583.314209,924.729614 1590.559204,925.512573 
	C1607.881958,927.384766 1623.407104,934.280334 1638.368774,942.915894 
	C1661.270752,956.134399 1678.849243,974.469421 1692.132568,997.154480 
	C1699.936401,1010.481995 1707.811035,1023.768066 1715.809204,1037.421387 
z"/>
<path fill="#E51B3A" opacity="1.000000" stroke="none" 
	d="
M1446.527710,207.905365 
	C1435.805908,204.324005 1430.510132,196.891861 1431.884766,187.884460 
	C1433.319946,178.481171 1441.903809,170.873932 1451.166016,170.796814 
	C1462.235596,170.704636 1470.147949,180.311203 1467.977905,191.208115 
	C1465.950439,201.388626 1457.372681,208.217972 1446.527710,207.905365 
z"/>
</svg>